<?xml version="1.0" encoding="us-ascii" standalone="no"?><svg xmlns="http://www.w3.org/2000/svg" xmlns:xlink="http://www.w3.org/1999/xlink" contentStyleType="text/css" height="1111px" preserveAspectRatio="none" style="width:2820px;height:1111px;background:#FFFFFF;" version="1.1" viewBox="0 0 2820 1111" width="2820px" zoomAndPan="magnify"><defs/><g><text fill="#000000" font-family="sans-serif" font-size="14" font-weight="bold" lengthAdjust="spacing" textLength="326" x="1240" y="23.5352">Family Service - Clean Architecture Overview</text><!--cluster InterfaceLayer--><g id="cluster_InterfaceLayer"><rect fill="none" height="232.35" rx="2.5" ry="2.5" style="stroke:#181818;stroke-width:1.0;" width="328" x="1128" y="44.4883"/><text fill="#000000" font-family="sans-serif" font-size="14" font-weight="bold" lengthAdjust="spacing" textLength="106" x="1239" y="60.0234">Interface Layer</text></g><!--cluster ApplicationLayer--><g id="cluster_ApplicationLayer"><rect fill="none" height="267.7" rx="2.5" ry="2.5" style="stroke:#181818;stroke-width:1.0;" width="356" x="7" y="471.0483"/><text fill="#000000" font-family="sans-serif" font-size="14" font-weight="bold" lengthAdjust="spacing" textLength="125" x="122.5" y="486.5834">Application Layer</text></g><!--cluster DomainLayer--><g id="cluster_DomainLayer"><rect fill="none" height="266.97" rx="2.5" ry="2.5" style="stroke:#181818;stroke-width:1.0;" width="512" x="728" y="625.2583"/><text fill="#000000" font-family="sans-serif" font-size="14" font-weight="bold" lengthAdjust="spacing" textLength="99" x="934.5" y="640.7934">Domain Layer</text></g><!--cluster InfrastructureLayer--><g id="cluster_InfrastructureLayer"><rect fill="none" height="421.91" rx="2.5" ry="2.5" style="stroke:#181818;stroke-width:1.0;" width="536" x="1355" y="316.8383"/><text fill="#000000" font-family="sans-serif" font-size="14" font-weight="bold" lengthAdjust="spacing" textLength="142" x="1552" y="332.3734">Infrastructure Layer</text></g><!--cluster DomainModel--><g id="cluster_DomainModel"><rect fill="none" height="326.46" rx="2.5" ry="2.5" style="stroke:#181818;stroke-width:1.0;" width="541" x="1280" y="778.7483"/><text fill="#000000" font-family="sans-serif" font-size="14" font-weight="bold" lengthAdjust="spacing" textLength="105" x="1498" y="794.2834">Domain Model</text></g><!--cluster AppServicesDetail--><g id="cluster_AppServicesDetail"><rect fill="none" height="113.49" rx="2.5" ry="2.5" style="stroke:#181818;stroke-width:1.0;" width="285" x="403" y="625.2583"/><text fill="#000000" font-family="sans-serif" font-size="14" font-weight="bold" lengthAdjust="spacing" textLength="145" x="473" y="640.7934">Application Services</text></g><!--cluster InfraAdapters--><g id="cluster_InfraAdapters"><rect fill="none" height="219.97" rx="2.5" ry="2.5" style="stroke:#181818;stroke-width:1.0;" width="677" x="1861" y="778.7483"/><text fill="#000000" font-family="sans-serif" font-size="14" font-weight="bold" lengthAdjust="spacing" textLength="168" x="2115.5" y="794.2834">Infrastructure Adapters</text></g><!--entity GraphQL--><g id="elem_GraphQL"><rect fill="#F1F1F1" height="46.4883" rx="2.5" ry="2.5" style="stroke:#181818;stroke-width:0.5;" width="126" x="1287" y="87.4883"/><rect fill="#F1F1F1" height="10" style="stroke:#181818;stroke-width:0.5;" width="15" x="1393" y="92.4883"/><rect fill="#F1F1F1" height="2" style="stroke:#181818;stroke-width:0.5;" width="4" x="1391" y="94.4883"/><rect fill="#F1F1F1" height="2" style="stroke:#181818;stroke-width:0.5;" width="4" x="1391" y="98.4883"/><text fill="#000000" font-family="sans-serif" font-size="14" lengthAdjust="spacing" textLength="86" x="1302" y="121.0234">GraphQL API</text></g><!--entity REST--><g id="elem_REST"><rect fill="#F1F1F1" height="46.4883" rx="2.5" ry="2.5" style="stroke:#181818;stroke-width:0.5;" width="100" x="1152" y="87.4883"/><rect fill="#F1F1F1" height="10" style="stroke:#181818;stroke-width:0.5;" width="15" x="1232" y="92.4883"/><rect fill="#F1F1F1" height="2" style="stroke:#181818;stroke-width:0.5;" width="4" x="1230" y="94.4883"/><rect fill="#F1F1F1" height="2" style="stroke:#181818;stroke-width:0.5;" width="4" x="1230" y="98.4883"/><text fill="#000000" font-family="sans-serif" font-size="14" lengthAdjust="spacing" textLength="60" x="1167" y="121.0234">REST API</text></g><!--entity CLI--><g id="elem_CLI"><rect fill="#F1F1F1" height="46.4883" rx="2.5" ry="2.5" style="stroke:#181818;stroke-width:0.5;" width="61" x="1335.5" y="206.3483"/><rect fill="#F1F1F1" height="10" style="stroke:#181818;stroke-width:0.5;" width="15" x="1376.5" y="211.3483"/><rect fill="#F1F1F1" height="2" style="stroke:#181818;stroke-width:0.5;" width="4" x="1374.5" y="213.3483"/><rect fill="#F1F1F1" height="2" style="stroke:#181818;stroke-width:0.5;" width="4" x="1374.5" y="217.3483"/><text fill="#000000" font-family="sans-serif" font-size="14" lengthAdjust="spacing" textLength="21" x="1350.5" y="239.8834">CLI</text></g><!--entity AppServices--><g id="elem_AppServices"><rect fill="#F1F1F1" height="46.4883" rx="2.5" ry="2.5" style="stroke:#181818;stroke-width:0.5;" width="177" x="30.5" y="514.0483"/><rect fill="#F1F1F1" height="10" style="stroke:#181818;stroke-width:0.5;" width="15" x="187.5" y="519.0483"/><rect fill="#F1F1F1" height="2" style="stroke:#181818;stroke-width:0.5;" width="4" x="185.5" y="521.0483"/><rect fill="#F1F1F1" height="2" style="stroke:#181818;stroke-width:0.5;" width="4" x="185.5" y="525.0483"/><text fill="#000000" font-family="sans-serif" font-size="14" lengthAdjust="spacing" textLength="137" x="45.5" y="547.5834">Application Services</text></g><!--entity DTOs--><g id="elem_DTOs"><rect fill="#F1F1F1" height="46.4883" rx="2.5" ry="2.5" style="stroke:#181818;stroke-width:0.5;" width="77" x="242.5" y="514.0483"/><rect fill="#F1F1F1" height="10" style="stroke:#181818;stroke-width:0.5;" width="15" x="299.5" y="519.0483"/><rect fill="#F1F1F1" height="2" style="stroke:#181818;stroke-width:0.5;" width="4" x="297.5" y="521.0483"/><rect fill="#F1F1F1" height="2" style="stroke:#181818;stroke-width:0.5;" width="4" x="297.5" y="525.0483"/><text fill="#000000" font-family="sans-serif" font-size="14" lengthAdjust="spacing" textLength="37" x="257.5" y="547.5834">DTOs</text></g><!--entity UseCases--><g id="elem_UseCases"><rect fill="#F1F1F1" height="46.4883" rx="2.5" ry="2.5" style="stroke:#181818;stroke-width:0.5;" width="109" x="64.5" y="668.2583"/><rect fill="#F1F1F1" height="10" style="stroke:#181818;stroke-width:0.5;" width="15" x="153.5" y="673.2583"/><rect fill="#F1F1F1" height="2" style="stroke:#181818;stroke-width:0.5;" width="4" x="151.5" y="675.2583"/><rect fill="#F1F1F1" height="2" style="stroke:#181818;stroke-width:0.5;" width="4" x="151.5" y="679.2583"/><text fill="#000000" font-family="sans-serif" font-size="14" lengthAdjust="spacing" textLength="69" x="79.5" y="701.7934">Use Cases</text></g><!--entity DomainServices--><g id="elem_DomainServices"><rect fill="#F1F1F1" height="46.4883" rx="2.5" ry="2.5" style="stroke:#181818;stroke-width:0.5;" width="152" x="752" y="668.2583"/><rect fill="#F1F1F1" height="10" style="stroke:#181818;stroke-width:0.5;" width="15" x="884" y="673.2583"/><rect fill="#F1F1F1" height="2" style="stroke:#181818;stroke-width:0.5;" width="4" x="882" y="675.2583"/><rect fill="#F1F1F1" height="2" style="stroke:#181818;stroke-width:0.5;" width="4" x="882" y="679.2583"/><text fill="#000000" font-family="sans-serif" font-size="14" lengthAdjust="spacing" textLength="112" x="767" y="701.7934">Domain Services</text></g><!--entity Entities--><g id="elem_Entities"><rect fill="#F1F1F1" height="46.4883" rx="2.5" ry="2.5" style="stroke:#181818;stroke-width:0.5;" width="90" x="939" y="668.2583"/><rect fill="#F1F1F1" height="10" style="stroke:#181818;stroke-width:0.5;" width="15" x="1009" y="673.2583"/><rect fill="#F1F1F1" height="2" style="stroke:#181818;stroke-width:0.5;" width="4" x="1007" y="675.2583"/><rect fill="#F1F1F1" height="2" style="stroke:#181818;stroke-width:0.5;" width="4" x="1007" y="679.2583"/><text fill="#000000" font-family="sans-serif" font-size="14" lengthAdjust="spacing" textLength="50" x="954" y="701.7934">Entities</text></g><!--entity ValueObjects--><g id="elem_ValueObjects"><rect fill="#F1F1F1" height="46.4883" rx="2.5" ry="2.5" style="stroke:#181818;stroke-width:0.5;" width="133" x="1063.5" y="668.2583"/><rect fill="#F1F1F1" height="10" style="stroke:#181818;stroke-width:0.5;" width="15" x="1176.5" y="673.2583"/><rect fill="#F1F1F1" height="2" style="stroke:#181818;stroke-width:0.5;" width="4" x="1174.5" y="675.2583"/><rect fill="#F1F1F1" height="2" style="stroke:#181818;stroke-width:0.5;" width="4" x="1174.5" y="679.2583"/><text fill="#000000" font-family="sans-serif" font-size="14" lengthAdjust="spacing" textLength="93" x="1078.5" y="701.7934">Value Objects</text></g><!--entity DomainEvents--><g id="elem_DomainEvents"><rect fill="#F1F1F1" height="46.4883" rx="2.5" ry="2.5" style="stroke:#181818;stroke-width:0.5;" width="141" x="757.5" y="821.7483"/><rect fill="#F1F1F1" height="10" style="stroke:#181818;stroke-width:0.5;" width="15" x="878.5" y="826.7483"/><rect fill="#F1F1F1" height="2" style="stroke:#181818;stroke-width:0.5;" width="4" x="876.5" y="828.7483"/><rect fill="#F1F1F1" height="2" style="stroke:#181818;stroke-width:0.5;" width="4" x="876.5" y="832.7483"/><text fill="#000000" font-family="sans-serif" font-size="14" lengthAdjust="spacing" textLength="101" x="772.5" y="855.2834">Domain Events</text></g><!--entity Aggregates--><g id="elem_Aggregates"><rect fill="#F1F1F1" height="46.4883" rx="2.5" ry="2.5" style="stroke:#181818;stroke-width:0.5;" width="119" x="933.5" y="821.7483"/><rect fill="#F1F1F1" height="10" style="stroke:#181818;stroke-width:0.5;" width="15" x="1032.5" y="826.7483"/><rect fill="#F1F1F1" height="2" style="stroke:#181818;stroke-width:0.5;" width="4" x="1030.5" y="828.7483"/><rect fill="#F1F1F1" height="2" style="stroke:#181818;stroke-width:0.5;" width="4" x="1030.5" y="832.7483"/><text fill="#000000" font-family="sans-serif" font-size="14" lengthAdjust="spacing" textLength="79" x="948.5" y="855.2834">Aggregates</text></g><!--entity Repositories--><g id="elem_Repositories"><rect fill="#F1F1F1" height="46.4883" rx="2.5" ry="2.5" style="stroke:#181818;stroke-width:0.5;" width="125" x="1550.5" y="359.8383"/><rect fill="#F1F1F1" height="10" style="stroke:#181818;stroke-width:0.5;" width="15" x="1655.5" y="364.8383"/><rect fill="#F1F1F1" height="2" style="stroke:#181818;stroke-width:0.5;" width="4" x="1653.5" y="366.8383"/><rect fill="#F1F1F1" height="2" style="stroke:#181818;stroke-width:0.5;" width="4" x="1653.5" y="370.8383"/><text fill="#000000" font-family="sans-serif" font-size="14" lengthAdjust="spacing" textLength="85" x="1565.5" y="393.3734">Repositories</text></g><!--entity ExternalServices--><g id="elem_ExternalServices"><rect fill="#F1F1F1" height="46.4883" rx="2.5" ry="2.5" style="stroke:#181818;stroke-width:0.5;" width="156" x="1711" y="359.8383"/><rect fill="#F1F1F1" height="10" style="stroke:#181818;stroke-width:0.5;" width="15" x="1847" y="364.8383"/><rect fill="#F1F1F1" height="2" style="stroke:#181818;stroke-width:0.5;" width="4" x="1845" y="366.8383"/><rect fill="#F1F1F1" height="2" style="stroke:#181818;stroke-width:0.5;" width="4" x="1845" y="370.8383"/><text fill="#000000" font-family="sans-serif" font-size="14" lengthAdjust="spacing" textLength="116" x="1726" y="393.3734">External Services</text></g><!--entity Persistence--><g id="elem_Persistence"><rect fill="#F1F1F1" height="46.4883" rx="2.5" ry="2.5" style="stroke:#181818;stroke-width:0.5;" width="117" x="1398.5" y="359.8383"/><rect fill="#F1F1F1" height="10" style="stroke:#181818;stroke-width:0.5;" width="15" x="1495.5" y="364.8383"/><rect fill="#F1F1F1" height="2" style="stroke:#181818;stroke-width:0.5;" width="4" x="1493.5" y="366.8383"/><rect fill="#F1F1F1" height="2" style="stroke:#181818;stroke-width:0.5;" width="4" x="1493.5" y="370.8383"/><text fill="#000000" font-family="sans-serif" font-size="14" lengthAdjust="spacing" textLength="77" x="1413.5" y="393.3734">Persistence</text></g><!--entity Logging--><g id="elem_Logging"><rect fill="#F1F1F1" height="46.4883" rx="2.5" ry="2.5" style="stroke:#181818;stroke-width:0.5;" width="96" x="1425" y="514.0483"/><rect fill="#F1F1F1" height="10" style="stroke:#181818;stroke-width:0.5;" width="15" x="1501" y="519.0483"/><rect fill="#F1F1F1" height="2" style="stroke:#181818;stroke-width:0.5;" width="4" x="1499" y="521.0483"/><rect fill="#F1F1F1" height="2" style="stroke:#181818;stroke-width:0.5;" width="4" x="1499" y="525.0483"/><text fill="#000000" font-family="sans-serif" font-size="14" lengthAdjust="spacing" textLength="56" x="1440" y="547.5834">Logging</text></g><!--entity Auth--><g id="elem_Auth"><rect fill="#F1F1F1" height="46.4883" rx="2.5" ry="2.5" style="stroke:#181818;stroke-width:0.5;" width="141" x="1555.5" y="514.0483"/><rect fill="#F1F1F1" height="10" style="stroke:#181818;stroke-width:0.5;" width="15" x="1676.5" y="519.0483"/><rect fill="#F1F1F1" height="2" style="stroke:#181818;stroke-width:0.5;" width="4" x="1674.5" y="521.0483"/><rect fill="#F1F1F1" height="2" style="stroke:#181818;stroke-width:0.5;" width="4" x="1674.5" y="525.0483"/><text fill="#000000" font-family="sans-serif" font-size="14" lengthAdjust="spacing" textLength="101" x="1570.5" y="547.5834">Authentication</text></g><!--entity Config--><g id="elem_Config"><rect fill="#F1F1F1" height="46.4883" rx="2.5" ry="2.5" style="stroke:#181818;stroke-width:0.5;" width="136" x="1731" y="514.0483"/><rect fill="#F1F1F1" height="10" style="stroke:#181818;stroke-width:0.5;" width="15" x="1847" y="519.0483"/><rect fill="#F1F1F1" height="2" style="stroke:#181818;stroke-width:0.5;" width="4" x="1845" y="521.0483"/><rect fill="#F1F1F1" height="2" style="stroke:#181818;stroke-width:0.5;" width="4" x="1845" y="525.0483"/><text fill="#000000" font-family="sans-serif" font-size="14" lengthAdjust="spacing" textLength="96" x="1746" y="547.5834">Configuration</text></g><!--entity Telemetry--><g id="elem_Telemetry"><rect fill="#F1F1F1" height="46.4883" rx="2.5" ry="2.5" style="stroke:#181818;stroke-width:0.5;" width="108" x="1419" y="668.2583"/><rect fill="#F1F1F1" height="10" style="stroke:#181818;stroke-width:0.5;" width="15" x="1507" y="673.2583"/><rect fill="#F1F1F1" height="2" style="stroke:#181818;stroke-width:0.5;" width="4" x="1505" y="675.2583"/><rect fill="#F1F1F1" height="2" style="stroke:#181818;stroke-width:0.5;" width="4" x="1505" y="679.2583"/><text fill="#000000" font-family="sans-serif" font-size="14" lengthAdjust="spacing" textLength="68" x="1434" y="701.7934">Telemetry</text></g><!--entity CircuitBreaker--><g id="elem_CircuitBreaker"><rect fill="#F1F1F1" height="46.4883" rx="2.5" ry="2.5" style="stroke:#181818;stroke-width:0.5;" width="141" x="1561.5" y="668.2583"/><rect fill="#F1F1F1" height="10" style="stroke:#181818;stroke-width:0.5;" width="15" x="1682.5" y="673.2583"/><rect fill="#F1F1F1" height="2" style="stroke:#181818;stroke-width:0.5;" width="4" x="1680.5" y="675.2583"/><rect fill="#F1F1F1" height="2" style="stroke:#181818;stroke-width:0.5;" width="4" x="1680.5" y="679.2583"/><text fill="#000000" font-family="sans-serif" font-size="14" lengthAdjust="spacing" textLength="101" x="1576.5" y="701.7934">Circuit Breaker</text></g><!--entity Caching--><g id="elem_Caching"><rect fill="#F1F1F1" height="46.4883" rx="2.5" ry="2.5" style="stroke:#181818;stroke-width:0.5;" width="96" x="1737" y="668.2583"/><rect fill="#F1F1F1" height="10" style="stroke:#181818;stroke-width:0.5;" width="15" x="1813" y="673.2583"/><rect fill="#F1F1F1" height="2" style="stroke:#181818;stroke-width:0.5;" width="4" x="1811" y="675.2583"/><rect fill="#F1F1F1" height="2" style="stroke:#181818;stroke-width:0.5;" width="4" x="1811" y="679.2583"/><text fill="#000000" font-family="sans-serif" font-size="14" lengthAdjust="spacing" textLength="56" x="1752" y="701.7934">Caching</text></g><!--entity FamilyAggregate--><g id="elem_FamilyAggregate"><rect fill="#F1F1F1" height="46.4883" rx="2.5" ry="2.5" style="stroke:#181818;stroke-width:0.5;" width="160" x="1323" y="821.7483"/><rect fill="#F1F1F1" height="10" style="stroke:#181818;stroke-width:0.5;" width="15" x="1463" y="826.7483"/><rect fill="#F1F1F1" height="2" style="stroke:#181818;stroke-width:0.5;" width="4" x="1461" y="828.7483"/><rect fill="#F1F1F1" height="2" style="stroke:#181818;stroke-width:0.5;" width="4" x="1461" y="832.7483"/><text fill="#000000" font-family="sans-serif" font-size="14" lengthAdjust="spacing" textLength="120" x="1338" y="855.2834">Family Aggregate</text></g><!--entity ParentEntity--><g id="elem_ParentEntity"><rect fill="#F1F1F1" height="46.4883" rx="2.5" ry="2.5" style="stroke:#181818;stroke-width:0.5;" width="126" x="1518" y="821.7483"/><rect fill="#F1F1F1" height="10" style="stroke:#181818;stroke-width:0.5;" width="15" x="1624" y="826.7483"/><rect fill="#F1F1F1" height="2" style="stroke:#181818;stroke-width:0.5;" width="4" x="1622" y="828.7483"/><rect fill="#F1F1F1" height="2" style="stroke:#181818;stroke-width:0.5;" width="4" x="1622" y="832.7483"/><text fill="#000000" font-family="sans-serif" font-size="14" lengthAdjust="spacing" textLength="86" x="1533" y="855.2834">Parent Entity</text></g><!--entity ChildEntity--><g id="elem_ChildEntity"><rect fill="#F1F1F1" height="46.4883" rx="2.5" ry="2.5" style="stroke:#181818;stroke-width:0.5;" width="118" x="1679" y="821.7483"/><rect fill="#F1F1F1" height="10" style="stroke:#181818;stroke-width:0.5;" width="15" x="1777" y="826.7483"/><rect fill="#F1F1F1" height="2" style="stroke:#181818;stroke-width:0.5;" width="4" x="1775" y="828.7483"/><rect fill="#F1F1F1" height="2" style="stroke:#181818;stroke-width:0.5;" width="4" x="1775" y="832.7483"/><text fill="#000000" font-family="sans-serif" font-size="14" lengthAdjust="spacing" textLength="78" x="1694" y="855.2834">Child Entity</text></g><!--entity FamilyStatus--><g id="elem_FamilyStatus"><rect fill="#F1F1F1" height="46.4883" rx="2.5" ry="2.5" style="stroke:#181818;stroke-width:0.5;" width="130" x="1338" y="928.2283"/><rect fill="#F1F1F1" height="10" style="stroke:#181818;stroke-width:0.5;" width="15" x="1448" y="933.2283"/><rect fill="#F1F1F1" height="2" style="stroke:#181818;stroke-width:0.5;" width="4" x="1446" y="935.2283"/><rect fill="#F1F1F1" height="2" style="stroke:#181818;stroke-width:0.5;" width="4" x="1446" y="939.2283"/><text fill="#000000" font-family="sans-serif" font-size="14" lengthAdjust="spacing" textLength="90" x="1353" y="961.7634">Family Status</text></g><!--entity ID--><g id="elem_ID"><rect fill="#F1F1F1" height="46.4883" rx="2.5" ry="2.5" style="stroke:#181818;stroke-width:0.5;" width="54" x="1503" y="928.2283"/><rect fill="#F1F1F1" height="10" style="stroke:#181818;stroke-width:0.5;" width="15" x="1537" y="933.2283"/><rect fill="#F1F1F1" height="2" style="stroke:#181818;stroke-width:0.5;" width="4" x="1535" y="935.2283"/><rect fill="#F1F1F1" height="2" style="stroke:#181818;stroke-width:0.5;" width="4" x="1535" y="939.2283"/><text fill="#000000" font-family="sans-serif" font-size="14" lengthAdjust="spacing" textLength="14" x="1518" y="961.7634">ID</text></g><!--entity Name--><g id="elem_Name"><rect fill="#F1F1F1" height="46.4883" rx="2.5" ry="2.5" style="stroke:#181818;stroke-width:0.5;" width="79" x="1591.5" y="928.2283"/><rect fill="#F1F1F1" height="10" style="stroke:#181818;stroke-width:0.5;" width="15" x="1650.5" y="933.2283"/><rect fill="#F1F1F1" height="2" style="stroke:#181818;stroke-width:0.5;" width="4" x="1648.5" y="935.2283"/><rect fill="#F1F1F1" height="2" style="stroke:#181818;stroke-width:0.5;" width="4" x="1648.5" y="939.2283"/><text fill="#000000" font-family="sans-serif" font-size="14" lengthAdjust="spacing" textLength="39" x="1606.5" y="961.7634">Name</text></g><!--entity DateOfBirth--><g id="elem_DateOfBirth"><rect fill="#F1F1F1" height="46.4883" rx="2.5" ry="2.5" style="stroke:#181818;stroke-width:0.5;" width="119" x="1343.5" y="1034.7183"/><rect fill="#F1F1F1" height="10" style="stroke:#181818;stroke-width:0.5;" width="15" x="1442.5" y="1039.7183"/><rect fill="#F1F1F1" height="2" style="stroke:#181818;stroke-width:0.5;" width="4" x="1440.5" y="1041.7183"/><rect fill="#F1F1F1" height="2" style="stroke:#181818;stroke-width:0.5;" width="4" x="1440.5" y="1045.7183"/><text fill="#000000" font-family="sans-serif" font-size="14" lengthAdjust="spacing" textLength="79" x="1358.5" y="1068.2534">DateOfBirth</text></g><!--entity DateOfDeath--><g id="elem_DateOfDeath"><rect fill="#F1F1F1" height="46.4883" rx="2.5" ry="2.5" style="stroke:#181818;stroke-width:0.5;" width="127" x="1497.5" y="1034.7183"/><rect fill="#F1F1F1" height="10" style="stroke:#181818;stroke-width:0.5;" width="15" x="1604.5" y="1039.7183"/><rect fill="#F1F1F1" height="2" style="stroke:#181818;stroke-width:0.5;" width="4" x="1602.5" y="1041.7183"/><rect fill="#F1F1F1" height="2" style="stroke:#181818;stroke-width:0.5;" width="4" x="1602.5" y="1045.7183"/><text fill="#000000" font-family="sans-serif" font-size="14" lengthAdjust="spacing" textLength="87" x="1512.5" y="1068.2534">DateOfDeath</text></g><!--entity FamilyAppService--><g id="elem_FamilyAppService"><rect fill="#F1F1F1" height="46.4883" rx="2.5" ry="2.5" style="stroke:#181818;stroke-width:0.5;" width="218" x="427" y="668.2583"/><rect fill="#F1F1F1" height="10" style="stroke:#181818;stroke-width:0.5;" width="15" x="625" y="673.2583"/><rect fill="#F1F1F1" height="2" style="stroke:#181818;stroke-width:0.5;" width="4" x="623" y="675.2583"/><rect fill="#F1F1F1" height="2" style="stroke:#181818;stroke-width:0.5;" width="4" x="623" y="679.2583"/><text fill="#000000" font-family="sans-serif" font-size="14" lengthAdjust="spacing" textLength="178" x="442" y="701.7934">Family Application Service</text></g><!--entity MongoRepo--><g id="elem_MongoRepo"><rect fill="#F1F1F1" height="46.4883" rx="2.5" ry="2.5" style="stroke:#181818;stroke-width:0.5;" width="183" x="1904.5" y="821.7483"/><rect fill="#F1F1F1" height="10" style="stroke:#181818;stroke-width:0.5;" width="15" x="2067.5" y="826.7483"/><rect fill="#F1F1F1" height="2" style="stroke:#181818;stroke-width:0.5;" width="4" x="2065.5" y="828.7483"/><rect fill="#F1F1F1" height="2" style="stroke:#181818;stroke-width:0.5;" width="4" x="2065.5" y="832.7483"/><text fill="#000000" font-family="sans-serif" font-size="14" lengthAdjust="spacing" textLength="143" x="1919.5" y="855.2834">MongoDB Repository</text></g><!--entity PostgresRepo--><g id="elem_PostgresRepo"><rect fill="#F1F1F1" height="46.4883" rx="2.5" ry="2.5" style="stroke:#181818;stroke-width:0.5;" width="195" x="2122.5" y="821.7483"/><rect fill="#F1F1F1" height="10" style="stroke:#181818;stroke-width:0.5;" width="15" x="2297.5" y="826.7483"/><rect fill="#F1F1F1" height="2" style="stroke:#181818;stroke-width:0.5;" width="4" x="2295.5" y="828.7483"/><rect fill="#F1F1F1" height="2" style="stroke:#181818;stroke-width:0.5;" width="4" x="2295.5" y="832.7483"/><text fill="#000000" font-family="sans-serif" font-size="14" lengthAdjust="spacing" textLength="155" x="2137.5" y="855.2834">PostgreSQL Repository</text></g><!--entity SQLiteRepo--><g id="elem_SQLiteRepo"><rect fill="#F1F1F1" height="46.4883" rx="2.5" ry="2.5" style="stroke:#181818;stroke-width:0.5;" width="160" x="1916" y="928.2283"/><rect fill="#F1F1F1" height="10" style="stroke:#181818;stroke-width:0.5;" width="15" x="2056" y="933.2283"/><rect fill="#F1F1F1" height="2" style="stroke:#181818;stroke-width:0.5;" width="4" x="2054" y="935.2283"/><rect fill="#F1F1F1" height="2" style="stroke:#181818;stroke-width:0.5;" width="4" x="2054" y="939.2283"/><text fill="#000000" font-family="sans-serif" font-size="14" lengthAdjust="spacing" textLength="120" x="1931" y="961.7634">SQLite Repository</text></g><!--entity GraphQLResolver--><g id="elem_GraphQLResolver"><rect fill="#F1F1F1" height="46.4883" rx="2.5" ry="2.5" style="stroke:#181818;stroke-width:0.5;" width="162" x="2352" y="821.7483"/><rect fill="#F1F1F1" height="10" style="stroke:#181818;stroke-width:0.5;" width="15" x="2494" y="826.7483"/><rect fill="#F1F1F1" height="2" style="stroke:#181818;stroke-width:0.5;" width="4" x="2492" y="828.7483"/><rect fill="#F1F1F1" height="2" style="stroke:#181818;stroke-width:0.5;" width="4" x="2492" y="832.7483"/><text fill="#000000" font-family="sans-serif" font-size="14" lengthAdjust="spacing" textLength="122" x="2367" y="855.2834">GraphQL Resolver</text></g><g id="elem_GMN50"><path d="M1915.5,640.5683 L1915.5,742.4316 L2314.5,742.4316 L2314.5,650.5683 L2304.5,640.5683 L1915.5,640.5683 " fill="#FEFFDD" style="stroke:#181818;stroke-width:0.5;"/><path d="M2304.5,640.5683 L2304.5,650.5683 L2314.5,650.5683 L2304.5,640.5683 " fill="#FEFFDD" style="stroke:#181818;stroke-width:1.0;"/><text fill="#000000" font-family="sans-serif" font-size="13" lengthAdjust="spacing" textLength="356" x="1921.5" y="658.1366">The Domain Layer contains the business logic and rules.</text><text fill="#000000" font-family="sans-serif" font-size="13" lengthAdjust="spacing" textLength="310" x="1921.5" y="673.4472">It is independent of other layers and frameworks.</text><text fill="#000000" font-family="sans-serif" font-size="13" lengthAdjust="spacing" textLength="255" x="1921.5" y="688.7577">- Entities: Business objects with identity</text><text fill="#000000" font-family="sans-serif" font-size="13" lengthAdjust="spacing" textLength="327" x="1921.5" y="704.0683">- Value Objects: Immutable objects without identity</text><text fill="#000000" font-family="sans-serif" font-size="13" lengthAdjust="spacing" textLength="325" x="1921.5" y="719.3788">- Aggregates: Clusters of entities and value objects</text><text fill="#000000" font-family="sans-serif" font-size="13" lengthAdjust="spacing" textLength="378" x="1921.5" y="734.6894">- Domain Services: Stateless operations on multiple entities</text></g><g id="elem_GMN53"><path d="M2421,494.0183 L2421,580.571 L2813,580.571 L2813,504.0183 L2803,494.0183 L2421,494.0183 " fill="#FEFFDD" style="stroke:#181818;stroke-width:0.5;"/><path d="M2803,494.0183 L2803,504.0183 L2813,504.0183 L2803,494.0183 " fill="#FEFFDD" style="stroke:#181818;stroke-width:1.0;"/><text fill="#000000" font-family="sans-serif" font-size="13" lengthAdjust="spacing" textLength="348" x="2427" y="511.5866">The Application Layer orchestrates the flow of data and</text><text fill="#000000" font-family="sans-serif" font-size="13" lengthAdjust="spacing" textLength="278" x="2427" y="526.8972">coordinates high-level business operations.</text><text fill="#000000" font-family="sans-serif" font-size="13" lengthAdjust="spacing" textLength="285" x="2427" y="542.2077">- Application Services: Orchestrate use cases</text><text fill="#000000" font-family="sans-serif" font-size="13" lengthAdjust="spacing" textLength="371" x="2427" y="557.5183">- DTOs: Data Transfer Objects for external communication</text><text fill="#000000" font-family="sans-serif" font-size="13" lengthAdjust="spacing" textLength="351" x="2427" y="572.8288">- Use Cases: Business operations from user perspective</text></g><g id="elem_GMN56"><path d="M1483,75.1083 L1483,146.3505 L1833,146.3505 L1833,85.1083 L1823,75.1083 L1483,75.1083 " fill="#FEFFDD" style="stroke:#181818;stroke-width:0.5;"/><path d="M1823,75.1083 L1823,85.1083 L1833,85.1083 L1823,75.1083 " fill="#FEFFDD" style="stroke:#181818;stroke-width:1.0;"/><text fill="#000000" font-family="sans-serif" font-size="13" lengthAdjust="spacing" textLength="310" x="1489" y="92.6766">The Interface Layer handles external interactions.</text><text fill="#000000" font-family="sans-serif" font-size="13" lengthAdjust="spacing" textLength="294" x="1489" y="107.9872">- GraphQL API: Main API for client applications</text><text fill="#000000" font-family="sans-serif" font-size="13" lengthAdjust="spacing" textLength="273" x="1489" y="123.2977">- REST API: Alternative API (if implemented)</text><text fill="#000000" font-family="sans-serif" font-size="13" lengthAdjust="spacing" textLength="329" x="1489" y="138.6083">- CLI: Command Line Interface for admin operations</text></g><g id="elem_GMN59"><path d="M1915,332.1483 L1915,434.0116 L2285,434.0116 L2285,342.1483 L2275,332.1483 L1915,332.1483 " fill="#FEFFDD" style="stroke:#181818;stroke-width:0.5;"/><path d="M2275,332.1483 L2275,342.1483 L2285,342.1483 L2275,332.1483 " fill="#FEFFDD" style="stroke:#181818;stroke-width:1.0;"/><text fill="#000000" font-family="sans-serif" font-size="13" lengthAdjust="spacing" textLength="349" x="1921" y="349.7166">The Infrastructure Layer provides technical capabilities.</text><text fill="#000000" font-family="sans-serif" font-size="13" lengthAdjust="spacing" textLength="283" x="1921" y="365.0272">- Repositories: Data access implementations</text><text fill="#000000" font-family="sans-serif" font-size="13" lengthAdjust="spacing" textLength="337" x="1921" y="380.3377">- External Services: Integration with external systems</text><text fill="#000000" font-family="sans-serif" font-size="13" lengthAdjust="spacing" textLength="290" x="1921" y="395.6483">- Persistence: Database connections and ORM</text><text fill="#000000" font-family="sans-serif" font-size="13" lengthAdjust="spacing" textLength="285" x="1921" y="410.9588">- Authentication: Security and access control</text><text fill="#000000" font-family="sans-serif" font-size="13" lengthAdjust="spacing" textLength="322" x="1921" y="426.2694">- Logging, Telemetry, etc.: Cross-cutting concerns</text></g><g id="elem_GMN62"><path d="M905,509.3283 L905,565.2599 L1319,565.2599 L1319,519.3283 L1309,509.3283 L905,509.3283 " fill="#FEFFDD" style="stroke:#181818;stroke-width:0.5;"/><path d="M1309,509.3283 L1309,519.3283 L1319,519.3283 L1309,509.3283 " fill="#FEFFDD" style="stroke:#181818;stroke-width:1.0;"/><text fill="#000000" font-family="sans-serif" font-size="13" lengthAdjust="spacing" textLength="393" x="911" y="526.8966">All dependencies point inward, following the Dependency Rule</text><text fill="#000000" font-family="sans-serif" font-size="13" lengthAdjust="spacing" textLength="355" x="911" y="542.2072">of Clean Architecture. The inner layers don't know about</text><text fill="#000000" font-family="sans-serif" font-size="13" lengthAdjust="spacing" textLength="102" x="911" y="557.5177">the outer layers.</text></g><!--link InterfaceLayer to ApplicationLayer--><g id="link_InterfaceLayer_ApplicationLayer"><path d="M1127.6201,208.964 C1124.8233,209.8422 1122.023,210.7267 1119.2195,211.6172 C1113.6125,213.3984 1107.9926,215.2039 1102.3616,217.0327 C1091.0995,220.6902 1079.793,224.4405 1068.4563,228.2739 C1045.7831,235.9408 1022.9894,243.9402 1000.1904,252.1947 C954.5924,268.7036 908.973,286.2327 864.2522,304.1622 C774.8106,340.0211 688.9638,377.4814 614.0725,411.5845 C539.1813,445.6877 475.2456,476.4336 429.6266,498.8638 C406.817,510.0788 388.5866,519.215 375.8555,525.6523 C372.6727,527.2617 369.8336,528.7023 367.3526,529.9646 C366.1121,530.5958 364.9612,531.1824 363.9015,531.7231 C363.6366,531.8583 363.3774,531.9906 363.1239,532.1201 " fill="none" id="InterfaceLayer-to-ApplicationLayer" style="stroke:#000000;stroke-width:1.0;"/><polygon fill="#000000" points="363.1239,532.1201,372.9584,531.5891,367.5768,529.846,369.3199,524.4644,363.1239,532.1201" style="stroke:#000000;stroke-width:1.0;"/></g><!--link ApplicationLayer to DomainLayer--><g id="link_ApplicationLayer_DomainLayer"><path d="M363.4827,539.3212 C363.8499,539.3657 364.2284,539.4115 364.6181,539.4586 C365.3974,539.5528 366.2215,539.6524 367.0894,539.7571 C374.0324,540.5946 383.777,541.7621 395.8283,543.1859 C419.9309,546.0336 453.2606,549.9064 491.8588,554.2145 C569.055,562.8308 667.325,573.1883 755,580.5683 C805.7,584.8383 1172.96,576.6283 1212,609.2583 C1215.455,612.1458 1218.3666,615.5253 1220.8156,619.2354 C1222.0402,621.0904 1223.1491,623.0281 1224.1525,625.0282 " fill="none" id="ApplicationLayer-to-DomainLayer" style="stroke:#000000;stroke-width:1.0;"/><polygon fill="#000000" points="1224.1525,625.0282,1223.6921,615.1901,1221.9104,620.559,1216.5415,618.7773,1224.1525,625.0282" style="stroke:#000000;stroke-width:1.0;"/></g><!--link InfrastructureLayer to DomainLayer--><g id="link_InfrastructureLayer_DomainLayer"><path d="M1354.4681,384.5451 C1353.9145,384.5757 1353.3355,384.6079 1352.7316,384.6415 C1351.5236,384.7088 1350.2157,384.7822 1348.8115,384.8616 C1346.0029,385.0204 1342.8088,385.2033 1339.2576,385.4102 C1325.0529,386.2375 1305.1349,387.4477 1281.3255,389.0291 C1233.7066,392.1917 1170.5219,396.8389 1106.3463,402.877 C977.995,414.9533 845.68,432.5933 826,455.0483 C789.23,496.9983 788.04,539.6883 826,580.5683 C884.52,643.5983 1146.31,553.7283 1212,609.2583 C1215.4388,612.1645 1218.338,615.5583 1220.7779,619.2788 C1221.9979,621.1391 1223.103,623.0811 1224.1033,625.0847 " fill="none" id="InfrastructureLayer-to-DomainLayer" style="stroke:#000000;stroke-width:1.0;"/><polygon fill="#000000" points="1224.1033,625.0847,1223.6619,615.2458,1221.8699,620.6113,1216.5044,618.8193,1224.1033,625.0847" style="stroke:#000000;stroke-width:1.0;"/></g><!--link InfrastructureLayer to ApplicationLayer--><g id="link_InfrastructureLayer_ApplicationLayer"><path d="M1354.5119,384.8013 C1354.0497,384.8409 1353.5695,384.8821 1353.0713,384.9249 C1351.0787,385.0962 1348.7996,385.2933 1346.2463,385.5156 C1336.0328,386.4049 1321.4313,387.6994 1303.2238,389.3736 C1266.8088,392.722 1215.97,397.5895 1156.965,403.7733 C1038.955,416.1408 888.28,433.7733 755,455.0483 C666.83,469.1233 568.5525,489.0233 491.4763,505.6045 C452.9381,513.8952 419.7003,521.3561 395.6764,526.8444 C383.6645,529.5885 373.956,531.8395 367.0402,533.4544 C366.1757,533.6563 365.3549,533.8482 364.5786,534.0299 C364.1905,534.1208 363.8135,534.2091 363.4478,534.2948 " fill="none" id="InfrastructureLayer-to-ApplicationLayer" style="stroke:#000000;stroke-width:1.0;"/><polygon fill="#000000" points="363.4478,534.2948,373.1231,536.1356,368.3159,533.1539,371.2976,528.3466,363.4478,534.2948" style="stroke:#000000;stroke-width:1.0;"/></g><!--reverse link DomainLayer to DomainModel--><g id="link_DomainLayer_DomainModel"><path d="M1240.0643,714.3154 C1240.1414,714.524 1240.2189,714.7337 1240.2968,714.9445 C1240.6085,715.7877 1240.9269,716.6488 1241.2514,717.5267 C1246.4441,731.5733 1253.2281,749.9245 1260.0113,768.2733 C1266.7944,786.622 1273.5766,804.9683 1278.7655,819.0048 C1279.0898,819.8821 1279.4079,820.7426 1279.7193,821.5851 C1279.7972,821.7958 1279.8747,822.0053 1279.9517,822.2137 " fill="none" id="DomainLayer-backto-DomainModel" style="stroke:#000000;stroke-width:1.0;"/><ellipse cx="1242.8382" cy="721.8191" fill="#FFFFFF" rx="8" ry="8" style="stroke:#000000;stroke-width:1.0;"/><line style="stroke:#000000;stroke-width:1.0;" x1="1245.6121" x2="1240.0643" y1="729.3228" y2="714.3154"/><line style="stroke:#000000;stroke-width:1.0;" x1="1235.3345" x2="1250.3419" y1="724.593" y2="719.0452"/></g><!--reverse link ApplicationLayer to AppServicesDetail--><g id="link_ApplicationLayer_AppServicesDetail"><path d="M363.4851,539.0663 C363.8747,539.1032 364.2766,539.1415 364.6907,539.1812 C365.519,539.2605 366.3959,539.3451 367.3198,539.4352 C374.711,540.1557 385.1085,541.2216 397.6277,542.6442 C422.6659,545.4895 456.1906,549.762 491.1238,555.5533 C560.99,567.1358 636.49,584.7933 661,609.2583 C664.1788,612.4308 666.8663,616.0263 669.1349,619.8957 C669.702,620.8631 670.243,621.8476 670.7589,622.8469 C671.0169,623.3465 671.2686,623.8499 671.5142,624.3566 C671.6369,624.61 671.7582,624.8642 671.8779,625.1193 " fill="none" id="ApplicationLayer-backto-AppServicesDetail" style="stroke:#000000;stroke-width:1.0;"/><ellipse cx="371.4494" cy="539.822" fill="#FFFFFF" rx="8" ry="8" style="stroke:#000000;stroke-width:1.0;"/><line style="stroke:#000000;stroke-width:1.0;" x1="379.4136" x2="363.4851" y1="540.5777" y2="539.0663"/><line style="stroke:#000000;stroke-width:1.0;" x1="370.6937" x2="372.2051" y1="547.7862" y2="531.8577"/></g><!--reverse link InfrastructureLayer to InfraAdapters--><g id="link_InfrastructureLayer_InfraAdapters"><path d="M1354.6105,383.9281 C1353.6218,383.9134 1352.5508,383.8984 1351.4004,383.8834 C1349.0995,383.8535 1346.4808,383.8238 1343.5663,383.7973 C1331.9084,383.6915 1315.5183,383.6375 1295.8097,383.8273 C1256.3925,384.207 1203.7013,385.562 1149.045,389.4283 C1039.7325,397.1608 922.56,414.9383 888,455.0483 C851.58,497.3083 850.15,539.5883 888,580.5683 C942.45,639.5283 1175.84,574.1283 1248,609.2583 C1327.04,647.7283 1301.82,718.6983 1382,754.7483 C1403.84,764.5683 1791.9,751.4083 1813,762.7483 C1832.015,772.9583 1845.8775,792.7983 1855.0538,810.3158 C1856.2008,812.5055 1857.2746,814.6589 1858.2761,816.7526 C1858.7768,817.7995 1859.2595,818.8315 1859.7242,819.8456 C1859.9566,820.3527 1860.1844,820.8553 1860.4078,821.3531 C1860.5195,821.602 1860.6301,821.8497 1860.7395,822.0962 C1860.7943,822.2194 1860.8487,822.3423 1860.9029,822.4649 " fill="none" id="InfrastructureLayer-backto-InfraAdapters" style="stroke:#000000;stroke-width:1.0;"/><ellipse cx="1346.6114" cy="383.8091" fill="#FFFFFF" rx="8" ry="8" style="stroke:#000000;stroke-width:1.0;"/><line style="stroke:#000000;stroke-width:1.0;" x1="1338.6123" x2="1354.6105" y1="383.69" y2="383.9281"/><line style="stroke:#000000;stroke-width:1.0;" x1="1346.7304" x2="1346.4924" y1="375.81" y2="391.8082"/></g><!--reverse link InterfaceLayer to GraphQLResolver--><g id="link_InterfaceLayer_GraphQLResolver"><path d="M1456.0856,134.5447 C1456.1508,134.66 1456.2165,134.7751 1456.2827,134.8901 C1456.415,135.1201 1456.5491,135.3494 1456.6852,135.5778 C1456.9574,136.0348 1457.2371,136.4885 1457.5247,136.9378 C1459.825,140.5327 1462.6225,143.8508 1466,146.3483 C1770.11,371.3283 1978.4,106.5883 2303,300.8383 C2342.68,324.5883 2368,335.8383 2368,382.0783 C2368,382.0783 2368,382.0783 2368,538.2883 C2368,646.2683 2407.28,771.0983 2424.77,821.3283 " fill="none" id="InterfaceLayer-backto-GraphQLResolver" style="stroke:#000000;stroke-width:1.0;"/><ellipse cx="1460.0237" cy="141.5082" fill="#FFFFFF" rx="8" ry="8" style="stroke:#000000;stroke-width:1.0;"/><line style="stroke:#000000;stroke-width:1.0;" x1="1463.9619" x2="1456.0856" y1="148.4718" y2="134.5447"/><line style="stroke:#000000;stroke-width:1.0;" x1="1453.0602" x2="1466.9873" y1="145.4464" y2="137.5701"/></g><!--link DomainLayer to GMN50--><g id="link_DomainLayer_GMN50"><path d="M1240.1013,684.6866 C1240.2065,684.6004 1240.3127,684.5135 1240.4198,684.4259 C1240.6341,684.2508 1240.8522,684.0728 1241.074,683.8921 C1241.9613,683.1691 1242.9086,682.4022 1243.9137,681.5946 C1245.9238,679.9794 1248.165,678.2016 1250.6189,676.288 C1260.4347,668.6333 1273.6556,658.8045 1289.1188,648.5133 C1320.045,627.9308 1359.94,605.4983 1399.5,594.9083 C1449.52,581.5283 1814.6,585.3983 1865.5,594.9083 C1913.9,603.9483 1964.99,622.0683 2008.25,640.1883 " fill="none" id="DomainLayer-GMN50" style="stroke:#000000;stroke-width:1.0;stroke-dasharray:7.0,7.0;"/></g><!--link ApplicationLayer to GMN53--><g id="link_ApplicationLayer_GMN53"><path d="M363.0557,535.4137 C363.265,535.3653 363.4782,535.316 363.6953,535.2658 C364.5636,535.0651 365.4942,534.8504 366.4857,534.6223 C368.4689,534.1661 370.696,533.656 373.1568,533.0955 C383.0002,530.8535 396.5836,527.8053 413.2534,524.1755 C446.5931,516.9158 492.2788,507.3295 545.0825,497.2133 C650.69,476.9808 784.77,454.6283 905.5,444.5283 C1011.8,435.6383 1759.03,437.9883 1865.5,444.5283 C2054.77,456.1683 2269.35,484.1383 2420.62,506.3483 " fill="none" id="ApplicationLayer-GMN53" style="stroke:#000000;stroke-width:1.0;stroke-dasharray:7.0,7.0;"/></g><!--link InterfaceLayer to GMN56--><g id="link_InterfaceLayer_GMN56"><path d="M1456.1044,110.7283 C1456.1485,110.7283 1456.1927,110.7283 1456.2369,110.7283 C1456.5901,110.7283 1456.9433,110.7283 1457.2966,110.7283 C1460.1225,110.7283 1462.9488,110.7283 1465.775,110.7283 C1471.4275,110.7283 1477.08,110.7283 1482.73,110.7283 " fill="none" id="InterfaceLayer-GMN56" style="stroke:#000000;stroke-width:1.0;stroke-dasharray:7.0,7.0;"/></g><!--link InfrastructureLayer to GMN59--><g id="link_InfrastructureLayer_GMN59"><path d="M1371.1056,316.6861 C1371.1643,316.5614 1371.2235,316.4369 1371.283,316.3126 C1371.402,316.064 1371.5224,315.8162 1371.6443,315.5693 C1371.8882,315.0754 1372.1379,314.5849 1372.3936,314.0979 C1372.9051,313.124 1373.4406,312.1646 1374.0012,311.2216 C1376.2436,307.45 1378.8875,303.9433 1382,300.8383 C1387.65,295.2083 1391.57,297.7383 1399.5,296.8383 C1425.23,293.9383 1839.77,293.9383 1865.5,296.8383 C1908.82,301.7283 1954.27,316.0683 1993.5,331.6883 " fill="none" id="InfrastructureLayer-GMN59" style="stroke:#000000;stroke-width:1.0;stroke-dasharray:7.0,7.0;"/></g><!--link InfrastructureLayer to GMN62--><g id="link_InfrastructureLayer_GMN62"><path d="M1354.6551,389.1423 C1354.1038,389.4767 1353.5276,389.8262 1352.9272,390.1904 C1351.7264,390.9188 1350.4286,391.706 1349.0396,392.5484 C1346.2618,394.2333 1343.1192,396.1392 1339.6581,398.2383 C1325.8138,406.6345 1306.8725,418.1208 1285.785,430.9083 C1243.61,456.4833 1192.85,487.2633 1157.11,508.9383 " fill="none" id="InfrastructureLayer-GMN62" style="stroke:#000000;stroke-width:1.0;stroke-dasharray:7.0,7.0;"/></g><!--SRC=[ZLVDRkCs4BxhAGQvx2uQvz2Z3mMSE2qC94sQf7ifza1BbCo68WMIiZSe-kwT6L8IPIMBdYn-CyFv7uxzgpATSAA5Vmg0Qr6-DixsfhgnsZeu7LIGY6-SiwS8xJNo4AjrbNHpxCQsdJNIXEVmfYNqhVuPqKSaYaP6pCao2DDeMVnR5445X7uLhT9ly2pTKPKILd2ZfJ2eioJjPUYTX8SZKUMfA3x1LjRAI0W72LgyIUUBBcg0Yvq9qjK2RxaZoWK83oF64BlvrszET8S_xc3pkFj6FEbCfAVRvvSHfmE1DtVnZBzazwXlqtLQbI8eQpAD6Phfp7cJh_vROX_EnBTzUOWuVH3mfvTm8tpYnXCVPdPiRIjKRa84Cks9OwOuOhdkMuCfKOay78ZmLUWUix3_6_CHgOma85DmUyJqvzT7W0FGD4us8WnkZyUPApjJE-63wsFYyppcXCor9zbPhu9rW-4vm5vznmemGi-z7z3S_qUi9kM3DALadknCv3lRDCeqJ4hVx5YFjOZ1YicDpY74XMDDhPhUJPI84Er5QjdAuDuO7qyifbpPgm3NJefNwQ9Wn1B4N08x99cJlYcKimwfP2TDXGvWBE2pe3xsq5bb0WGxetufpZfbjVfbKSh5ehQ9Awksuhqq_L-UXRR95z_9KjMgX7AOCNvH_lUsaZehVpx76aapPgmvZba4HumBG3YyEfP-p4j48i11FoXTvGmCJFHXcWKHUf-fYG1nxBOCxxPq-5sqqHZwu3v2InxgQ-N28NRHT9x8MobcP3v_E9c62hyucpPR6OGw2z1IB0_LAFkZbjrKeiD2ybFN3aXKTMzDOxVNKvl6E39C6EV1-e1fUSOPVSQMA7xWH1Py9Swv8Zhm3EF-INghZwcV4ZXWiNCUDJqUKuq1bXMsaNBuS5491dKSNvrynlwqMkL5jsmJObY4_jr68CvPrCxxaXZEZKVJDrK5nk8ufSQMtpijekqWieUq80vmgZa4iFMiAG5Ua3b_IJ0E1iqqdg_PznuRqNlGji4-5AO2rslfhr1o5q1Hh8PvmfTRb78fMCoEFhNoPDqhowp61sODryFTDZueS5BX08fkYcsrWjaBj8PTs_P1x75zo4Li7-PIqoEpnhMYzro5Q9jCgjck8rzjnxTiIENOE6jkPnpGP64dupJ7JmDjhuFgq8hXmWBzvpGKPw5UpBOOxyK60HRJ9R4c1ASIMMfjJtH39O8WUr6ojBXzASCi1zImqlA8esvCqMHaZFHxqs0D3vCcw779A7clOFznzLZJR17mueJnDTgLGWyrBdnoU56nKzhUfAjPTDnMygnECQkTRKcP0yI6ZlemQFFAJo4xM_BWW371r4n6AM8GPUP_jk-juPvIYr_iIQaLbQkO0XGZCAo1QzXelfOxdwG-gnfKsz5hZNggByoEY-6Qrj-MwkcE7gp9Ib8ZgXQLJd7uWSUBYJ2wlLoCe7FsY0MFXIBB0-K1Ko8wiLUQgp5wd-z3AQkYB2anen-PvujjQSs-DD7os9bZgFqRjbGR1RDbAMhP2oegQuoCkU1cUtYwZoKvMvgmmsJPEsnRPahcqVnnLZD_shSkfqNf4cGehp3ipdg_AliGa4uo9TgsYF3UXe2bzs68DrhFbwMu92bp4gwwn2HgR4DIG2sv7HZVu0bd88hZlSk_BLUSE8K16ETWPSsd0Ay6MrhiSLoXA5s8NoFFrMJwVm00]--></g></svg>