<?xml version="1.0" encoding="us-ascii" standalone="no"?><!-- Copyright (c) 2025 A Bit of Help, Inc. -->

<svg xmlns="http://www.w3.org/2000/svg" xmlns:xlink="http://www.w3.org/1999/xlink" contentStyleType="text/css" height="868px" preserveAspectRatio="none" style="width:1411px;height:868px;background:#FFFFFF;" version="1.1" viewBox="0 0 1411 868" width="1411px" zoomAndPan="magnify"><defs/><g><!--cluster host--><g id="cluster_host"><polygon fill="#FFFFFF" points="16,199.49,26,189.49,694,189.49,694,841.95,684,851.95,16,851.95,16,199.49" style="stroke:#000000;stroke-width:1.0;"/><line style="stroke:#000000;stroke-width:1.0;" x1="684" x2="694" y1="199.49" y2="189.49"/><line style="stroke:#000000;stroke-width:1.0;" x1="16" x2="684" y1="199.49" y2="199.49"/><line style="stroke:#000000;stroke-width:1.0;" x1="684" x2="684" y1="199.49" y2="851.95"/><text fill="#000000" font-family="sans-serif" font-size="14" font-weight="bold" lengthAdjust="spacing" textLength="89" x="306.5" y="216.0252">Docker Host</text></g><!--cluster network--><g id="cluster_network"><rect fill="#FFFFFF" height="419.97" rx="2.5" ry="2.5" style="stroke:#000000;stroke-width:1.0;" width="462" x="92" y="245.49"/><text fill="#000000" font-family="sans-serif" font-size="14" font-weight="bold" lengthAdjust="spacing" textLength="116" x="265" y="261.0252">Docker Network</text></g><!--cluster app--><g id="cluster_app"><polygon fill="#FFFFFF" points="202,306.49,212,296.49,469,296.49,469,404.98,459,414.98,202,414.98,202,306.49" style="stroke:#000000;stroke-width:1.0;"/><line style="stroke:#000000;stroke-width:1.0;" x1="459" x2="469" y1="306.49" y2="296.49"/><line style="stroke:#000000;stroke-width:1.0;" x1="202" x2="459" y1="306.49" y2="306.49"/><line style="stroke:#000000;stroke-width:1.0;" x1="459" x2="459" y1="306.49" y2="414.98"/><text fill="#000000" font-family="sans-serif" font-size="14" font-weight="bold" lengthAdjust="spacing" textLength="178" x="242.5" y="323.0252">Family Service Container</text></g><!--cluster mongo--><g id="cluster_mongo"><path d="M124,514.97 C124,504.97 210.5,504.97 210.5,504.97 C210.5,504.97 297,504.97 297,514.97 L297,623.46 C297,633.46 210.5,633.46 210.5,633.46 C210.5,633.46 124,633.46 124,623.46 L124,514.97 " fill="#FFFFFF" style="stroke:#000000;stroke-width:1.0;"/><path d="M124,514.97 C124,524.97 210.5,524.97 210.5,524.97 C210.5,524.97 297,524.97 297,514.97 " fill="none" style="stroke:#000000;stroke-width:1.0;"/><text fill="#000000" font-family="sans-serif" font-size="14" font-weight="bold" lengthAdjust="spacing" textLength="144" x="138.5" y="540.5052">MongoDB Container</text></g><!--cluster postgres--><g id="cluster_postgres"><path d="M337,514.97 C337,504.97 429.5,504.97 429.5,504.97 C429.5,504.97 522,504.97 522,514.97 L522,623.46 C522,633.46 429.5,633.46 429.5,633.46 C429.5,633.46 337,633.46 337,623.46 L337,514.97 " fill="#FFFFFF" style="stroke:#000000;stroke-width:1.0;"/><path d="M337,514.97 C337,524.97 429.5,524.97 429.5,524.97 C429.5,524.97 522,524.97 522,514.97 " fill="none" style="stroke:#000000;stroke-width:1.0;"/><text fill="#000000" font-family="sans-serif" font-size="14" font-weight="bold" lengthAdjust="spacing" textLength="158" x="350.5" y="540.5052">PostgreSQL Container</text></g><!--cluster volumes--><g id="cluster_volumes"><rect fill="#FFFFFF" height="105.49" rx="2.5" ry="2.5" style="stroke:#000000;stroke-width:1.0;" width="606" x="48" y="714.46"/><text fill="#000000" font-family="sans-serif" font-size="14" font-weight="bold" lengthAdjust="spacing" textLength="63" x="319.5" y="729.9952">Volumes</text></g><!--cluster client--><g id="cluster_client"><polygon fill="#FFFFFF" points="200,16,210,6,469,6,469,114.49,459,124.49,200,124.49,200,16" style="stroke:#000000;stroke-width:1.0;"/><line style="stroke:#000000;stroke-width:1.0;" x1="459" x2="469" y1="16" y2="6"/><line style="stroke:#000000;stroke-width:1.0;" x1="200" x2="459" y1="16" y2="16"/><line style="stroke:#000000;stroke-width:1.0;" x1="459" x2="459" y1="16" y2="124.49"/><text fill="#000000" font-family="sans-serif" font-size="14" font-weight="bold" lengthAdjust="spacing" textLength="43" x="309" y="32.5352">Client</text></g><!--entity service--><g id="elem_service"><rect fill="#F1F1F1" height="46.4883" rx="2.5" ry="2.5" style="stroke:#181818;stroke-width:0.5;" width="200" x="226" y="344.49"/><rect fill="#F1F1F1" height="10" style="stroke:#181818;stroke-width:0.5;" width="15" x="406" y="349.49"/><rect fill="#F1F1F1" height="2" style="stroke:#181818;stroke-width:0.5;" width="4" x="404" y="351.49"/><rect fill="#F1F1F1" height="2" style="stroke:#181818;stroke-width:0.5;" width="4" x="404" y="355.49"/><text fill="#000000" font-family="sans-serif" font-size="14" lengthAdjust="spacing" textLength="160" x="241" y="378.0252">Family Service GraphQL</text></g><!--entity mongodb--><g id="elem_mongodb"><rect fill="#F1F1F1" height="46.4883" rx="2.5" ry="2.5" style="stroke:#181818;stroke-width:0.5;" width="106" x="148" y="562.97"/><rect fill="#F1F1F1" height="10" style="stroke:#181818;stroke-width:0.5;" width="15" x="234" y="567.97"/><rect fill="#F1F1F1" height="2" style="stroke:#181818;stroke-width:0.5;" width="4" x="232" y="569.97"/><rect fill="#F1F1F1" height="2" style="stroke:#181818;stroke-width:0.5;" width="4" x="232" y="573.97"/><text fill="#000000" font-family="sans-serif" font-size="14" lengthAdjust="spacing" textLength="66" x="163" y="596.5052">MongoDB</text></g><!--entity postgresql--><g id="elem_postgresql"><rect fill="#F1F1F1" height="46.4883" rx="2.5" ry="2.5" style="stroke:#181818;stroke-width:0.5;" width="118" x="361" y="562.97"/><rect fill="#F1F1F1" height="10" style="stroke:#181818;stroke-width:0.5;" width="15" x="459" y="567.97"/><rect fill="#F1F1F1" height="2" style="stroke:#181818;stroke-width:0.5;" width="4" x="457" y="569.97"/><rect fill="#F1F1F1" height="2" style="stroke:#181818;stroke-width:0.5;" width="4" x="457" y="573.97"/><text fill="#000000" font-family="sans-serif" font-size="14" lengthAdjust="spacing" textLength="78" x="376" y="596.5052">PostgreSQL</text></g><!--entity logs--><g id="elem_logs"><path d="M522.5,749.46 L563.5,749.46 A3.75,3.75 0 0 1 566,751.96 L573,770.46 L635.5,770.46 A2.5,2.5 0 0 1 638,772.96 L638,801.4483 A2.5,2.5 0 0 1 635.5,803.9483 L522.5,803.9483 A2.5,2.5 0 0 1 520,801.4483 L520,751.96 A2.5,2.5 0 0 1 522.5,749.46 " fill="#F1F1F1" style="stroke:#181818;stroke-width:0.5;"/><line style="stroke:#181818;stroke-width:0.5;" x1="520" x2="573" y1="770.46" y2="770.46"/><text fill="#000000" font-family="sans-serif" font-size="14" lengthAdjust="spacing" textLength="88" x="530" y="790.9952">Logs Volume</text></g><!--entity mongoData--><g id="elem_mongoData"><path d="M66,749.46 L107,749.46 A3.75,3.75 0 0 1 109.5,751.96 L116.5,770.46 L248,770.46 A2.5,2.5 0 0 1 250.5,772.96 L250.5,801.4483 A2.5,2.5 0 0 1 248,803.9483 L66,803.9483 A2.5,2.5 0 0 1 63.5,801.4483 L63.5,751.96 A2.5,2.5 0 0 1 66,749.46 " fill="#F1F1F1" style="stroke:#181818;stroke-width:0.5;"/><line style="stroke:#181818;stroke-width:0.5;" x1="63.5" x2="116.5" y1="770.46" y2="770.46"/><text fill="#000000" font-family="sans-serif" font-size="14" lengthAdjust="spacing" textLength="157" x="73.5" y="790.9952">MongoDB Data Volume</text></g><!--entity pgData--><g id="elem_pgData"><path d="M288,749.46 L329,749.46 A3.75,3.75 0 0 1 331.5,751.96 L338.5,770.46 L482,770.46 A2.5,2.5 0 0 1 484.5,772.96 L484.5,801.4483 A2.5,2.5 0 0 1 482,803.9483 L288,803.9483 A2.5,2.5 0 0 1 285.5,801.4483 L285.5,751.96 A2.5,2.5 0 0 1 288,749.46 " fill="#F1F1F1" style="stroke:#181818;stroke-width:0.5;"/><line style="stroke:#181818;stroke-width:0.5;" x1="285.5" x2="338.5" y1="770.46" y2="770.46"/><text fill="#000000" font-family="sans-serif" font-size="14" lengthAdjust="spacing" textLength="169" x="295.5" y="790.9952">PostgreSQL Data Volume</text></g><!--entity browser--><g id="elem_browser"><rect fill="#F1F1F1" height="46.4883" rx="2.5" ry="2.5" style="stroke:#181818;stroke-width:0.5;" width="201" x="224.5" y="54"/><rect fill="#F1F1F1" height="10" style="stroke:#181818;stroke-width:0.5;" width="15" x="405.5" y="59"/><rect fill="#F1F1F1" height="2" style="stroke:#181818;stroke-width:0.5;" width="4" x="403.5" y="61"/><rect fill="#F1F1F1" height="2" style="stroke:#181818;stroke-width:0.5;" width="4" x="403.5" y="65"/><text fill="#000000" font-family="sans-serif" font-size="14" lengthAdjust="spacing" textLength="161" x="239.5" y="87.5352">Web Browser/API Client</text></g><g id="elem_GMN22"><path d="M721.5,301.49 L721.5,433.9744 L906.5,433.9744 L906.5,311.49 L896.5,301.49 L721.5,301.49 " fill="#FEFFDD" style="stroke:#181818;stroke-width:0.5;"/><path d="M896.5,301.49 L896.5,311.49 L906.5,311.49 L896.5,301.49 " fill="#FEFFDD" style="stroke:#181818;stroke-width:1.0;"/><text fill="#000000" font-family="sans-serif" font-size="13" lengthAdjust="spacing" textLength="56" x="727.5" y="319.0584">Exposes:</text><text fill="#000000" font-family="sans-serif" font-size="13" lengthAdjust="spacing" textLength="164" x="727.5" y="334.3689">- GraphQL API (port 8089)</text><text fill="#000000" font-family="sans-serif" font-size="13" lengthAdjust="spacing" textLength="154" x="727.5" y="349.6795">- Health check endpoint</text><text fill="#000000" font-family="sans-serif" font-size="13" lengthAdjust="spacing" textLength="143" x="727.5" y="364.99">Environment variables:</text><text fill="#000000" font-family="sans-serif" font-size="13" lengthAdjust="spacing" textLength="45" x="727.5" y="380.3005">- PORT</text><text fill="#000000" font-family="sans-serif" font-size="13" lengthAdjust="spacing" textLength="81" x="727.5" y="395.6111">- DB_DRIVER</text><text fill="#000000" font-family="sans-serif" font-size="13" lengthAdjust="spacing" textLength="142" x="727.5" y="410.9216">- MONGO_URI/DB_URI</text><text fill="#000000" font-family="sans-serif" font-size="13" lengthAdjust="spacing" textLength="81" x="727.5" y="426.2322">- LOG_LEVEL</text></g><g id="elem_GMN25"><path d="M939,542.94 L939,629.4927 L1191,629.4927 L1191,552.94 L1181,542.94 L939,542.94 " fill="#FEFFDD" style="stroke:#181818;stroke-width:0.5;"/><path d="M1181,542.94 L1181,552.94 L1191,552.94 L1181,542.94 " fill="#FEFFDD" style="stroke:#181818;stroke-width:1.0;"/><text fill="#000000" font-family="sans-serif" font-size="13" lengthAdjust="spacing" textLength="56" x="945" y="560.5084">Exposes:</text><text fill="#000000" font-family="sans-serif" font-size="13" lengthAdjust="spacing" textLength="154" x="945" y="575.8189">- MongoDB port (27017)</text><text fill="#000000" font-family="sans-serif" font-size="13" lengthAdjust="spacing" textLength="143" x="945" y="591.1295">Environment variables:</text><text fill="#000000" font-family="sans-serif" font-size="13" lengthAdjust="spacing" textLength="230" x="945" y="606.44">- MONGO_INITDB_ROOT_USERNAME</text><text fill="#000000" font-family="sans-serif" font-size="13" lengthAdjust="spacing" textLength="231" x="945" y="621.7505">- MONGO_INITDB_ROOT_PASSWORD</text></g><g id="elem_GMN28"><path d="M1226,535.29 L1226,637.1533 L1404,637.1533 L1404,545.29 L1394,535.29 L1226,535.29 " fill="#FEFFDD" style="stroke:#181818;stroke-width:0.5;"/><path d="M1394,535.29 L1394,545.29 L1404,545.29 L1394,535.29 " fill="#FEFFDD" style="stroke:#181818;stroke-width:1.0;"/><text fill="#000000" font-family="sans-serif" font-size="13" lengthAdjust="spacing" textLength="56" x="1232" y="552.8584">Exposes:</text><text fill="#000000" font-family="sans-serif" font-size="13" lengthAdjust="spacing" textLength="157" x="1232" y="568.1689">- PostgreSQL port (5432)</text><text fill="#000000" font-family="sans-serif" font-size="13" lengthAdjust="spacing" textLength="143" x="1232" y="583.4795">Environment variables:</text><text fill="#000000" font-family="sans-serif" font-size="13" lengthAdjust="spacing" textLength="113" x="1232" y="598.79">- POSTGRES_USER</text><text fill="#000000" font-family="sans-serif" font-size="13" lengthAdjust="spacing" textLength="151" x="1232" y="614.1005">- POSTGRES_PASSWORD</text><text fill="#000000" font-family="sans-serif" font-size="13" lengthAdjust="spacing" textLength="99" x="1232" y="629.4111">- POSTGRES_DB</text></g><g id="elem_GMN31"><path d="M717.5,527.63 L717.5,644.8038 L904.5,644.8038 L904.5,537.63 L894.5,527.63 L717.5,527.63 " fill="#FEFFDD" style="stroke:#181818;stroke-width:0.5;"/><path d="M894.5,527.63 L894.5,537.63 L904.5,537.63 L894.5,527.63 " fill="#FEFFDD" style="stroke:#181818;stroke-width:1.0;"/><text fill="#000000" font-family="sans-serif" font-size="13" lengthAdjust="spacing" textLength="153" x="723.5" y="545.1984">Hardware Requirements:</text><text fill="#000000" font-family="sans-serif" font-size="13" lengthAdjust="spacing" textLength="97" x="723.5" y="560.5089">- 2+ CPU cores</text><text fill="#000000" font-family="sans-serif" font-size="13" lengthAdjust="spacing" textLength="82" x="723.5" y="575.8195">- 4+ GB RAM</text><text fill="#000000" font-family="sans-serif" font-size="13" lengthAdjust="spacing" textLength="129" x="723.5" y="591.13">- 10+ GB disk space</text><text fill="#000000" font-family="sans-serif" font-size="13" lengthAdjust="spacing" textLength="148" x="723.5" y="606.4405">Software Requirements:</text><text fill="#000000" font-family="sans-serif" font-size="13" lengthAdjust="spacing" textLength="165" x="723.5" y="621.7511">- Docker Engine 20.10.0+</text><text fill="#000000" font-family="sans-serif" font-size="13" lengthAdjust="spacing" textLength="166" x="723.5" y="637.0616">- Docker Compose 2.0.0+</text></g><!--link client to app--><g id="link_client_app"><path d="M461,124.6011 C461,151.5016 461,187.0019 461,222.5013 C461,240.2509 461,258.0004 461,274.6745 C461,278.843 461,282.9444 461,286.9617 C461,288.9703 461,290.958 461,292.9225 C461,293.9048 461,294.8813 461,295.8518 " fill="none" id="client-to-app" style="stroke:#181818;stroke-width:1.0;"/><polygon fill="#181818" points="461,295.8518,465,286.8518,461,290.8518,457,286.8518,461,295.8518" style="stroke:#181818;stroke-width:1.0;"/><text fill="#000000" font-family="sans-serif" font-size="13" lengthAdjust="spacing" textLength="94" x="462" y="162.0584">HTTP/GraphQL</text></g><!--link app to mongo--><g id="link_app_mongo"><path d="M454.1977,415.0229 C454.1126,415.2375 454.0265,415.4518 453.9394,415.6656 C451.1513,422.5088 447.3025,428.9325 442,433.97 C399.95,473.92 355.58,422.54 315,463.97 C305.51,473.66 299.1163,485.9238 294.8695,498.9077 C294.3387,500.5306 293.8414,502.1649 293.3758,503.8068 C293.3176,504.012 293.2599,504.2173 293.2027,504.4228 " fill="none" id="app-to-mongo" style="stroke:#181818;stroke-width:1.0;"/><polygon fill="#181818" points="293.2027,504.4228,299.4703,496.8257,294.5439,499.6061,291.7635,494.6797,293.2027,504.4228" style="stroke:#181818;stroke-width:1.0;"/><text fill="#000000" font-family="sans-serif" font-size="13" lengthAdjust="spacing" textLength="116" x="316" y="477.5384">MongoDB Protocol</text></g><!--link app to postgres--><g id="link_app_postgres"><path d="M447.9237,415.3193 C447.8329,415.7115 447.7425,416.1044 447.6526,416.4979 C447.4728,417.285 447.2947,418.0746 447.1188,418.8663 C441.4875,444.1975 437.98,471.535 446,480.97 C460.29,497.79 479.14,473.63 495,488.97 C498.8563,492.7013 502.0511,496.9716 504.6889,501.5918 C505.0187,502.1693 505.3397,502.7523 505.6522,503.3404 C505.8085,503.6344 505.9626,503.9298 506.1146,504.2263 C506.1907,504.3746 506.2662,504.5232 506.3411,504.672 " fill="none" id="app-to-postgres" style="stroke:#181818;stroke-width:1.0;"/><polygon fill="#181818" points="506.3411,504.672,505.8659,494.8347,504.0923,500.2063,498.7207,498.4328,506.3411,504.672" style="stroke:#181818;stroke-width:1.0;"/><text fill="#000000" font-family="sans-serif" font-size="13" lengthAdjust="spacing" textLength="127" x="447" y="477.5384">PostgreSQL Protocol</text></g><!--link app to logs--><g id="link_app_logs"><path d="M456.7783,415.3008 C456.7989,415.4089 456.8199,415.5169 456.8411,415.6248 C456.8836,415.8407 456.9274,416.0562 456.9724,416.2714 C457.0624,416.7017 457.1575,417.1307 457.2578,417.5581 C457.4585,418.4128 457.6801,419.2612 457.9239,420.1015 C458.4117,421.782 458.9884,423.43 459.6646,425.0314 C461.017,428.2344 462.7675,431.2513 465,433.97 C498.24,474.47 547.01,422.48 579,463.97 C642.73,546.65 610.43,702.7 590.62,764.27 " fill="none" id="app-to-logs" style="stroke:#181818;stroke-width:1.0;"/><polygon fill="#181818" points="589.1,768.91,595.7078,761.6068,590.6597,764.1595,588.107,759.1113,589.1,768.91" style="stroke:#181818;stroke-width:1.0;"/><text fill="#000000" font-family="sans-serif" font-size="13" lengthAdjust="spacing" textLength="70" x="617.59" y="591.2884">Writes logs</text></g><!--link mongo to mongoData--><g id="link_mongo_mongoData"><path d="M284.1403,633.8841 C284.1102,634.0283 284.0799,634.1727 284.0494,634.3171 C283.9276,634.8947 283.8027,635.4737 283.6748,636.054 C283.4189,637.2144 283.1508,638.3796 282.8698,639.5476 C282.3079,641.8836 281.6946,644.2306 281.0252,646.5731 C278.3475,655.9431 274.7725,665.24 270,673.46 C253.38,702.08 226.02,727.15 202.38,745.3 " fill="none" id="mongo-to-mongoData" style="stroke:#181818;stroke-width:1.0;"/><polygon fill="#181818" points="198.61,748.15,208.2011,745.9116,202.598,745.134,203.3755,739.5309,198.61,748.15" style="stroke:#181818;stroke-width:1.0;"/><text fill="#000000" font-family="sans-serif" font-size="13" lengthAdjust="spacing" textLength="80" x="264.42" y="695.0284">Persists data</text></g><!--link postgres to pgData--><g id="link_postgres_pgData"><path d="M509.0406,633.8242 C509.0104,633.9684 508.9801,634.1127 508.9496,634.2571 C508.8276,634.8346 508.7027,635.4137 508.5747,635.9939 C508.3189,637.1544 508.0509,638.3197 507.7703,639.488 C507.2092,641.8245 506.5976,644.1727 505.9309,646.5169 C503.2644,655.8938 499.7175,665.2075 495,673.46 C478.75,701.88 451.98,727.02 428.91,745.26 " fill="none" id="postgres-to-pgData" style="stroke:#181818;stroke-width:1.0;"/><polygon fill="#181818" points="425.25,748.12,434.8081,745.7448,429.1945,745.0473,429.8919,739.4336,425.25,748.12" style="stroke:#181818;stroke-width:1.0;"/><text fill="#000000" font-family="sans-serif" font-size="13" lengthAdjust="spacing" textLength="80" x="489.59" y="695.0284">Persists data</text></g><!--link app to GMN22--><g id="link_app_GMN22"><path d="M449.5547,296.4635 C449.5088,295.8781 449.4638,295.2907 449.42,294.7013 C446.615,256.9775 448.305,211.1 465,173.49 C469.34,163.72 472.56,160.93 482.5,156.99 C524.22,140.42 642.78,140.42 684.5,156.99 C744.27,180.72 778.42,248.8 796.48,301.22 " fill="none" id="app-GMN22" style="stroke:#181818;stroke-width:1.0;stroke-dasharray:7.0,7.0;"/></g><!--link mongo to GMN25--><g id="link_mongo_GMN25"><path d="M297.0056,556.0559 C297.1214,555.7003 297.2385,555.3428 297.357,554.9832 C297.8312,553.5452 298.3279,552.076 298.8478,550.5798 C300.9271,544.5948 303.3766,538.1775 306.2338,531.5925 C317.6625,505.2525 335.615,476.23 362.5,461.47 C415.29,432.49 847.53,441.94 904.5,461.47 C951.24,477.5 994.86,513.3 1024.79,542.46 " fill="none" id="mongo-GMN25" style="stroke:#181818;stroke-width:1.0;stroke-dasharray:7.0,7.0;"/></g><!--link postgres to GMN28--><g id="link_postgres_GMN28"><path d="M522.0715,512.3095 C522.1358,512.1003 522.2006,511.8913 522.2658,511.6823 C522.3963,511.2645 522.5288,510.8471 522.6631,510.4302 C524.8131,503.7598 527.4625,497.2213 530.7225,491.093 C537.2425,478.8363 546.205,468.22 558.5,461.47 C620.15,427.63 1126.59,434.4 1191.5,461.47 C1227.36,476.43 1258.14,507.43 1279.99,534.79 " fill="none" id="postgres-GMN28" style="stroke:#181818;stroke-width:1.0;stroke-dasharray:7.0,7.0;"/></g><!--link host to GMN31--><g id="link_host_GMN31"><path d="M694.078,406.6565 C694.1093,406.7669 694.1407,406.8774 694.1722,406.988 C694.2351,407.2091 694.2985,407.4305 694.3622,407.6521 C694.8721,409.425 695.4076,411.2124 695.9692,413.0033 C698.2156,420.1669 700.88,427.3875 704,433.97 C719.63,466.96 742.43,500.43 762.98,527.47 " fill="none" id="host-GMN31" style="stroke:#181818;stroke-width:1.0;stroke-dasharray:7.0,7.0;"/></g><!--SRC=[hLHHRzem47xdLvnuQbNHKjQf7G-JW6I018Gcj7seAkGaReX8uinsOTFK_pxxd8IGZUsb3mJxxlDtttrdMMpZB2USf92naCAl5i2G1Dk8ixSi7B64STXlOabLVC0vsvkGdoYCXZ8UKbwFlRTQeg8CYIG-4HzDosaWIHOb7yEBVRSj5cmfXmaJiWr4m4OjaFvGhCGigDmplaLOPjQ816DX-nj9u-GdU9Jlue32Y6MIn1dbU83aUG46U6uWnvpac_lPYyO94qFaEtxnKpdQdhCiOjQmGP_gwA500NgfKg5_cd6fMeuuzUvd3TBS9CI1zm1zgGE-9nMx_XsxzyYIjvGAPDoPTK7uoX8r5cZFM2J0m12LgFqHeEpPKfhhG6nD1u_GjNwQ1_AeGByVRi0eYMbcXX_W4jKzFr4VXkecgO5S3PPJC31ispTXJL6Sw7I-ueJxC5cjbbV5G5iwf5DcEdqe-rXo9bd0aWfGETs7cle_ODeO1NdYwgONDXdggWWsh4We5x6G0gVSgjYnLFHNZ393Kk1nj970NdKpoWJxXpfAHLyjE-Kj1Mt6MSwuXBlktPTpp4qeIUG6WWqDja2pC6Tn9ZL1jeivorBjqOxmcFX9IRTqt1KkhE7QSgUFjekxkRCOE-i7TtgbukeFWpDdl9xPZ_QifRX1AstgnUQRYakxKUnPxxPxVNl-Rr6c-dGnNQdghkEirW-UxIu6S_j4UZdml2V7jKuAAxrlQgkDsSZxVFEfT_u_oxpLsBKz57KSgNGSHQrXKvVFf6If5gOVEeMU41xk2QVWqkzlCQUwRb6kTm6ZvGC4pCZlmCq5Z8VW3kQuk-xYDep55aHEyCtosAiymLOyedOMgVS5UjtBw-vbzwAU6h5K6mIzIynKody3]--></g></svg>