<?xml version="1.0" encoding="us-ascii" standalone="no"?><!-- Copyright (c) 2025 A Bit of Help, Inc. -->

<svg xmlns="http://www.w3.org/2000/svg" xmlns:xlink="http://www.w3.org/1999/xlink" contentStyleType="text/css" height="889px" preserveAspectRatio="none" style="width:1971px;height:889px;background:#FFFFFF;" version="1.1" viewBox="0 0 1971 889" width="1971px" zoomAndPan="magnify"><defs/><g><!--cluster dockerCompose--><g id="cluster_dockerCompose"><rect fill="#FFFFFF" height="578.49" rx="2.5" ry="2.5" style="stroke:#000000;stroke-width:1.0;" width="816" x="406" y="304.98"/><text fill="#000000" font-family="sans-serif" font-size="14" font-weight="bold" lengthAdjust="spacing" textLength="218" x="705" y="320.5152">Docker Compose Environment</text></g><!--cluster appService--><g id="cluster_appService"><rect fill="#FFFFFF" height="295" rx="2.5" ry="2.5" style="stroke:#000000;stroke-width:1.0;" width="267" x="454" y="363.98"/><text fill="#000000" font-family="sans-serif" font-size="14" font-weight="bold" lengthAdjust="spacing" textLength="105" x="535" y="379.5152">family-service</text></g><!--cluster mongoService--><g id="cluster_mongoService"><rect fill="#FFFFFF" height="112.48" rx="2.5" ry="2.5" style="stroke:#000000;stroke-width:1.0;" width="153" x="811" y="551"/><text fill="#000000" font-family="sans-serif" font-size="14" font-weight="bold" lengthAdjust="spacing" textLength="50" x="862.5" y="566.5352">mongo</text></g><!--cluster postgresService--><g id="cluster_postgresService"><rect fill="#FFFFFF" height="112.48" rx="2.5" ry="2.5" style="stroke:#000000;stroke-width:1.0;" width="165" x="1017" y="551"/><text fill="#000000" font-family="sans-serif" font-size="14" font-weight="bold" lengthAdjust="spacing" textLength="63" x="1068" y="566.5352">postgres</text></g><!--cluster volumes--><g id="cluster_volumes"><rect fill="#FFFFFF" height="105.49" rx="2.5" ry="2.5" style="stroke:#000000;stroke-width:1.0;" width="437" x="559" y="745.98"/><text fill="#000000" font-family="sans-serif" font-size="14" font-weight="bold" lengthAdjust="spacing" textLength="63" x="746" y="761.5152">Volumes</text></g><!--cluster networks--><g id="cluster_networks"><rect fill="#FFFFFF" height="97.49" rx="2.5" ry="2.5" style="stroke:#000000;stroke-width:1.0;" width="170" x="1020" y="749.98"/><text fill="#000000" font-family="sans-serif" font-size="14" font-weight="bold" lengthAdjust="spacing" textLength="69" x="1070.5" y="765.5152">Networks</text></g><!--cluster external--><g id="cluster_external"><rect fill="#FFFFFF" height="240.98" rx="2.5" ry="2.5" style="stroke:#000000;stroke-width:1.0;" width="144" x="1598" y="7"/><text fill="#000000" font-family="sans-serif" font-size="14" font-weight="bold" lengthAdjust="spacing" textLength="58" x="1641" y="22.5352">External</text></g><!--entity app--><g id="elem_app"><rect fill="#F1F1F1" height="46.4883" rx="2.5" ry="2.5" style="stroke:#181818;stroke-width:0.5;" width="200" x="478" y="406.98"/><rect fill="#F1F1F1" height="10" style="stroke:#181818;stroke-width:0.5;" width="15" x="658" y="411.98"/><rect fill="#F1F1F1" height="2" style="stroke:#181818;stroke-width:0.5;" width="4" x="656" y="413.98"/><rect fill="#F1F1F1" height="2" style="stroke:#181818;stroke-width:0.5;" width="4" x="656" y="417.98"/><text fill="#000000" font-family="sans-serif" font-size="14" lengthAdjust="spacing" textLength="160" x="493" y="440.5152">Family Service GraphQL</text></g><!--entity dockerfile--><g id="elem_dockerfile"><path d="M485.5,601 L485.5,632.4883 A2.5,2.5 0 0 0 488,634.9883 L572,634.9883 A2.5,2.5 0 0 0 574.5,632.4883 L574.5,608.5 L564.5,598.5 L488,598.5 A2.5,2.5 0 0 0 485.5,601 " fill="#F1F1F1" style="stroke:#181818;stroke-width:0.5;"/><path d="M564.5,598.5 L564.5,606 A2.5,2.5 0 0 0 567,608.5 L574.5,608.5 " fill="#F1F1F1" style="stroke:#181818;stroke-width:0.5;"/><text fill="#000000" font-family="sans-serif" font-size="14" lengthAdjust="spacing" textLength="69" x="495.5" y="622.0352">Dockerfile</text></g><!--entity env--><g id="elem_env"><path d="M610,601 L610,632.4883 A2.5,2.5 0 0 0 612.5,634.9883 L655.5,634.9883 A2.5,2.5 0 0 0 658,632.4883 L658,608.5 L648,598.5 L612.5,598.5 A2.5,2.5 0 0 0 610,601 " fill="#F1F1F1" style="stroke:#181818;stroke-width:0.5;"/><path d="M648,598.5 L648,606 A2.5,2.5 0 0 0 650.5,608.5 L658,608.5 " fill="#F1F1F1" style="stroke:#181818;stroke-width:0.5;"/><text fill="#000000" font-family="sans-serif" font-size="14" lengthAdjust="spacing" textLength="28" x="620" y="622.0352">.env</text></g><!--entity mongo--><g id="elem_mongo"><path d="M835,604 C835,594 878,594 878,594 C878,594 921,594 921,604 L921,629.4883 C921,639.4883 878,639.4883 878,639.4883 C878,639.4883 835,639.4883 835,629.4883 L835,604 " fill="#F1F1F1" style="stroke:#181818;stroke-width:0.5;"/><path d="M835,604 C835,614 878,614 878,614 C878,614 921,614 921,604 " fill="none" style="stroke:#181818;stroke-width:0.5;"/><text fill="#000000" font-family="sans-serif" font-size="14" lengthAdjust="spacing" textLength="66" x="845" y="631.5352">MongoDB</text></g><!--entity postgres--><g id="elem_postgres"><path d="M1041,604 C1041,594 1090,594 1090,594 C1090,594 1139,594 1139,604 L1139,629.4883 C1139,639.4883 1090,639.4883 1090,639.4883 C1090,639.4883 1041,639.4883 1041,629.4883 L1041,604 " fill="#F1F1F1" style="stroke:#181818;stroke-width:0.5;"/><path d="M1041,604 C1041,614 1090,614 1090,614 C1090,614 1139,614 1139,604 " fill="none" style="stroke:#181818;stroke-width:0.5;"/><text fill="#000000" font-family="sans-serif" font-size="14" lengthAdjust="spacing" textLength="78" x="1051" y="631.5352">PostgreSQL</text></g><!--entity logs--><g id="elem_logs"><path d="M577.5,780.98 L618.5,780.98 A3.75,3.75 0 0 1 621,783.48 L628,801.98 L642.5,801.98 A2.5,2.5 0 0 1 645,804.48 L645,832.9683 A2.5,2.5 0 0 1 642.5,835.4683 L577.5,835.4683 A2.5,2.5 0 0 1 575,832.9683 L575,783.48 A2.5,2.5 0 0 1 577.5,780.98 " fill="#F1F1F1" style="stroke:#181818;stroke-width:0.5;"/><line style="stroke:#181818;stroke-width:0.5;" x1="575" x2="628" y1="801.98" y2="801.98"/><text fill="#000000" font-family="sans-serif" font-size="14" lengthAdjust="spacing" textLength="40" x="585" y="822.5152">./logs</text></g><!--entity mongoData--><g id="elem_mongoData"><path d="M682,780.98 L723,780.98 A3.75,3.75 0 0 1 725.5,783.48 L732.5,801.98 L804,801.98 A2.5,2.5 0 0 1 806.5,804.48 L806.5,832.9683 A2.5,2.5 0 0 1 804,835.4683 L682,835.4683 A2.5,2.5 0 0 1 679.5,832.9683 L679.5,783.48 A2.5,2.5 0 0 1 682,780.98 " fill="#F1F1F1" style="stroke:#181818;stroke-width:0.5;"/><line style="stroke:#181818;stroke-width:0.5;" x1="679.5" x2="732.5" y1="801.98" y2="801.98"/><text fill="#000000" font-family="sans-serif" font-size="14" lengthAdjust="spacing" textLength="97" x="689.5" y="822.5152">./data/mongo</text></g><!--entity pgData--><g id="elem_pgData"><path d="M844.5,780.98 L885.5,780.98 A3.75,3.75 0 0 1 888,783.48 L895,801.98 L977.5,801.98 A2.5,2.5 0 0 1 980,804.48 L980,832.9683 A2.5,2.5 0 0 1 977.5,835.4683 L844.5,835.4683 A2.5,2.5 0 0 1 842,832.9683 L842,783.48 A2.5,2.5 0 0 1 844.5,780.98 " fill="#F1F1F1" style="stroke:#181818;stroke-width:0.5;"/><line style="stroke:#181818;stroke-width:0.5;" x1="842" x2="895" y1="801.98" y2="801.98"/><text fill="#000000" font-family="sans-serif" font-size="14" lengthAdjust="spacing" textLength="108" x="852" y="822.5152">./data/postgres</text></g><!--entity defaultNetwork--><g id="elem_defaultNetwork"><path d="M1044.0967,794.427 C1048.7395,786.7555 1053.3373,786.637 1058.3895,794.0387 C1061.7676,788.9235 1065.334,788.2529 1069.0282,793.7208 C1072.5435,786.8432 1077.2768,785.4353 1082.6697,791.7843 C1085.5488,785.825 1090.8491,784.6157 1094.8676,790.623 C1097.7635,784.5642 1103.3358,784.5176 1106.5982,790.2588 C1110.8012,786.2094 1115.518,785.8066 1117.7885,792.3083 C1121.8993,786.4027 1126.1083,786.3221 1130.2298,792.2971 C1134.0712,785.6693 1138.9138,785.6589 1143.0577,791.9978 C1147.376,785.3367 1152.477,786.2892 1155.7409,792.9981 C1159.8081,788.3087 1164.9176,789.3483 1167.3109,794.8909 C1176.8826,795.459 1178.7655,800.4392 1175.6692,808.6839 C1181.764,817.3521 1177.339,824.6121 1167.4706,825.4952 C1163.6001,830.774 1158.6574,831.605 1154.7724,825.5115 C1151.4142,833.0378 1147.3781,833.154 1141.9599,827.5165 C1139.0435,832.9253 1133.0497,832.5212 1129.9454,827.7379 C1127.462,833.906 1123.3837,834.2346 1119.3075,829.2583 C1115.9463,835.6564 1112.0478,837.5482 1106.5357,831.4581 C1101.9151,837.4919 1096.3901,835.2796 1094.1693,829.0401 C1090.3855,834.2416 1084.8714,835.2851 1081.7265,828.3834 C1078.2929,833.5424 1073.9219,832.8943 1070.5685,828.2917 C1065.9018,832.854 1061.3255,833.0793 1058.0565,826.6942 C1053.4883,832.369 1047.8129,832.753 1044.2667,825.5959 C1033.3478,825.0504 1031.4046,817.7372 1036.852,809.6036 C1031.8769,801.4853 1034.0619,795.3801 1044.0967,794.427 " fill="#F1F1F1" style="stroke:#181818;stroke-width:0.5;"/><text fill="#000000" font-family="sans-serif" font-size="14" lengthAdjust="spacing" textLength="108" x="1051" y="813.5152">default network</text></g><!--entity user--><g id="elem_user"><ellipse cx="1662" cy="50.5" fill="#F1F1F1" rx="8" ry="8" style="stroke:#181818;stroke-width:0.5;"/><path d="M1662,58.5 L1662,85.5 M1649,66.5 L1675,66.5 M1662,85.5 L1649,100.5 M1662,85.5 L1675,100.5 " fill="none" style="stroke:#181818;stroke-width:0.5;"/><text fill="#000000" font-family="sans-serif" font-size="14" lengthAdjust="spacing" textLength="31" x="1646.5" y="115.5352">User</text></g><!--entity host--><g id="elem_host"><rect fill="#FFFFFF" height="36.4883" rx="2.5" ry="2.5" style="stroke:#000000;stroke-width:0.5;" width="112" x="1614" y="195.49"/><text fill="#000000" font-family="sans-serif" font-size="14" lengthAdjust="spacing" textLength="92" x="1624" y="219.0252">Host Machine</text></g><g id="elem_GMN34"><path d="M1246.5,386.94 L1246.5,473.4927 L1599.5,473.4927 L1599.5,396.94 L1589.5,386.94 L1246.5,386.94 " fill="#FEFFDD" style="stroke:#181818;stroke-width:0.5;"/><path d="M1589.5,386.94 L1589.5,396.94 L1599.5,396.94 L1589.5,386.94 " fill="#FEFFDD" style="stroke:#181818;stroke-width:1.0;"/><text fill="#000000" font-family="sans-serif" font-size="13" lengthAdjust="spacing" textLength="91" x="1252.5" y="404.5084">Configuration:</text><text fill="#000000" font-family="sans-serif" font-size="13" lengthAdjust="spacing" textLength="244" x="1252.5" y="419.8189">- image: family-service-graphql:latest</text><text fill="#000000" font-family="sans-serif" font-size="13" lengthAdjust="spacing" textLength="121" x="1252.5" y="435.1295">- ports: 8089:8089</text><text fill="#000000" font-family="sans-serif" font-size="13" lengthAdjust="spacing" textLength="161" x="1252.5" y="450.44">- restart: unless-stopped</text><text fill="#000000" font-family="sans-serif" font-size="13" lengthAdjust="spacing" textLength="332" x="1252.5" y="465.7505">- healthcheck: curl -f http://localhost:8089/healthz</text></g><g id="elem_GMN37"><path d="M1246,573.46 L1246,660.0127 L1454,660.0127 L1454,583.46 L1444,573.46 L1246,573.46 " fill="#FEFFDD" style="stroke:#181818;stroke-width:0.5;"/><path d="M1444,573.46 L1444,583.46 L1454,583.46 L1444,573.46 " fill="#FEFFDD" style="stroke:#181818;stroke-width:1.0;"/><text fill="#000000" font-family="sans-serif" font-size="13" lengthAdjust="spacing" textLength="91" x="1252" y="591.0284">Configuration:</text><text fill="#000000" font-family="sans-serif" font-size="13" lengthAdjust="spacing" textLength="114" x="1252" y="606.3389">- image: mongo:6</text><text fill="#000000" font-family="sans-serif" font-size="13" lengthAdjust="spacing" textLength="137" x="1252" y="621.6495">- ports: 27017:27017</text><text fill="#000000" font-family="sans-serif" font-size="13" lengthAdjust="spacing" textLength="161" x="1252" y="636.96">- restart: unless-stopped</text><text fill="#000000" font-family="sans-serif" font-size="13" lengthAdjust="spacing" textLength="187" x="1252" y="652.2705">- healthcheck: mongosh ping</text></g><g id="elem_GMN40"><path d="M1488.5,573.46 L1488.5,660.0127 L1673.5,660.0127 L1673.5,583.46 L1663.5,573.46 L1488.5,573.46 " fill="#FEFFDD" style="stroke:#181818;stroke-width:0.5;"/><path d="M1663.5,573.46 L1663.5,583.46 L1673.5,583.46 L1663.5,573.46 " fill="#FEFFDD" style="stroke:#181818;stroke-width:1.0;"/><text fill="#000000" font-family="sans-serif" font-size="13" lengthAdjust="spacing" textLength="91" x="1494.5" y="591.0284">Configuration:</text><text fill="#000000" font-family="sans-serif" font-size="13" lengthAdjust="spacing" textLength="133" x="1494.5" y="606.3389">- image: postgres:15</text><text fill="#000000" font-family="sans-serif" font-size="13" lengthAdjust="spacing" textLength="121" x="1494.5" y="621.6495">- ports: 5432:5432</text><text fill="#000000" font-family="sans-serif" font-size="13" lengthAdjust="spacing" textLength="161" x="1494.5" y="636.96">- restart: unless-stopped</text><text fill="#000000" font-family="sans-serif" font-size="13" lengthAdjust="spacing" textLength="164" x="1494.5" y="652.2705">- healthcheck: pg_isready</text></g><g id="elem_GMN43"><path d="M6,550.5 L6,682.9844 L382,682.9844 L382,560.5 L372,550.5 L6,550.5 " fill="#FEFFDD" style="stroke:#181818;stroke-width:0.5;"/><path d="M372,550.5 L372,560.5 L382,560.5 L372,550.5 " fill="#FEFFDD" style="stroke:#181818;stroke-width:1.0;"/><text fill="#000000" font-family="sans-serif" font-size="13" lengthAdjust="spacing" textLength="155" x="12" y="568.0684">Deployment Commands:</text><text fill="#000000" font-family="sans-serif" font-size="13" lengthAdjust="spacing" textLength="156" x="12" y="583.3789">- docker-compose build</text><text fill="#000000" font-family="sans-serif" font-size="13" lengthAdjust="spacing" textLength="160" x="12" y="598.6895">- docker-compose up -d</text><text fill="#000000" font-family="sans-serif" font-size="13" lengthAdjust="spacing" textLength="158" x="12" y="614">- docker-compose down</text><text fill="#000000" font-family="sans-serif" font-size="13" lengthAdjust="spacing" textLength="355" x="12" y="629.3105">- make db-init (initialize database based on DB_DRIVER)</text><text fill="#000000" font-family="sans-serif" font-size="13" lengthAdjust="spacing" textLength="4" x="12" y="644.6211">&#160;</text><text fill="#000000" font-family="sans-serif" font-size="13" lengthAdjust="spacing" textLength="49" x="12" y="659.9316">Scaling:</text><text fill="#000000" font-family="sans-serif" font-size="13" lengthAdjust="spacing" textLength="325" x="12" y="675.2422">- docker-compose up -d --scale family-service=3</text></g><!--link app to env--><g id="link_app_env"><path d="M584.87,453.85 C595.55,489.05 616.05,556.6 626.89,592.3 " fill="none" id="app-to-env" style="stroke:#181818;stroke-width:1.0;"/><polygon fill="#181818" points="628.23,596.71,629.4351,586.9351,626.7736,591.9268,621.782,589.2653,628.23,596.71" style="stroke:#181818;stroke-width:1.0;"/><text fill="#000000" font-family="sans-serif" font-size="13" lengthAdjust="spacing" textLength="34" x="605.32" y="517.0684">reads</text></g><!--reverse link app to dockerfile--><g id="link_app_dockerfile"><path d="M562.06,459.69 C555.46,472.67 548.35,488.48 544,503.5 C534.55,536.13 531.48,575.92 530.48,598.28 " fill="none" id="app-backto-dockerfile" style="stroke:#181818;stroke-width:1.0;"/><polygon fill="#181818" points="564.35,455.27,556.6602,461.4236,562.0513,459.7103,563.7646,465.1014,564.35,455.27" style="stroke:#181818;stroke-width:1.0;"/><text fill="#000000" font-family="sans-serif" font-size="13" lengthAdjust="spacing" textLength="39" x="545" y="517.0684">builds</text></g><!--link appService to mongoService--><g id="link_appService_mongoService"><path d="M721.1806,435.0604 C721.3028,435.1177 721.4262,435.1756 721.5508,435.234 C722.5481,435.7017 723.6257,436.2069 724.78,436.7479 C727.0884,437.83 729.7034,439.0554 732.5952,440.4098 C744.1622,445.8278 760.1581,453.3119 778.6838,461.9563 C815.735,479.245 862.905,501.175 905,520.5 C919.19,527.01 927.08,522.94 937,535 C939.8363,538.4475 942.2642,542.2441 944.3412,546.2546 C944.8604,547.2572 945.3577,548.2732 945.834,549.3005 C946.0721,549.8141 946.305,550.3306 946.5327,550.8496 " fill="none" id="appService-to-mongoService" style="stroke:#181818;stroke-width:1.0;"/><polygon fill="#181818" points="946.5327,550.8496,946.5795,541.0008,944.5237,546.2709,939.2536,544.2152,946.5327,550.8496" style="stroke:#181818;stroke-width:1.0;"/><text fill="#000000" font-family="sans-serif" font-size="13" lengthAdjust="spacing" textLength="76" x="906" y="517.0684">depends_on</text></g><!--link appService to postgresService--><g id="link_appService_postgresService"><path d="M721.3735,432.0025 C721.6091,432.0251 721.8494,432.0483 722.0943,432.0719 C722.5841,432.1191 723.0925,432.1683 723.619,432.2195 C725.7252,432.4244 728.1228,432.6611 730.7918,432.9297 C741.4678,434.0045 756.4866,435.5915 774.57,437.703 C810.7369,441.9259 859.1625,448.2469 909.6225,456.7638 C1010.5425,473.7975 1119.6,499.615 1155,535 C1158.1575,538.155 1160.8289,541.7298 1163.0856,545.5766 C1163.6498,546.5383 1164.1881,547.5169 1164.7016,548.5103 C1164.9583,549.007 1165.2088,549.5073 1165.4533,550.0111 C1165.5755,550.2629 1165.6963,550.5156 1165.8155,550.7692 " fill="none" id="appService-to-postgresService" style="stroke:#181818;stroke-width:1.0;"/><polygon fill="#181818" points="1165.8155,550.7692,1165.6051,540.9226,1163.6877,546.2445,1158.3657,544.3271,1165.8155,550.7692" style="stroke:#181818;stroke-width:1.0;"/><text fill="#000000" font-family="sans-serif" font-size="13" lengthAdjust="spacing" textLength="76" x="1133.47" y="517.0684">depends_on</text></g><!--link appService to defaultNetwork--><g id="link_appService_defaultNetwork"><path d="M721.0778,432.1905 C721.2563,432.2127 721.4376,432.2352 721.6215,432.2581 C721.9894,432.3039 722.3681,432.3512 722.7574,432.4 C723.5361,432.4976 724.3571,432.6013 725.2191,432.7109 C732.1152,433.5877 741.6303,434.8472 752.9831,436.4781 C775.6887,439.74 805.745,444.4875 836.9,450.63 C899.21,462.915 965.915,480.78 987,503.5 C1056.64,578.54 981.7,639.19 1029,729.98 C1040.13,751.34 1059.13,770.65 1075.35,784.62 " fill="none" id="appService-defaultNetwork" style="stroke:#181818;stroke-width:1.0;"/></g><!--link mongoService to defaultNetwork--><g id="link_mongoService_defaultNetwork"><path d="M958.961,663.6655 C959.1819,665.1172 959.4185,666.5849 959.6717,668.0657 C960.1781,671.0273 960.7511,674.0413 961.3991,677.0844 C962.6952,683.1707 964.2915,689.3734 966.2558,695.5064 C970.1844,707.7725 975.585,719.76 983,729.98 C986.98,735.47 990.25,734.38 996,737.98 C1020.71,753.43 1048.43,771.05 1069.74,784.64 " fill="none" id="mongoService-defaultNetwork" style="stroke:#181818;stroke-width:1.0;"/></g><!--link postgresService to defaultNetwork--><g id="link_postgresService_defaultNetwork"><path d="M1161.3027,663.4827 C1161.2335,663.7095 1161.1642,663.9363 1161.0947,664.1633 C1160.8168,665.0709 1160.5366,665.9799 1160.2544,666.8888 C1159.6898,668.7066 1159.117,670.5244 1158.5377,672.3323 C1157.3792,675.948 1156.195,679.5238 1155,682.98 C1142.54,719.02 1125.52,759.87 1114.9,784.58 " fill="none" id="postgresService-defaultNetwork" style="stroke:#181818;stroke-width:1.0;"/></g><!--link appService to logs--><g id="link_appService_logs"><path d="M701.236,659.1875 C701.1234,659.6135 701.0101,660.0392 700.8961,660.4645 C700.6681,661.315 700.4371,662.164 700.2031,663.0112 C698.3314,669.7893 696.2694,676.46 694,682.98 C687.2,702.51 656.51,766.62 634.19,796.54 " fill="none" id="appService-to-logs" style="stroke:#181818;stroke-width:1.0;"/><polygon fill="#181818" points="631.31,800.39,639.899,795.5703,634.3008,796.3831,633.488,790.785,631.31,800.39" style="stroke:#181818;stroke-width:1.0;"/><text fill="#000000" font-family="sans-serif" font-size="13" lengthAdjust="spacing" textLength="48" x="718.01" y="621.8084">mounts</text></g><!--link mongoService to mongoData--><g id="link_mongoService_mongoData"><path d="M947.9267,663.7234 C945.2606,670.6813 941.715,677.39 937,682.98 C900.99,725.68 870.72,707.37 824,737.98 C806.9,749.19 789.47,784.62 775.18,797.41 " fill="none" id="mongoService-to-mongoData" style="stroke:#181818;stroke-width:1.0;"/><polygon fill="#181818" points="771.58,800.66,780.939,797.5926,775.2894,797.3073,775.5747,791.6576,771.58,800.66" style="stroke:#181818;stroke-width:1.0;"/><text fill="#000000" font-family="sans-serif" font-size="13" lengthAdjust="spacing" textLength="48" x="891.91" y="726.5484">mounts</text></g><!--link postgresService to pgData--><g id="link_postgresService_pgData"><path d="M1166.3975,663.6955 C1166.3556,663.8038 1166.3136,663.912 1166.2713,664.0202 C1163.5638,670.9425 1159.915,677.5625 1155,682.98 C1130.88,709.57 1113.24,699.41 1080,712.98 C1053.25,723.9 1045.62,724.63 1020,737.98 C997.83,749.53 974.29,785.16 954.78,797.99 " fill="none" id="postgresService-to-pgData" style="stroke:#181818;stroke-width:1.0;"/><polygon fill="#181818" points="950.65,800.72,960.3638,799.0944,954.8212,797.963,955.9526,792.4204,950.65,800.72" style="stroke:#181818;stroke-width:1.0;"/><text fill="#000000" font-family="sans-serif" font-size="13" lengthAdjust="spacing" textLength="48" x="1081" y="726.5484">mounts</text></g><!--link user to host--><g id="link_user_host"><path d="M1664.29,118.92 C1665.66,141.42 1667.36,169.32 1668.55,188.82 " fill="none" id="user-to-host" style="stroke:#181818;stroke-width:1.0;"/><polygon fill="#181818" points="1668.83,193.58,1672.2575,184.3468,1668.5163,188.5898,1664.2733,184.8487,1668.83,193.58" style="stroke:#181818;stroke-width:1.0;"/><text fill="#000000" font-family="sans-serif" font-size="13" lengthAdjust="spacing" textLength="62" x="1667.95" y="162.0584">port 8089</text></g><!--link host to appService--><g id="link_host_appService"><path d="M1613.62,222.41 C1529.43,234.28 1366.07,258.89 1229,288.98 C1113.845,314.255 985.9525,348.9675 886.3013,377.5325 C836.4756,391.815 793.7103,404.5606 763.1277,413.8213 C747.8363,418.4516 735.5907,422.2106 727.031,424.8549 C724.891,425.516 722.9815,426.1074 721.3123,426.6253 " fill="none" id="host-to-appService" style="stroke:#181818;stroke-width:1.0;"/><polygon fill="#181818" points="721.3123,426.6253,731.0934,427.7785,726.0877,425.1436,728.7226,420.1379,721.3123,426.6253" style="stroke:#181818;stroke-width:1.0;"/><text fill="#000000" font-family="sans-serif" font-size="13" lengthAdjust="spacing" textLength="121" x="1350.41" y="277.5484">forwards port 8089</text></g><!--link host to mongoService--><g id="link_host_mongoService"><path d="M1669.01,232.12 C1665.65,284.73 1652.8,440.61 1617,473.5 C1551.25,533.9 1306.87,511.93 1218,520.5 C1175.19,524.62 1063.36,515.54 1025,535 C1004.28,545.505 987.24,565.2275 975.2775,582.55 C972.2869,586.8806 969.6136,591.0613 967.2795,594.9104 C966.1124,596.8349 965.0302,598.6766 964.0355,600.4127 " fill="none" id="host-to-mongoService" style="stroke:#181818;stroke-width:1.0;"/><polygon fill="#181818" points="964.0355,600.4127,971.9804,594.5923,966.5212,596.0743,965.0391,590.6151,964.0355,600.4127" style="stroke:#181818;stroke-width:1.0;"/><text fill="#000000" font-family="sans-serif" font-size="13" lengthAdjust="spacing" textLength="129" x="1665.17" y="435.2884">forwards port 27017</text></g><!--link host to postgresService--><g id="link_host_postgresService"><path d="M1726.35,229.46 C1756.51,240.53 1791.06,259.06 1809,288.98 C1851.17,359.31 1854.51,405.28 1809,473.5 C1778.81,518.75 1749.17,509.02 1696,520.5 C1645.15,531.47 1273.5,509.77 1228,535 C1209.415,545.3 1196.0425,565.02 1187.2538,582.3925 C1186.1552,584.5641 1185.1282,586.6989 1184.1716,588.7742 C1183.6933,589.8118 1183.2326,590.8345 1182.7894,591.8394 C1182.5678,592.3418 1182.3505,592.8398 1182.1376,593.333 " fill="none" id="host-to-postgresService" style="stroke:#181818;stroke-width:1.0;"/><polygon fill="#181818" points="1182.1376,593.333,1189.3771,586.6556,1184.1193,588.7425,1182.0324,583.4847,1182.1376,593.333" style="stroke:#181818;stroke-width:1.0;"/><text fill="#000000" font-family="sans-serif" font-size="13" lengthAdjust="spacing" textLength="121" x="1842.89" y="435.2884">forwards port 5432</text></g><!--link appService to GMN34--><g id="link_appService_GMN34"><path d="M722.008,430.22 C724.7806,430.22 727.5533,430.22 730.3259,430.22 C735.8712,430.22 741.4165,430.22 746.9618,430.22 C758.0523,430.22 769.1428,430.22 780.2333,430.22 C802.4143,430.22 824.5951,430.22 846.7758,430.22 C891.1372,430.22 935.4981,430.22 979.8587,430.22 C1068.58,430.22 1157.3,430.22 1246.02,430.22 " fill="none" id="appService-GMN34" style="stroke:#181818;stroke-width:1.0;stroke-dasharray:7.0,7.0;"/></g><!--link mongoService to GMN37--><g id="link_mongoService_GMN37"><path d="M964.1908,597.2773 C964.2573,597.1344 964.3243,596.991 964.3916,596.847 C964.5263,596.559 964.6626,596.2687 964.8005,595.9762 C965.3521,594.8062 965.9294,593.6006 966.5322,592.3632 C967.7378,589.8884 969.0456,587.2862 970.455,584.5866 C973.2737,579.1874 976.4984,573.3984 980.1238,567.4588 C994.625,543.7 1015.535,517.53 1042.5,504.25 C1094.33,478.72 1117.01,488.14 1172.5,504.25 C1219.1,517.77 1265.19,547.6 1298.72,573.15 " fill="none" id="mongoService-GMN37" style="stroke:#181818;stroke-width:1.0;stroke-dasharray:7.0,7.0;"/></g><!--link postgresService to GMN40--><g id="link_postgresService_GMN40"><path d="M1182.0159,591.1167 C1182.0738,590.9599 1182.132,590.8026 1182.1906,590.6449 C1182.4249,590.014 1182.6645,589.3755 1182.9096,588.7301 C1183.3997,587.4392 1183.9114,586.1201 1184.445,584.7765 C1186.5796,579.4021 1189.0653,573.6359 1191.9238,567.7138 C1203.3575,544.025 1220.755,517.84 1245.5,504.25 C1326.91,459.53 1367.68,471.23 1454.5,504.25 C1490.9,518.09 1523.51,547.74 1546.5,573.12 " fill="none" id="postgresService-GMN40" style="stroke:#181818;stroke-width:1.0;stroke-dasharray:7.0,7.0;"/></g><!--link dockerCompose to GMN43--><g id="link_dockerCompose_GMN43"><path d="M405.8599,438.0455 C405.4511,438.3884 405.0284,438.743 404.592,439.109 C402.8465,440.5732 400.8829,442.2204 398.7222,444.0328 C390.0794,451.2825 378.2838,461.1763 364.6875,472.58 C337.495,495.3875 303.1,524.235 272.32,550.05 " fill="none" id="dockerCompose-GMN43" style="stroke:#181818;stroke-width:1.0;stroke-dasharray:7.0,7.0;"/></g><!--SRC=[bLLDRzim3BtxLn2vR3juwSUwTi8MO6sw3w0TrXRhPHWAnLPi8RBaINAoTkX_7oKvjUKa0tf99FAPV2IVJRFWigQQLg1PPgai18E_2S0fpHQ5LetCpvHG6bObjmpj7xLMgs2Q2SGugD8vqttROv9qqKPJbIsOXZDLrSemE9TBhfMicBGZe0PoxrvxNUxUitDQSN6V6gQNF6CUJ-lw9bmz6E3d9m-2jVMpfdLvTV6h1NlCd7TCtBcNsLrxcDTCBhqN_nDlnnYGfXDd08BaQ6wUxE_Jj1S6tRE62-z_JE9AAYKBvGFxKrn2JYsTKIn_TEcSqzCEk2KKDieMcXaFMbzs1VmU_3TN5n5yIzXR9PggZReCvpRQN0cSCFPcB5GH0EumyBcSuq6PKxHjWyKb52rioEWRiokb5m4bsqlBAHEgoM6KipbjX5rxmro3hNtQnuqLUVx7CYsf27DkBpukpIogUFG31UUT3HvYJb-GELpIhEGogAX4Wul_uac0EQkPp9dCEFQv9rSdecZuf8MQEoM7mE5S8omcQwk3J4c9xBYIWrp3DaIPDzt3V9i8J1eaiZldnEi2kLRuvR1cc7FIYQB3R2QUj8heC9XwFRCekHkFVy0D0U6rqXPEzaxU9TxWF3r-15MeLrJdPXjmC9aOUd2yjt_SOJU74yEFtXmUED9dIivvqMZgw2PIMGQQ5wK5DUyHGu55G8A657X52uQ1eozWMhYFssz11BKCTUU0BgCXlXhYIt9696UfjWGQAPWngR6ghbdkVIMZmfPPoR85WQpH0j8vbDRMP8mlU4Q5gzE76WVeGuB20qS_6HJHRzf_o_10yhPFsFUKXCu-YxAFPKgekInsCXkCwB_arbYoVzGdwAP8_2YVHQykxhXnQ-9-I6wch5MLOnSjFGmnPRLGzsudkZrPKNpF0yC0JBDsFVhriitHu8xQwiZLIdfxHHTucwLSSWiltI-dWZ-mRbUudnoKXEdftVJww-tvzIltGRv1HM2doSwq-4eOnB21LZySTlN_0m00]--></g></svg>