<?xml version="1.0" encoding="us-ascii" standalone="no"?><svg xmlns="http://www.w3.org/2000/svg" xmlns:xlink="http://www.w3.org/1999/xlink" contentStyleType="text/css" height="727px" preserveAspectRatio="none" style="width:4169px;height:727px;background:#FFFFFF;" version="1.1" viewBox="0 0 4169 727" width="4169px" zoomAndPan="magnify"><defs/><g><text fill="#000000" font-family="sans-serif" font-size="14" font-weight="bold" lengthAdjust="spacing" textLength="442" x="1856.5" y="23.5352">Family Service - Hexagonal Architecture (Ports and Adapters)</text><!--cluster DomainCore--><g id="cluster_DomainCore"><path d="M2013.5,445.6483 L2097.875,266.1583 L2604.125,266.1583 L2688.5,445.6483 L2604.125,625.1383 L2097.875,625.1383 L2013.5,445.6483 " fill="none" style="stroke:#181818;stroke-width:1.0;"/><text fill="#000000" font-family="sans-serif" font-size="14" font-weight="bold" lengthAdjust="spacing" textLength="94" x="2304" y="281.6934">Domain Core</text></g><!--cluster DomainModel--><g id="cluster_DomainModel"><rect fill="none" height="275.98" rx="2.5" ry="2.5" style="stroke:#181818;stroke-width:1.0;" width="353" x="2053.5" y="317.1583"/><text fill="#000000" font-family="sans-serif" font-size="14" font-weight="bold" lengthAdjust="spacing" textLength="105" x="2177.5" y="332.6934">Domain Model</text></g><!--cluster DomainServices--><g id="cluster_DomainServices"><rect fill="none" height="97.49" rx="2.5" ry="2.5" style="stroke:#181818;stroke-width:1.0;" width="226" x="2430.5" y="317.1583"/><text fill="#000000" font-family="sans-serif" font-size="14" font-weight="bold" lengthAdjust="spacing" textLength="119" x="2484" y="332.6934">Domain Services</text></g><!--cluster ApplicationLayer--><g id="cluster_ApplicationLayer"><rect fill="none" height="113.49" rx="2.5" ry="2.5" style="stroke:#181818;stroke-width:1.0;" width="285" x="1688.5" y="87.6683"/><text fill="#000000" font-family="sans-serif" font-size="14" font-weight="bold" lengthAdjust="spacing" textLength="125" x="1768.5" y="103.2034">Application Layer</text></g><!--cluster PrimaryAdapters--><g id="cluster_PrimaryAdapters"><rect fill="none" height="334.98" rx="2.5" ry="2.5" style="stroke:#181818;stroke-width:1.0;" width="412" x="2950.5" y="87.6683"/><text fill="#000000" font-family="sans-serif" font-size="14" font-weight="bold" lengthAdjust="spacing" textLength="125" x="3094" y="103.2034">Primary Adapters</text></g><!--cluster SecondaryAdapters--><g id="cluster_SecondaryAdapters"><rect fill="none" height="113.49" rx="2.5" ry="2.5" style="stroke:#181818;stroke-width:1.0;" width="1456" x="414.5" y="309.1583"/><text fill="#000000" font-family="sans-serif" font-size="14" font-weight="bold" lengthAdjust="spacing" textLength="141" x="1072" y="324.6934">Secondary Adapters</text></g><!--cluster ExternalSystems--><g id="cluster_ExternalSystems"><path d="M679.2738,502.8203 C689.7578,477.7527 711.1061,471.0838 728.8199,495.5954 C748.4978,476.6659 766.4452,478.4245 780.9094,501.9867 C792.7509,477.4772 817.7825,468.7645 835.2598,496.0757 C850.0263,468.0512 868.7315,466.9758 885.7437,494.0168 C904.1677,470.4892 922.2581,472.0738 938.7027,496.2159 C951.0998,462.0894 979.4011,464.9801 997.9628,490.0442 C1014.5218,466.0896 1038.4854,468.4043 1050.135,495.101 C1065.4325,471.3297 1084.6633,471.8241 1101.2694,493.633 C1114.9864,469.1797 1133.531,471.3047 1150.3734,490.0832 C1167.2932,470.4709 1187.6335,472.3549 1201.173,494.223 C1215.022,463.7999 1242.2137,469.8574 1257.3697,492.8479 C1276.4178,464.4631 1304.6569,471.5919 1315.7842,500.8718 C1327.5607,479.7434 1351.7262,479.5535 1364.2392,500.0138 C1381.8386,474.4153 1404.2201,479.5935 1419.5,502.6483 C1421.8325,503.0704 1422.4162,504.6577 1421.3028,506.6372 C1430.9151,509.3216 1431.8048,517.7906 1424.38,523.571 C1435.8984,529.6989 1437.142,536.164 1427.1224,545.0427 C1434.7978,553.6486 1434.0811,560.1193 1424.3593,566.4833 C1431.5344,579.1932 1429.3595,591.1218 1412.5,593.1383 C1415.7805,591.2559 1418.6146,592.4844 1418.6402,596.5171 C1398.8247,619.6615 1380.8251,622.4896 1362.5978,594.7673 C1347.8044,618.6632 1328.7884,622.5891 1312.5249,596.232 C1295.4536,619.2509 1270.4198,621.6997 1254.73,594.6376 C1239.7956,616.3525 1224.3702,616.4883 1207.002,597.4908 C1192.535,623.713 1165.241,628.5573 1149.4543,598.8486 C1136.321,618.591 1113.9536,617.8994 1101.3131,598.2464 C1087.4105,621.3203 1067.2301,623.9954 1048.7445,603.8167 C1028.6605,630.2065 1005.5644,623.1996 992.5875,596.3237 C980.7444,617.1521 961.7311,623.8826 946.2446,600.1093 C931.0316,626.2164 904.0881,631.2284 888.8431,600.1414 C871.0448,619.9084 853.2291,617.7049 838.6594,596.2143 C826.6155,624.0064 803.7985,623.6418 786.7841,601.364 C766.77,621.1841 748.4523,621.4577 733.3041,595.6595 C709.7826,629.7443 678.7031,625.5346 665.5,586.1383 C668.0444,586.6972 668.4035,588.2217 666.9982,590.2277 C656.6221,584.7818 653.681,574.0595 665.1543,566.8876 C653.1869,560.9266 652.2709,553.6572 663.155,545.5545 C652.4822,539.1335 653.8543,531.0664 663.8935,525.4045 C654.5862,511.6537 656.9026,502.1958 672.5,495.6483 C678.6294,494.4352 679.9743,497.5826 679.2738,502.8203 " fill="none" style="stroke:#181818;stroke-width:1.0;"/><text fill="#000000" font-family="sans-serif" font-size="14" font-weight="bold" lengthAdjust="spacing" textLength="123" x="981" y="514.1834">External Systems</text></g><!--entity FamilyAggregate--><g id="elem_FamilyAggregate"><rect fill="#F1F1F1" height="46.4883" rx="2.5" ry="2.5" style="stroke:#181818;stroke-width:0.5;" width="160" x="2069.5" y="352.1583"/><rect fill="#F1F1F1" height="10" style="stroke:#181818;stroke-width:0.5;" width="15" x="2209.5" y="357.1583"/><rect fill="#F1F1F1" height="2" style="stroke:#181818;stroke-width:0.5;" width="4" x="2207.5" y="359.1583"/><rect fill="#F1F1F1" height="2" style="stroke:#181818;stroke-width:0.5;" width="4" x="2207.5" y="363.1583"/><text fill="#000000" font-family="sans-serif" font-size="14" lengthAdjust="spacing" textLength="120" x="2084.5" y="385.6934">Family Aggregate</text></g><!--entity ParentEntity--><g id="elem_ParentEntity"><rect fill="#F1F1F1" height="46.4883" rx="2.5" ry="2.5" style="stroke:#181818;stroke-width:0.5;" width="126" x="2264.5" y="352.1583"/><rect fill="#F1F1F1" height="10" style="stroke:#181818;stroke-width:0.5;" width="15" x="2370.5" y="357.1583"/><rect fill="#F1F1F1" height="2" style="stroke:#181818;stroke-width:0.5;" width="4" x="2368.5" y="359.1583"/><rect fill="#F1F1F1" height="2" style="stroke:#181818;stroke-width:0.5;" width="4" x="2368.5" y="363.1583"/><text fill="#000000" font-family="sans-serif" font-size="14" lengthAdjust="spacing" textLength="86" x="2279.5" y="385.6934">Parent Entity</text></g><!--entity ChildEntity--><g id="elem_ChildEntity"><rect fill="#F1F1F1" height="46.4883" rx="2.5" ry="2.5" style="stroke:#181818;stroke-width:0.5;" width="118" x="2090.5" y="530.6483"/><rect fill="#F1F1F1" height="10" style="stroke:#181818;stroke-width:0.5;" width="15" x="2188.5" y="535.6483"/><rect fill="#F1F1F1" height="2" style="stroke:#181818;stroke-width:0.5;" width="4" x="2186.5" y="537.6483"/><rect fill="#F1F1F1" height="2" style="stroke:#181818;stroke-width:0.5;" width="4" x="2186.5" y="541.6483"/><text fill="#000000" font-family="sans-serif" font-size="14" lengthAdjust="spacing" textLength="78" x="2105.5" y="564.1834">Child Entity</text></g><!--entity ValueObjects--><g id="elem_ValueObjects"><rect fill="#F1F1F1" height="46.4883" rx="2.5" ry="2.5" style="stroke:#181818;stroke-width:0.5;" width="133" x="2243" y="530.6483"/><rect fill="#F1F1F1" height="10" style="stroke:#181818;stroke-width:0.5;" width="15" x="2356" y="535.6483"/><rect fill="#F1F1F1" height="2" style="stroke:#181818;stroke-width:0.5;" width="4" x="2354" y="537.6483"/><rect fill="#F1F1F1" height="2" style="stroke:#181818;stroke-width:0.5;" width="4" x="2354" y="541.6483"/><text fill="#000000" font-family="sans-serif" font-size="14" lengthAdjust="spacing" textLength="93" x="2258" y="564.1834">Value Objects</text></g><!--entity FamilyDomainService--><g id="elem_FamilyDomainService"><rect fill="#F1F1F1" height="46.4883" rx="2.5" ry="2.5" style="stroke:#181818;stroke-width:0.5;" width="193" x="2447" y="352.1583"/><rect fill="#F1F1F1" height="10" style="stroke:#181818;stroke-width:0.5;" width="15" x="2620" y="357.1583"/><rect fill="#F1F1F1" height="2" style="stroke:#181818;stroke-width:0.5;" width="4" x="2618" y="359.1583"/><rect fill="#F1F1F1" height="2" style="stroke:#181818;stroke-width:0.5;" width="4" x="2618" y="363.1583"/><text fill="#000000" font-family="sans-serif" font-size="14" lengthAdjust="spacing" textLength="153" x="2462" y="385.6934">Family Domain Service</text></g><!--entity FamilyAppService--><g id="elem_FamilyAppService"><rect fill="#F1F1F1" height="46.4883" rx="2.5" ry="2.5" style="stroke:#181818;stroke-width:0.5;" width="218" x="1712.5" y="130.6683"/><rect fill="#F1F1F1" height="10" style="stroke:#181818;stroke-width:0.5;" width="15" x="1910.5" y="135.6683"/><rect fill="#F1F1F1" height="2" style="stroke:#181818;stroke-width:0.5;" width="4" x="1908.5" y="137.6683"/><rect fill="#F1F1F1" height="2" style="stroke:#181818;stroke-width:0.5;" width="4" x="1908.5" y="141.6683"/><text fill="#000000" font-family="sans-serif" font-size="14" lengthAdjust="spacing" textLength="178" x="1727.5" y="164.2034">Family Application Service</text></g><!--entity GraphQLResolver--><g id="elem_GraphQLResolver"><rect fill="#F1F1F1" height="46.4883" rx="2.5" ry="2.5" style="stroke:#181818;stroke-width:0.5;" width="162" x="2993.5" y="130.6683"/><rect fill="#F1F1F1" height="10" style="stroke:#181818;stroke-width:0.5;" width="15" x="3135.5" y="135.6683"/><rect fill="#F1F1F1" height="2" style="stroke:#181818;stroke-width:0.5;" width="4" x="3133.5" y="137.6683"/><rect fill="#F1F1F1" height="2" style="stroke:#181818;stroke-width:0.5;" width="4" x="3133.5" y="141.6683"/><text fill="#000000" font-family="sans-serif" font-size="14" lengthAdjust="spacing" textLength="122" x="3008.5" y="164.2034">GraphQL Resolver</text></g><!--entity RESTController--><g id="elem_RESTController"><rect fill="#F1F1F1" height="46.4883" rx="2.5" ry="2.5" style="stroke:#181818;stroke-width:0.5;" width="148" x="3190.5" y="130.6683"/><rect fill="#F1F1F1" height="10" style="stroke:#181818;stroke-width:0.5;" width="15" x="3318.5" y="135.6683"/><rect fill="#F1F1F1" height="2" style="stroke:#181818;stroke-width:0.5;" width="4" x="3316.5" y="137.6683"/><rect fill="#F1F1F1" height="2" style="stroke:#181818;stroke-width:0.5;" width="4" x="3316.5" y="141.6683"/><text fill="#000000" font-family="sans-serif" font-size="14" lengthAdjust="spacing" textLength="108" x="3205.5" y="164.2034">REST Controller</text></g><!--entity CLICommands--><g id="elem_CLICommands"><rect fill="#F1F1F1" height="46.4883" rx="2.5" ry="2.5" style="stroke:#181818;stroke-width:0.5;" width="143" x="3003" y="352.1583"/><rect fill="#F1F1F1" height="10" style="stroke:#181818;stroke-width:0.5;" width="15" x="3126" y="357.1583"/><rect fill="#F1F1F1" height="2" style="stroke:#181818;stroke-width:0.5;" width="4" x="3124" y="359.1583"/><rect fill="#F1F1F1" height="2" style="stroke:#181818;stroke-width:0.5;" width="4" x="3124" y="363.1583"/><text fill="#000000" font-family="sans-serif" font-size="14" lengthAdjust="spacing" textLength="103" x="3018" y="385.6934">CLI Commands</text></g><!--entity MongoRepo--><g id="elem_MongoRepo"><rect fill="#F1F1F1" height="46.4883" rx="2.5" ry="2.5" style="stroke:#181818;stroke-width:0.5;" width="183" x="439" y="352.1583"/><rect fill="#F1F1F1" height="10" style="stroke:#181818;stroke-width:0.5;" width="15" x="602" y="357.1583"/><rect fill="#F1F1F1" height="2" style="stroke:#181818;stroke-width:0.5;" width="4" x="600" y="359.1583"/><rect fill="#F1F1F1" height="2" style="stroke:#181818;stroke-width:0.5;" width="4" x="600" y="363.1583"/><text fill="#000000" font-family="sans-serif" font-size="14" lengthAdjust="spacing" textLength="143" x="454" y="385.6934">MongoDB Repository</text></g><!--entity PostgresRepo--><g id="elem_PostgresRepo"><rect fill="#F1F1F1" height="46.4883" rx="2.5" ry="2.5" style="stroke:#181818;stroke-width:0.5;" width="195" x="657" y="352.1583"/><rect fill="#F1F1F1" height="10" style="stroke:#181818;stroke-width:0.5;" width="15" x="832" y="357.1583"/><rect fill="#F1F1F1" height="2" style="stroke:#181818;stroke-width:0.5;" width="4" x="830" y="359.1583"/><rect fill="#F1F1F1" height="2" style="stroke:#181818;stroke-width:0.5;" width="4" x="830" y="363.1583"/><text fill="#000000" font-family="sans-serif" font-size="14" lengthAdjust="spacing" textLength="155" x="672" y="385.6934">PostgreSQL Repository</text></g><!--entity SQLiteRepo--><g id="elem_SQLiteRepo"><rect fill="#F1F1F1" height="46.4883" rx="2.5" ry="2.5" style="stroke:#181818;stroke-width:0.5;" width="160" x="886.5" y="352.1583"/><rect fill="#F1F1F1" height="10" style="stroke:#181818;stroke-width:0.5;" width="15" x="1026.5" y="357.1583"/><rect fill="#F1F1F1" height="2" style="stroke:#181818;stroke-width:0.5;" width="4" x="1024.5" y="359.1583"/><rect fill="#F1F1F1" height="2" style="stroke:#181818;stroke-width:0.5;" width="4" x="1024.5" y="363.1583"/><text fill="#000000" font-family="sans-serif" font-size="14" lengthAdjust="spacing" textLength="120" x="901.5" y="385.6934">SQLite Repository</text></g><!--entity LoggingAdapter--><g id="elem_LoggingAdapter"><rect fill="#F1F1F1" height="46.4883" rx="2.5" ry="2.5" style="stroke:#181818;stroke-width:0.5;" width="155" x="1082" y="352.1583"/><rect fill="#F1F1F1" height="10" style="stroke:#181818;stroke-width:0.5;" width="15" x="1217" y="357.1583"/><rect fill="#F1F1F1" height="2" style="stroke:#181818;stroke-width:0.5;" width="4" x="1215" y="359.1583"/><rect fill="#F1F1F1" height="2" style="stroke:#181818;stroke-width:0.5;" width="4" x="1215" y="363.1583"/><text fill="#000000" font-family="sans-serif" font-size="14" lengthAdjust="spacing" textLength="115" x="1097" y="385.6934">Logging Adapter</text></g><!--entity ConfigAdapter--><g id="elem_ConfigAdapter"><rect fill="#F1F1F1" height="46.4883" rx="2.5" ry="2.5" style="stroke:#181818;stroke-width:0.5;" width="145" x="1272" y="352.1583"/><rect fill="#F1F1F1" height="10" style="stroke:#181818;stroke-width:0.5;" width="15" x="1397" y="357.1583"/><rect fill="#F1F1F1" height="2" style="stroke:#181818;stroke-width:0.5;" width="4" x="1395" y="359.1583"/><rect fill="#F1F1F1" height="2" style="stroke:#181818;stroke-width:0.5;" width="4" x="1395" y="363.1583"/><text fill="#000000" font-family="sans-serif" font-size="14" lengthAdjust="spacing" textLength="105" x="1287" y="385.6934">Config Adapter</text></g><!--entity CacheAdapter--><g id="elem_CacheAdapter"><rect fill="#F1F1F1" height="46.4883" rx="2.5" ry="2.5" style="stroke:#181818;stroke-width:0.5;" width="141" x="1452" y="352.1583"/><rect fill="#F1F1F1" height="10" style="stroke:#181818;stroke-width:0.5;" width="15" x="1573" y="357.1583"/><rect fill="#F1F1F1" height="2" style="stroke:#181818;stroke-width:0.5;" width="4" x="1571" y="359.1583"/><rect fill="#F1F1F1" height="2" style="stroke:#181818;stroke-width:0.5;" width="4" x="1571" y="363.1583"/><text fill="#000000" font-family="sans-serif" font-size="14" lengthAdjust="spacing" textLength="101" x="1467" y="385.6934">Cache Adapter</text></g><!--entity CircuitBreakerAdapter--><g id="elem_CircuitBreakerAdapter"><rect fill="#F1F1F1" height="46.4883" rx="2.5" ry="2.5" style="stroke:#181818;stroke-width:0.5;" width="200" x="1627.5" y="352.1583"/><rect fill="#F1F1F1" height="10" style="stroke:#181818;stroke-width:0.5;" width="15" x="1807.5" y="357.1583"/><rect fill="#F1F1F1" height="2" style="stroke:#181818;stroke-width:0.5;" width="4" x="1805.5" y="359.1583"/><rect fill="#F1F1F1" height="2" style="stroke:#181818;stroke-width:0.5;" width="4" x="1805.5" y="363.1583"/><text fill="#000000" font-family="sans-serif" font-size="14" lengthAdjust="spacing" textLength="160" x="1642.5" y="385.6934">Circuit Breaker Adapter</text></g><!--entity MongoDB--><g id="elem_MongoDB"><path d="M681.5,541.1483 C681.5,531.1483 724.5,531.1483 724.5,531.1483 C724.5,531.1483 767.5,531.1483 767.5,541.1483 L767.5,566.6366 C767.5,576.6366 724.5,576.6366 724.5,576.6366 C724.5,576.6366 681.5,576.6366 681.5,566.6366 L681.5,541.1483 " fill="#F1F1F1" style="stroke:#181818;stroke-width:0.5;"/><path d="M681.5,541.1483 C681.5,551.1483 724.5,551.1483 724.5,551.1483 C724.5,551.1483 767.5,551.1483 767.5,541.1483 " fill="none" style="stroke:#181818;stroke-width:0.5;"/><text fill="#000000" font-family="sans-serif" font-size="14" lengthAdjust="spacing" textLength="66" x="691.5" y="568.6834">MongoDB</text></g><!--entity PostgreSQL--><g id="elem_PostgreSQL"><path d="M802.5,541.1483 C802.5,531.1483 851.5,531.1483 851.5,531.1483 C851.5,531.1483 900.5,531.1483 900.5,541.1483 L900.5,566.6366 C900.5,576.6366 851.5,576.6366 851.5,576.6366 C851.5,576.6366 802.5,576.6366 802.5,566.6366 L802.5,541.1483 " fill="#F1F1F1" style="stroke:#181818;stroke-width:0.5;"/><path d="M802.5,541.1483 C802.5,551.1483 851.5,551.1483 851.5,551.1483 C851.5,551.1483 900.5,551.1483 900.5,541.1483 " fill="none" style="stroke:#181818;stroke-width:0.5;"/><text fill="#000000" font-family="sans-serif" font-size="14" lengthAdjust="spacing" textLength="78" x="812.5" y="568.6834">PostgreSQL</text></g><!--entity SQLite--><g id="elem_SQLite"><path d="M935,541.1483 C935,531.1483 966.5,531.1483 966.5,531.1483 C966.5,531.1483 998,531.1483 998,541.1483 L998,566.6366 C998,576.6366 966.5,576.6366 966.5,576.6366 C966.5,576.6366 935,576.6366 935,566.6366 L935,541.1483 " fill="#F1F1F1" style="stroke:#181818;stroke-width:0.5;"/><path d="M935,541.1483 C935,551.1483 966.5,551.1483 966.5,551.1483 C966.5,551.1483 998,551.1483 998,541.1483 " fill="none" style="stroke:#181818;stroke-width:0.5;"/><text fill="#000000" font-family="sans-serif" font-size="14" lengthAdjust="spacing" textLength="43" x="945" y="568.6834">SQLite</text></g><!--entity LoggingService--><g id="elem_LoggingService"><rect fill="#F1F1F1" height="46.4883" rx="2.5" ry="2.5" style="stroke:#181818;stroke-width:0.5;" width="148" x="1033.5" y="530.6483"/><rect fill="#F1F1F1" height="10" style="stroke:#181818;stroke-width:0.5;" width="15" x="1161.5" y="535.6483"/><rect fill="#F1F1F1" height="2" style="stroke:#181818;stroke-width:0.5;" width="4" x="1159.5" y="537.6483"/><rect fill="#F1F1F1" height="2" style="stroke:#181818;stroke-width:0.5;" width="4" x="1159.5" y="541.6483"/><text fill="#000000" font-family="sans-serif" font-size="14" lengthAdjust="spacing" textLength="108" x="1048.5" y="564.1834">Logging Service</text></g><!--entity MonitoringService--><g id="elem_MonitoringService"><rect fill="#F1F1F1" height="46.4883" rx="2.5" ry="2.5" style="stroke:#181818;stroke-width:0.5;" width="168" x="1216.5" y="530.6483"/><rect fill="#F1F1F1" height="10" style="stroke:#181818;stroke-width:0.5;" width="15" x="1364.5" y="535.6483"/><rect fill="#F1F1F1" height="2" style="stroke:#181818;stroke-width:0.5;" width="4" x="1362.5" y="537.6483"/><rect fill="#F1F1F1" height="2" style="stroke:#181818;stroke-width:0.5;" width="4" x="1362.5" y="541.6483"/><text fill="#000000" font-family="sans-serif" font-size="14" lengthAdjust="spacing" textLength="128" x="1231.5" y="564.1834">Monitoring Service</text></g><!--entity FamilyRepoPort--><g id="elem_FamilyRepoPort"><ellipse cx="1923.5" cy="553.8883" fill="#F1F1F1" rx="8" ry="8" style="stroke:#181818;stroke-width:0.5;"/><text fill="#000000" font-family="sans-serif" font-size="14" lengthAdjust="spacing" textLength="117" x="1865" y="584.4234">FamilyRepository</text></g><!--entity FamilyAppServicePort--><g id="elem_FamilyAppServicePort"><ellipse cx="2819.5" cy="375.4083" fill="#F1F1F1" rx="8" ry="8" style="stroke:#181818;stroke-width:0.5;"/><text fill="#000000" font-family="sans-serif" font-size="14" lengthAdjust="spacing" textLength="198" x="2720.5" y="405.9434">FamilyApplicationServicePort</text></g><g id="elem_GMN43"><path d="M3387,347.4383 L3387,403.3699 L3760,403.3699 L3760,357.4383 L3750,347.4383 L3387,347.4383 " fill="#FEFFDD" style="stroke:#181818;stroke-width:0.5;"/><path d="M3750,347.4383 L3750,357.4383 L3760,357.4383 L3750,347.4383 " fill="#FEFFDD" style="stroke:#181818;stroke-width:1.0;"/><text fill="#000000" font-family="sans-serif" font-size="13" lengthAdjust="spacing" textLength="352" x="3393" y="365.0066">The Domain Core contains the business logic and rules.</text><text fill="#000000" font-family="sans-serif" font-size="13" lengthAdjust="spacing" textLength="322" x="3393" y="380.3172">It defines ports (interfaces) that it needs to interact</text><text fill="#000000" font-family="sans-serif" font-size="13" lengthAdjust="spacing" textLength="145" x="3393" y="395.6277">with the outside world.</text></g><g id="elem_GMN46"><path d="M3387,125.9483 L3387,181.8799 L3766,181.8799 L3766,135.9483 L3756,125.9483 L3387,125.9483 " fill="#FEFFDD" style="stroke:#181818;stroke-width:0.5;"/><path d="M3756,125.9483 L3756,135.9483 L3766,135.9483 L3756,125.9483 " fill="#FEFFDD" style="stroke:#181818;stroke-width:1.0;"/><text fill="#000000" font-family="sans-serif" font-size="13" lengthAdjust="spacing" textLength="358" x="3393" y="143.5166">Primary Adapters (Driving Adapters) drive the application</text><text fill="#000000" font-family="sans-serif" font-size="13" lengthAdjust="spacing" textLength="342" x="3393" y="158.8272">by calling the application services through their ports.</text><text fill="#000000" font-family="sans-serif" font-size="13" lengthAdjust="spacing" textLength="300" x="3393" y="174.1377">They convert external requests to internal calls.</text></g><g id="elem_GMN49"><path d="M3795,347.4383 L3795,403.3699 L4162,403.3699 L4162,357.4383 L4152,347.4383 L3795,347.4383 " fill="#FEFFDD" style="stroke:#181818;stroke-width:0.5;"/><path d="M4152,347.4383 L4152,357.4383 L4162,357.4383 L4152,347.4383 " fill="#FEFFDD" style="stroke:#181818;stroke-width:1.0;"/><text fill="#000000" font-family="sans-serif" font-size="13" lengthAdjust="spacing" textLength="346" x="3801" y="365.0066">Secondary Adapters (Driven Adapters) are driven by the</text><text fill="#000000" font-family="sans-serif" font-size="13" lengthAdjust="spacing" textLength="334" x="3801" y="380.3172">application. They implement the ports defined by the</text><text fill="#000000" font-family="sans-serif" font-size="13" lengthAdjust="spacing" textLength="260" x="3801" y="395.6277">domain and connect to external systems.</text></g><g id="elem_GMN52"><path d="M1225,680.1383 L1225,720.7594 L1614,720.7594 L1614,690.1383 L1604,680.1383 L1225,680.1383 " fill="#FEFFDD" style="stroke:#181818;stroke-width:0.5;"/><path d="M1604,680.1383 L1604,690.1383 L1614,690.1383 L1604,680.1383 " fill="#FEFFDD" style="stroke:#181818;stroke-width:1.0;"/><text fill="#000000" font-family="sans-serif" font-size="13" lengthAdjust="spacing" textLength="331" x="1231" y="697.7066">External Systems are infrastructure components that</text><text fill="#000000" font-family="sans-serif" font-size="13" lengthAdjust="spacing" textLength="368" x="1231" y="713.0172">the application interacts with through secondary adapters.</text></g><g id="elem_GMN55"><path d="M6,347.4383 L6,403.3699 L391,403.3699 L391,357.4383 L381,347.4383 L6,347.4383 " fill="#FEFFDD" style="stroke:#181818;stroke-width:0.5;"/><path d="M381,347.4383 L381,357.4383 L391,357.4383 L381,347.4383 " fill="#FEFFDD" style="stroke:#181818;stroke-width:1.0;"/><text fill="#000000" font-family="sans-serif" font-size="13" lengthAdjust="spacing" textLength="329" x="12" y="365.0066">The Application Layer orchestrates the flow between</text><text fill="#000000" font-family="sans-serif" font-size="13" lengthAdjust="spacing" textLength="364" x="12" y="380.3172">primary adapters and the domain core. It uses the domain</text><text fill="#000000" font-family="sans-serif" font-size="13" lengthAdjust="spacing" textLength="274" x="12" y="395.6277">and implements ports for primary adapters.</text></g><!--link ApplicationLayer to DomainCore--><g id="link_ApplicationLayer_DomainCore"><path d="M1973.5643,186.5245 C1973.6414,186.8267 1973.7189,187.1305 1973.7968,187.4359 C1974.1085,188.6576 1974.4269,189.9051 1974.7514,191.177 C1979.9441,211.5277 1986.7281,238.1158 1993.5113,264.7008 C2000.2944,291.2858 2007.0766,317.8677 2012.2655,338.2058 C2012.5898,339.4769 2012.9079,340.7237 2013.2193,341.9445 C2013.2972,342.2497 2013.3747,342.5533 2013.4517,342.8552 " fill="none" id="ApplicationLayer-to-DomainCore" style="stroke:#000000;stroke-width:1.0;"/><polygon fill="#000000" points="2013.4517,342.8552,2015.1026,333.1457,2012.2156,338.0104,2007.3509,335.1234,2013.4517,342.8552" style="stroke:#000000;stroke-width:1.0;"/></g><!--link ApplicationLayer to FamilyRepoPort--><g id="link_ApplicationLayer_FamilyRepoPort"><path d="M1960.5626,201.6927 C1960.3688,203.5293 1960.1704,205.4088 1959.9678,207.3292 C1956.7256,238.0558 1952.3788,279.2495 1947.8175,322.4733 C1938.695,408.9208 1928.715,503.4883 1925,538.6783 " fill="none" id="ApplicationLayer-to-FamilyRepoPort" style="stroke:#000000;stroke-width:1.0;"/><polygon fill="#000000" points="1924.49,543.5583,1929.4191,535.0316,1925.0186,538.5863,1921.464,534.1858,1924.49,543.5583" style="stroke:#000000;stroke-width:1.0;"/><text fill="#000000" font-family="sans-serif" font-size="13" lengthAdjust="spacing" textLength="29" x="1956.23" y="380.4766">uses</text></g><!--link ApplicationLayer to FamilyAppServicePort--><g id="link_ApplicationLayer_FamilyAppServicePort"><path d="M1974.0471,155.4903 C1974.34,155.5104 1974.6402,155.5311 1974.9474,155.5524 C1975.5619,155.5948 1976.2048,155.6393 1976.8758,155.686 C1978.2178,155.7792 1979.672,155.8808 1981.2347,155.9906 C1984.3601,156.2104 1987.9199,156.4633 1991.8857,156.749 C2007.7487,157.892 2030.1071,159.56 2057.1436,161.7305 C2111.2166,166.0714 2184.0019,172.422 2260.9613,180.6008 C2414.88,196.9583 2585.495,220.6283 2656.5,250.1583 C2713.64,273.9183 2768.36,322.7383 2797.59,351.5983 " fill="none" id="ApplicationLayer-to-FamilyAppServicePort" style="stroke:#000000;stroke-width:1.0;stroke-dasharray:7.0,7.0;"/><polygon fill="none" points="2802.22,346.3283,2811.23,365.5083,2792.23,356.1283,2802.22,346.3283" style="stroke:#000000;stroke-width:1.0;"/><text fill="#000000" font-family="sans-serif" font-size="13" lengthAdjust="spacing" textLength="74" x="2627.57" y="238.7266">implements</text></g><!--link DomainCore to FamilyRepoPort--><g id="link_DomainCore_FamilyRepoPort"><path d="M2013.2816,391.2039 C2013.1902,391.3686 2013.0981,391.5343 2013.0054,391.7013 C2012.6347,392.369 2012.2538,393.055 2011.8632,393.7585 C2011.0819,395.1656 2010.2617,396.6428 2009.4058,398.1844 C2002.5584,410.5167 1993.4256,426.9652 1983.6687,444.537 C1964.155,479.6808 1942.145,519.3183 1930.93,539.5083 " fill="none" id="DomainCore-to-FamilyRepoPort" style="stroke:#000000;stroke-width:1.0;"/><polygon fill="#000000" points="1928.57,543.7683,1936.4374,537.8434,1930.9982,539.3975,1929.4442,533.9583,1928.57,543.7683" style="stroke:#000000;stroke-width:1.0;"/><text fill="#000000" font-family="sans-serif" font-size="13" lengthAdjust="spacing" textLength="29" x="1982.28" y="460.2166">uses</text></g><!--link PrimaryAdapters to FamilyAppServicePort--><g id="link_PrimaryAdapters_FamilyAppServicePort"><path d="M2950.4641,167.6097 C2949.5587,169.0393 2948.5863,170.5747 2947.5519,172.2081 C2945.4829,175.4749 2943.1657,179.1337 2940.6397,183.1222 C2930.5356,199.0761 2917.0912,220.3039 2902.8375,242.8095 C2874.33,287.8208 2842.585,337.9433 2827.85,361.2083 " fill="none" id="PrimaryAdapters-to-FamilyAppServicePort" style="stroke:#000000;stroke-width:1.0;"/><polygon fill="#000000" points="2825.27,365.2983,2833.4669,359.8384,2827.947,361.0753,2826.7101,355.5553,2825.27,365.2983" style="stroke:#000000;stroke-width:1.0;"/><text fill="#000000" font-family="sans-serif" font-size="13" lengthAdjust="spacing" textLength="29" x="2914.54" y="238.7266">uses</text></g><!--link SecondaryAdapters to FamilyRepoPort--><g id="link_SecondaryAdapters_FamilyRepoPort"><path d="M1852.5496,422.7216 C1852.506,422.825 1852.4622,422.9283 1852.4183,423.0316 C1852.3303,423.2381 1852.2416,423.4443 1852.1521,423.6502 C1851.9731,424.062 1851.791,424.4726 1851.6059,424.8817 C1850.8652,426.5181 1850.0745,428.1314 1849.2305,429.709 C1847.5425,432.8642 1845.6413,435.877 1843.5,438.6483 C1839.35,444.0183 1833.81,440.7283 1830.5,446.6483 C1826.81,453.2483 1827.54,456.6983 1830.5,463.6483 C1843.87,495.0083 1874.26,520.6483 1896.68,536.2683 " fill="none" id="SecondaryAdapters-to-FamilyRepoPort" style="stroke:#000000;stroke-width:1.0;stroke-dasharray:7.0,7.0;"/><polygon fill="none" points="1900.35,530.3083,1913.34,547.0383,1892.75,542.0683,1900.35,530.3083" style="stroke:#000000;stroke-width:1.0;"/><text fill="#000000" font-family="sans-serif" font-size="13" lengthAdjust="spacing" textLength="74" x="1831.5" y="460.2166">implements</text></g><!--link MongoRepo to MongoDB--><g id="link_MongoRepo_MongoDB"><path d="M555.46,399.1183 C591.46,431.8583 657.76,492.1783 695.75,526.7383 " fill="none" id="MongoRepo-to-MongoDB" style="stroke:#000000;stroke-width:1.0;"/><polygon fill="#000000" points="699.12,529.8083,695.1426,520.7983,695.4171,526.4485,689.7669,526.723,699.12,529.8083" style="stroke:#000000;stroke-width:1.0;"/><text fill="#000000" font-family="sans-serif" font-size="13" lengthAdjust="spacing" textLength="74" x="622.68" y="460.2166">connects to</text></g><!--link PostgresRepo to PostgreSQL--><g id="link_PostgresRepo_PostgreSQL"><path d="M766.98,399.1183 C784.76,431.4583 817.32,490.7083 836.42,525.4683 " fill="none" id="PostgresRepo-to-PostgreSQL" style="stroke:#000000;stroke-width:1.0;"/><polygon fill="#000000" points="838.64,529.4983,837.8039,519.685,836.2288,525.1181,830.7956,523.543,838.64,529.4983" style="stroke:#000000;stroke-width:1.0;"/><text fill="#000000" font-family="sans-serif" font-size="13" lengthAdjust="spacing" textLength="74" x="801.09" y="460.2166">connects to</text></g><!--link SQLiteRepo to SQLite--><g id="link_SQLiteRepo_SQLite"><path d="M966.5,399.1183 C966.5,431.1983 966.5,489.7383 966.5,524.5983 " fill="none" id="SQLiteRepo-to-SQLite" style="stroke:#000000;stroke-width:1.0;"/><polygon fill="#000000" points="966.5,529.3083,970.5,520.3083,966.5,524.3083,962.5,520.3083,966.5,529.3083" style="stroke:#000000;stroke-width:1.0;"/><text fill="#000000" font-family="sans-serif" font-size="13" lengthAdjust="spacing" textLength="74" x="967.5" y="460.2166">connects to</text></g><!--link LoggingAdapter to LoggingService--><g id="link_LoggingAdapter_LoggingService"><path d="M1152.81,399.1183 C1143.41,431.0183 1126.3,489.0983 1116,524.0283 " fill="none" id="LoggingAdapter-to-LoggingService" style="stroke:#000000;stroke-width:1.0;"/><polygon fill="#000000" points="1114.59,528.8183,1120.9706,521.3157,1116.0031,524.0221,1113.2968,519.0547,1114.59,528.8183" style="stroke:#000000;stroke-width:1.0;"/><text fill="#000000" font-family="sans-serif" font-size="13" lengthAdjust="spacing" textLength="74" x="1139.16" y="460.2166">connects to</text></g><!--link CircuitBreakerAdapter to MonitoringService--><g id="link_CircuitBreakerAdapter_MonitoringService"><path d="M1692.55,399.0683 C1670.01,412.6483 1639.56,429.0783 1610.5,438.6483 C1515.76,469.8583 1478.47,428.5683 1388.5,471.6483 C1362.22,484.2283 1338.34,507.3783 1322.11,525.7583 " fill="none" id="CircuitBreakerAdapter-to-MonitoringService" style="stroke:#000000;stroke-width:1.0;"/><polygon fill="#000000" points="1319.15,529.1783,1328.0611,524.984,1322.4192,525.3951,1322.0081,519.7532,1319.15,529.1783" style="stroke:#000000;stroke-width:1.0;"/><text fill="#000000" font-family="sans-serif" font-size="13" lengthAdjust="spacing" textLength="62" x="1579.68" y="460.2166">reports to</text></g><!--link DomainCore to GMN43--><g id="link_DomainCore_GMN43"><path d="M2037.152,266.0995 C2037.2646,265.8846 2037.378,265.6702 2037.4921,265.4564 C2037.7202,265.0288 2037.9514,264.6034 2038.1855,264.1805 C2045.6769,250.6452 2056.2225,239.5258 2071,233.6583 C2103.68,220.6783 3303.11,224.2783 3337,233.6583 C3416.58,255.6783 3496.3,312.3883 3539.83,347.0283 " fill="none" id="DomainCore-GMN43" style="stroke:#000000;stroke-width:1.0;stroke-dasharray:7.0,7.0;"/></g><!--link PrimaryAdapters to GMN46--><g id="link_PrimaryAdapters_GMN46"><path d="M2966.948,87.3068 C2967.075,86.9883 2967.2037,86.6709 2967.3342,86.3545 C2967.5953,85.7218 2967.8635,85.0934 2968.1391,84.4697 C2969.2414,81.9752 2970.4613,79.5573 2971.8109,77.247 C2977.2094,68.0058 2984.6825,60.4858 2995,56.6683 C3030.64,43.4883 3299.7,49.3883 3337,56.6683 C3404.17,69.7883 3476.3,101.7883 3523.65,125.5183 " fill="none" id="PrimaryAdapters-GMN46" style="stroke:#000000;stroke-width:1.0;stroke-dasharray:7.0,7.0;"/></g><!--link SecondaryAdapters to GMN49--><g id="link_SecondaryAdapters_GMN49"><path d="M1862.275,309.0995 C1866.2775,278.0108 1877.755,245.2733 1907,233.6583 C1954.84,214.6683 3710.64,219.0583 3760,233.6583 C3834.79,255.7983 3908,312.4583 3947.8,347.0683 " fill="none" id="SecondaryAdapters-GMN49" style="stroke:#000000;stroke-width:1.0;stroke-dasharray:7.0,7.0;"/></g><!--link ExternalSystems to GMN52--><g id="link_ExternalSystems_GMN52"><path d="M1419.5,601.1866 C1419.5,601.3866 1419.5,601.587 1419.5,601.7877 C1419.5,602.5903 1419.5,603.3978 1419.5,604.2095 C1419.5,630.1858 1419.5,660.5783 1419.5,679.9183 " fill="none" id="ExternalSystems-GMN52" style="stroke:#000000;stroke-width:1.0;stroke-dasharray:7.0,7.0;"/></g><!--link ApplicationLayer to GMN55--><g id="link_ApplicationLayer_GMN55"><path d="M1958.6557,201.2901 C1958.5645,201.4892 1958.4721,201.6877 1958.3786,201.8856 C1958.1917,202.2814 1958.0001,202.6747 1957.8038,203.0653 C1957.4113,203.8463 1956.9999,204.6164 1956.5689,205.3734 C1955.7068,206.8873 1954.7662,208.3491 1953.7399,209.7428 C1951.6873,212.53 1949.2925,215.0445 1946.5,217.1583 C1912.74,242.7183 463.38,239.1083 422.5,250.1583 C350.59,269.5983 276.89,316.7883 234.52,347.0983 " fill="none" id="ApplicationLayer-GMN55" style="stroke:#000000;stroke-width:1.0;stroke-dasharray:7.0,7.0;"/></g><!--SRC=[VLTDSziu3BthLs1yQNA83ptsq9aaJZzcqbbltDdBpXve2PQveKWjISNrjFdl2uAKH4bE3vc4Zm_K0mY0Y7kMkXLMDF2p0BWJvNDjJQUhUwECXTDHUYJyrbfpYj1U4ITGZQtGJh5xqxH6e_OxVrO8NQFU4xgbJL5Zn2oMNkXQOV5Q55vwWZw9HgepxD2-o1BX1hxW3r4RBHHzjmmAIjzPXAkjiTw1q1NSLgBrQDrrKRo33HwaHl17XD8GxnZDY_GRLXlJ2Ab9dSKL20Tn7PRiT1lr3RnlfaAL4NdDJ82_azZRkhPO2u__15u41omojy9I9E11avTdfaKa0f5pVvIgoYaCv8o_XEeG_jZ_Iq5mJ64a0SHvfPyBJgHekioF7fgvCZN8_9bOyPTUP-4MRQjaARoaA2jnHbiCCcwphSUmnK8ob46MCiGqCrcgeTrUobn6otbn9JMbn46GXzV5y3UielaJjiP9R-nvDPuPm91KItgc9Nqry5QNvF01Cq5MDiAUGQGqXQlAoXUfwm6v7YErJUG-f_aZ2Uon6AVFLhJ7Fn_X2PrHBsWvEWdiiS1xUjXzfspNtXgb4YrW8nHOzuzVGy4sL4yniGZeruiGEooDhfO-eRxaqcvWJvmQuAbRtuokpUOEnYjYEGm7B72sndcghXrxFw6b7TSpYK8TOywAQCzvD7KTRYFfO4R24iG1CleWfwG8vHnHKdGcb83a36dBJdguioYUAUCdtBYNjdgZFFRuWv3G2TtPUMnSKIhJLR1wwF5Tn3c-FPWmZcublDWBHvUImhmQOhkvc-oF8LvbSQNbX1K3kHfZciSphzg4ZUqZt7Eua3bnXD-gRukAAz4TPUjeAsyKb54wT4Bm1YfkMCMYoTpSVCnw_kNzQKE03z0vT4lgUlthuyKEG1QoQHKsrE4TwuzjDHmJ6rIHFJjlVv4ij_FkGHkJLXkFcxU8ySo5ilxatRAA1z7fr6MDPYvdOgVENZWuNKoubqKI3wNDellw_v1VPf7NDTEo5Z1bZhNDlDG0ffnfTJDlcg0p_iNAxDLEqvKiBSOdY0n3UbOLQEFHHTzR5VA0dyjicYa20woiZnxC8KzFWE_4pMQM8CpJml4X-yvHNJW7ojIov6d8TWhTcWo_UgYuRDo5Dv6iXGVgH1gnOcsyAKfFbYVfZtoywRoJ5SB9M5Mj2zJHbsAcTvPyOSgRFMDmjKbltZ2i0RyOyyc1RFTdA8LIWJmVArm_jFWZpQKrYvGskhUEiJg70D7JvyT4i_XVXywFNWOmVCAzxT8Yy-dqvKCMtQ9dR_IAfZf8Ro4vGlh8C7DX7JMEXJQEBF6ogj4iTZ2-rD_KpyA7lV7UDC69sHD0HyvV2fOhzS4AvsqN9-kodziT9mbPpQ-XJnNNPqgyZELOy1jjysQQCdqnAOAXEg7Riu9hY2W7PKwmHtz23Eco6Az2l08lXI_y5x0EnS3DTzm8zqBCiNMbQpZGlp3pCpC__WS0]--></g></svg>