<?xml version="1.0" encoding="us-ascii" standalone="no"?><!-- Copyright (c) 2025 A Bit of Help, Inc. -->

<svg xmlns="http://www.w3.org/2000/svg" xmlns:xlink="http://www.w3.org/1999/xlink" contentStyleType="text/css" height="844px" preserveAspectRatio="none" style="width:1108px;height:844px;background:#FFFFFF;" version="1.1" viewBox="0 0 1108 844" width="1108px" zoomAndPan="magnify"><defs/><g><text fill="#000000" font-family="sans-serif" font-size="14" font-weight="bold" lengthAdjust="spacing" textLength="202" x="454.5" y="28.5352">Divorce Operation Sequence</text><rect fill="#FFFFFF" height="594.832" style="stroke:#181818;stroke-width:1.0;" width="10" x="282" y="150.2871"/><rect fill="#FFFFFF" height="536.2109" style="stroke:#181818;stroke-width:1.0;" width="10" x="563" y="179.5977"/><rect fill="#FFFFFF" height="125.8633" style="stroke:#181818;stroke-width:1.0;" width="10" x="757" y="326.1504"/><rect fill="#FFFFFF" height="87.9316" style="stroke:#181818;stroke-width:1.0;" width="10" x="899.5" y="208.9082"/><rect fill="#FFFFFF" height="87.9316" style="stroke:#181818;stroke-width:1.0;" width="10" x="899.5" y="481.3242"/><rect fill="#FFFFFF" height="87.9316" style="stroke:#181818;stroke-width:1.0;" width="10" x="899.5" y="598.5664"/><rect fill="#FFFFFF" height="29.3105" style="stroke:#181818;stroke-width:1.0;" width="10" x="1067.5" y="238.2188"/><rect fill="#FFFFFF" height="29.3105" style="stroke:#181818;stroke-width:1.0;" width="10" x="1067.5" y="510.6348"/><rect fill="#FFFFFF" height="29.3105" style="stroke:#181818;stroke-width:1.0;" width="10" x="1067.5" y="627.877"/><line style="stroke:#181818;stroke-width:0.5;stroke-dasharray:5.0,5.0;" x1="41" x2="41" y1="118.9766" y2="763.1191"/><line style="stroke:#181818;stroke-width:0.5;stroke-dasharray:5.0,5.0;" x1="287" x2="287" y1="118.9766" y2="763.1191"/><line style="stroke:#181818;stroke-width:0.5;stroke-dasharray:5.0,5.0;" x1="568" x2="568" y1="118.9766" y2="763.1191"/><line style="stroke:#181818;stroke-width:0.5;stroke-dasharray:5.0,5.0;" x1="762" x2="762" y1="118.9766" y2="763.1191"/><line style="stroke:#181818;stroke-width:0.5;stroke-dasharray:5.0,5.0;" x1="904" x2="904" y1="118.9766" y2="763.1191"/><line style="stroke:#181818;stroke-width:0.5;stroke-dasharray:5.0,5.0;" x1="1072" x2="1072" y1="118.9766" y2="763.1191"/><text fill="#000000" font-family="sans-serif" font-size="14" lengthAdjust="spacing" textLength="66" x="5" y="116.0234">API Client</text><ellipse cx="41" cy="50.9883" fill="#E2E2F0" rx="8" ry="8" style="stroke:#181818;stroke-width:0.5;"/><path d="M41,58.9883 L41,85.9883 M28,66.9883 L54,66.9883 M41,85.9883 L28,100.9883 M41,85.9883 L54,100.9883 " fill="none" style="stroke:#181818;stroke-width:0.5;"/><text fill="#000000" font-family="sans-serif" font-size="14" lengthAdjust="spacing" textLength="66" x="5" y="775.6543">API Client</text><ellipse cx="41" cy="787.1074" fill="#E2E2F0" rx="8" ry="8" style="stroke:#181818;stroke-width:0.5;"/><path d="M41,795.1074 L41,822.1074 M28,803.1074 L54,803.1074 M41,822.1074 L28,837.1074 M41,822.1074 L54,837.1074 " fill="none" style="stroke:#181818;stroke-width:0.5;"/><rect fill="#E2E2F0" height="30.4883" rx="2.5" ry="2.5" style="stroke:#181818;stroke-width:0.5;" width="136" x="219" y="87.4883"/><text fill="#000000" font-family="sans-serif" font-size="14" lengthAdjust="spacing" textLength="122" x="226" y="108.0234">GraphQL Resolver</text><rect fill="#E2E2F0" height="30.4883" rx="2.5" ry="2.5" style="stroke:#181818;stroke-width:0.5;" width="136" x="219" y="762.1191"/><text fill="#000000" font-family="sans-serif" font-size="14" lengthAdjust="spacing" textLength="122" x="226" y="782.6543">GraphQL Resolver</text><rect fill="#E2E2F0" height="30.4883" rx="2.5" ry="2.5" style="stroke:#181818;stroke-width:0.5;" width="106" x="515" y="87.4883"/><text fill="#000000" font-family="sans-serif" font-size="14" lengthAdjust="spacing" textLength="92" x="522" y="108.0234">FamilyService</text><rect fill="#E2E2F0" height="30.4883" rx="2.5" ry="2.5" style="stroke:#181818;stroke-width:0.5;" width="106" x="515" y="762.1191"/><text fill="#000000" font-family="sans-serif" font-size="14" lengthAdjust="spacing" textLength="92" x="522" y="782.6543">FamilyService</text><rect fill="#E2E2F0" height="30.4883" rx="2.5" ry="2.5" style="stroke:#181818;stroke-width:0.5;" width="134" x="695" y="87.4883"/><text fill="#000000" font-family="sans-serif" font-size="14" lengthAdjust="spacing" textLength="120" x="702" y="108.0234">Family Aggregate</text><rect fill="#E2E2F0" height="30.4883" rx="2.5" ry="2.5" style="stroke:#181818;stroke-width:0.5;" width="134" x="695" y="762.1191"/><text fill="#000000" font-family="sans-serif" font-size="14" lengthAdjust="spacing" textLength="120" x="702" y="782.6543">Family Aggregate</text><rect fill="#E2E2F0" height="30.4883" rx="2.5" ry="2.5" style="stroke:#181818;stroke-width:0.5;" width="131" x="839" y="87.4883"/><text fill="#000000" font-family="sans-serif" font-size="14" lengthAdjust="spacing" textLength="117" x="846" y="108.0234">FamilyRepository</text><rect fill="#E2E2F0" height="30.4883" rx="2.5" ry="2.5" style="stroke:#181818;stroke-width:0.5;" width="131" x="839" y="762.1191"/><text fill="#000000" font-family="sans-serif" font-size="14" lengthAdjust="spacing" textLength="117" x="846" y="782.6543">FamilyRepository</text><text fill="#000000" font-family="sans-serif" font-size="14" lengthAdjust="spacing" textLength="63" x="1038" y="116.0234">Database</text><path d="M1054.5,66.4883 C1054.5,56.4883 1072.5,56.4883 1072.5,56.4883 C1072.5,56.4883 1090.5,56.4883 1090.5,66.4883 L1090.5,92.4883 C1090.5,102.4883 1072.5,102.4883 1072.5,102.4883 C1072.5,102.4883 1054.5,102.4883 1054.5,92.4883 L1054.5,66.4883 " fill="#E2E2F0" style="stroke:#181818;stroke-width:1.5;"/><path d="M1054.5,66.4883 C1054.5,76.4883 1072.5,76.4883 1072.5,76.4883 C1072.5,76.4883 1090.5,76.4883 1090.5,66.4883 " fill="none" style="stroke:#181818;stroke-width:1.5;"/><text fill="#000000" font-family="sans-serif" font-size="14" lengthAdjust="spacing" textLength="63" x="1038" y="775.6543">Database</text><path d="M1054.5,788.6074 C1054.5,778.6074 1072.5,778.6074 1072.5,778.6074 C1072.5,778.6074 1090.5,778.6074 1090.5,788.6074 L1090.5,814.6074 C1090.5,824.6074 1072.5,824.6074 1072.5,824.6074 C1072.5,824.6074 1054.5,824.6074 1054.5,814.6074 L1054.5,788.6074 " fill="#E2E2F0" style="stroke:#181818;stroke-width:1.5;"/><path d="M1054.5,788.6074 C1054.5,798.6074 1072.5,798.6074 1072.5,798.6074 C1072.5,798.6074 1090.5,798.6074 1090.5,788.6074 " fill="none" style="stroke:#181818;stroke-width:1.5;"/><rect fill="#FFFFFF" height="594.832" style="stroke:#181818;stroke-width:1.0;" width="10" x="282" y="150.2871"/><rect fill="#FFFFFF" height="536.2109" style="stroke:#181818;stroke-width:1.0;" width="10" x="563" y="179.5977"/><rect fill="#FFFFFF" height="125.8633" style="stroke:#181818;stroke-width:1.0;" width="10" x="757" y="326.1504"/><rect fill="#FFFFFF" height="87.9316" style="stroke:#181818;stroke-width:1.0;" width="10" x="899.5" y="208.9082"/><rect fill="#FFFFFF" height="87.9316" style="stroke:#181818;stroke-width:1.0;" width="10" x="899.5" y="481.3242"/><rect fill="#FFFFFF" height="87.9316" style="stroke:#181818;stroke-width:1.0;" width="10" x="899.5" y="598.5664"/><rect fill="#FFFFFF" height="29.3105" style="stroke:#181818;stroke-width:1.0;" width="10" x="1067.5" y="238.2188"/><rect fill="#FFFFFF" height="29.3105" style="stroke:#181818;stroke-width:1.0;" width="10" x="1067.5" y="510.6348"/><rect fill="#FFFFFF" height="29.3105" style="stroke:#181818;stroke-width:1.0;" width="10" x="1067.5" y="627.877"/><polygon fill="#181818" points="270,146.2871,280,150.2871,270,154.2871,274,150.2871" style="stroke:#181818;stroke-width:1.0;"/><line style="stroke:#181818;stroke-width:1.0;" x1="41" x2="276" y1="150.2871" y2="150.2871"/><text fill="#000000" font-family="sans-serif" font-size="13" lengthAdjust="spacing" textLength="222" x="48" y="145.5449">divorce(familyId, custodialParentId)</text><polygon fill="#181818" points="551,175.5977,561,179.5977,551,183.5977,555,179.5977" style="stroke:#181818;stroke-width:1.0;"/><line style="stroke:#181818;stroke-width:1.0;" x1="292" x2="557" y1="179.5977" y2="179.5977"/><text fill="#000000" font-family="sans-serif" font-size="13" lengthAdjust="spacing" textLength="252" x="299" y="174.8555">Divorce(ctx, familyId, custodialParentId)</text><polygon fill="#181818" points="887.5,204.9082,897.5,208.9082,887.5,212.9082,891.5,208.9082" style="stroke:#181818;stroke-width:1.0;"/><line style="stroke:#181818;stroke-width:1.0;" x1="573" x2="893.5" y1="208.9082" y2="208.9082"/><text fill="#000000" font-family="sans-serif" font-size="13" lengthAdjust="spacing" textLength="136" x="580" y="204.166">GetByID(ctx, familyId)</text><polygon fill="#181818" points="1055.5,234.2188,1065.5,238.2188,1055.5,242.2188,1059.5,238.2188" style="stroke:#181818;stroke-width:1.0;"/><line style="stroke:#181818;stroke-width:1.0;" x1="909.5" x2="1061.5" y1="238.2188" y2="238.2188"/><text fill="#000000" font-family="sans-serif" font-size="13" lengthAdjust="spacing" textLength="117" x="916.5" y="233.4766">Query family by ID</text><polygon fill="#181818" points="920.5,263.5293,910.5,267.5293,920.5,271.5293,916.5,267.5293" style="stroke:#181818;stroke-width:1.0;"/><line style="stroke:#181818;stroke-width:1.0;stroke-dasharray:2.0,2.0;" x1="914.5" x2="1071.5" y1="267.5293" y2="267.5293"/><text fill="#000000" font-family="sans-serif" font-size="13" lengthAdjust="spacing" textLength="72" x="926.5" y="262.7871">Family data</text><polygon fill="#181818" points="584,292.8398,574,296.8398,584,300.8398,580,296.8398" style="stroke:#181818;stroke-width:1.0;"/><line style="stroke:#181818;stroke-width:1.0;stroke-dasharray:2.0,2.0;" x1="578" x2="903.5" y1="296.8398" y2="296.8398"/><text fill="#000000" font-family="sans-serif" font-size="13" lengthAdjust="spacing" textLength="84" x="590" y="292.0977">Family object</text><polygon fill="#181818" points="745,322.1504,755,326.1504,745,330.1504,749,326.1504" style="stroke:#181818;stroke-width:1.0;"/><line style="stroke:#181818;stroke-width:1.0;" x1="573" x2="751" y1="326.1504" y2="326.1504"/><text fill="#000000" font-family="sans-serif" font-size="13" lengthAdjust="spacing" textLength="165" x="580" y="321.4082">Divorce(custodialParentId)</text><path d="M772,339.1504 L772,425.1504 L1095,425.1504 L1095,349.1504 L1085,339.1504 L772,339.1504 " fill="#FEFFDD" style="stroke:#181818;stroke-width:0.5;"/><path d="M1085,339.1504 L1085,349.1504 L1095,349.1504 L1085,339.1504 " fill="#FEFFDD" style="stroke:#181818;stroke-width:0.5;"/><text fill="#000000" font-family="sans-serif" font-size="13" lengthAdjust="spacing" textLength="244" x="778" y="356.7188">1. Validate family is in MARRIED status</text><text fill="#000000" font-family="sans-serif" font-size="13" lengthAdjust="spacing" textLength="149" x="778" y="372.0293">2. Find custodial parent</text><text fill="#000000" font-family="sans-serif" font-size="13" lengthAdjust="spacing" textLength="256" x="778" y="387.3398">3. Create new family for custodial parent</text><text fill="#000000" font-family="sans-serif" font-size="13" lengthAdjust="spacing" textLength="193" x="778" y="402.6504">4. Move children to new family</text><text fill="#000000" font-family="sans-serif" font-size="13" lengthAdjust="spacing" textLength="302" x="778" y="417.9609">5. Update status of original family to DIVORCED</text><polygon fill="#181818" points="584,448.0137,574,452.0137,584,456.0137,580,452.0137" style="stroke:#181818;stroke-width:1.0;"/><line style="stroke:#181818;stroke-width:1.0;stroke-dasharray:2.0,2.0;" x1="578" x2="761" y1="452.0137" y2="452.0137"/><text fill="#000000" font-family="sans-serif" font-size="13" lengthAdjust="spacing" textLength="115" x="590" y="447.2715">New Family object</text><polygon fill="#181818" points="887.5,477.3242,897.5,481.3242,887.5,485.3242,891.5,481.3242" style="stroke:#181818;stroke-width:1.0;"/><line style="stroke:#181818;stroke-width:1.0;" x1="573" x2="893.5" y1="481.3242" y2="481.3242"/><text fill="#000000" font-family="sans-serif" font-size="13" lengthAdjust="spacing" textLength="153" x="580" y="476.582">Save(ctx, originalFamily)</text><polygon fill="#181818" points="1055.5,506.6348,1065.5,510.6348,1055.5,514.6348,1059.5,510.6348" style="stroke:#181818;stroke-width:1.0;"/><line style="stroke:#181818;stroke-width:1.0;" x1="909.5" x2="1061.5" y1="510.6348" y2="510.6348"/><text fill="#000000" font-family="sans-serif" font-size="13" lengthAdjust="spacing" textLength="139" x="916.5" y="505.8926">Update original family</text><polygon fill="#181818" points="920.5,535.9453,910.5,539.9453,920.5,543.9453,916.5,539.9453" style="stroke:#181818;stroke-width:1.0;"/><line style="stroke:#181818;stroke-width:1.0;stroke-dasharray:2.0,2.0;" x1="914.5" x2="1071.5" y1="539.9453" y2="539.9453"/><text fill="#000000" font-family="sans-serif" font-size="13" lengthAdjust="spacing" textLength="50" x="926.5" y="535.2031">Success</text><polygon fill="#181818" points="584,565.2559,574,569.2559,584,573.2559,580,569.2559" style="stroke:#181818;stroke-width:1.0;"/><line style="stroke:#181818;stroke-width:1.0;stroke-dasharray:2.0,2.0;" x1="578" x2="903.5" y1="569.2559" y2="569.2559"/><text fill="#000000" font-family="sans-serif" font-size="13" lengthAdjust="spacing" textLength="50" x="590" y="564.5137">Success</text><polygon fill="#181818" points="887.5,594.5664,897.5,598.5664,887.5,602.5664,891.5,598.5664" style="stroke:#181818;stroke-width:1.0;"/><line style="stroke:#181818;stroke-width:1.0;" x1="573" x2="893.5" y1="598.5664" y2="598.5664"/><text fill="#000000" font-family="sans-serif" font-size="13" lengthAdjust="spacing" textLength="130" x="580" y="593.8242">Save(ctx, newFamily)</text><polygon fill="#181818" points="1055.5,623.877,1065.5,627.877,1055.5,631.877,1059.5,627.877" style="stroke:#181818;stroke-width:1.0;"/><line style="stroke:#181818;stroke-width:1.0;" x1="909.5" x2="1061.5" y1="627.877" y2="627.877"/><text fill="#000000" font-family="sans-serif" font-size="13" lengthAdjust="spacing" textLength="108" x="916.5" y="623.1348">Insert new family</text><polygon fill="#181818" points="920.5,653.1875,910.5,657.1875,920.5,661.1875,916.5,657.1875" style="stroke:#181818;stroke-width:1.0;"/><line style="stroke:#181818;stroke-width:1.0;stroke-dasharray:2.0,2.0;" x1="914.5" x2="1071.5" y1="657.1875" y2="657.1875"/><text fill="#000000" font-family="sans-serif" font-size="13" lengthAdjust="spacing" textLength="50" x="926.5" y="652.4453">Success</text><polygon fill="#181818" points="584,682.498,574,686.498,584,690.498,580,686.498" style="stroke:#181818;stroke-width:1.0;"/><line style="stroke:#181818;stroke-width:1.0;stroke-dasharray:2.0,2.0;" x1="578" x2="903.5" y1="686.498" y2="686.498"/><text fill="#000000" font-family="sans-serif" font-size="13" lengthAdjust="spacing" textLength="50" x="590" y="681.7559">Success</text><polygon fill="#181818" points="303,711.8086,293,715.8086,303,719.8086,299,715.8086" style="stroke:#181818;stroke-width:1.0;"/><line style="stroke:#181818;stroke-width:1.0;stroke-dasharray:2.0,2.0;" x1="297" x2="567" y1="715.8086" y2="715.8086"/><text fill="#000000" font-family="sans-serif" font-size="13" lengthAdjust="spacing" textLength="115" x="309" y="711.0664">New Family object</text><polygon fill="#181818" points="52,741.1191,42,745.1191,52,749.1191,48,745.1191" style="stroke:#181818;stroke-width:1.0;"/><line style="stroke:#181818;stroke-width:1.0;stroke-dasharray:2.0,2.0;" x1="46" x2="286" y1="745.1191" y2="745.1191"/><text fill="#000000" font-family="sans-serif" font-size="13" lengthAdjust="spacing" textLength="103" x="58" y="740.377">New Family data</text><!--SRC=[lLJBRjim4BppAnO-fK0Y87rSV2ZWMaaWe6aI6ysT8jSs2vLKoPLQ_NqfaR8UTjAUSX5MvEpix719BiXOMAmUCrWN2ZKjW3iGNSXARaa9LN9DiBYpl3myVOKDEbFKQ3kWZJzJw2t_gOfcYxPM0ZkS2_4v6ApsUujxJW6vwnRF0JTO6gUyt2QMBWsJd7ZE7S8YZL6t9tF6I561aAhQM87mKABbf8o6BVwgK7ijB7G9Lv-FRIn11ln5a979In2L8oCLBnwvzV1ClcDSaAgzuA5zraSjMsnssHU_4FJd4lwFiJUAnI2eAyqIxf2-D5aw9PjeyNwmzjlco7m9JnNQ9a8XRo1B1xHtIEPmTMIFPz7woIIEOP5ot5S4c_m72Xh3WuQHz51yvCGhhSUJPzgqJ6f_832xVXNWEe5dNYWvG44vK1hkLvjDTfE28qwLyyZt2TmgBGUVeUog-QqF2QmjjXGQV_SqEty3pc0_9d1lQWHnK8NqQq1cbEK1dnBuNdPwGkbMhl72bVOqaTldfDdpmsPzapBqcjhc68kR4rE_UUeNZUszEPcABQ_ZVFML0yTyCCPp4KNFfBuy6zjA27HkDXUdOt46Tp8GSzNUq7yBphHdeB7vRw1ryYoyUZZ7Epiy0Zuvl2wJrFdjEZuVVm40]--></g></svg>