<?xml version="1.0" encoding="us-ascii" standalone="no"?><!-- Copyright (c) 2025 A Bit of Help, Inc. -->

<svg xmlns="http://www.w3.org/2000/svg" xmlns:xlink="http://www.w3.org/1999/xlink" contentStyleType="text/css" height="345px" preserveAspectRatio="none" style="width:1730px;height:345px;background:#FFFFFF;" version="1.1" viewBox="0 0 1730 345" width="1730px" zoomAndPan="magnify"><defs/><g><!--cluster Family Service GraphQL--><g id="cluster_Family Service GraphQL"><rect fill="none" height="208.46" rx="2.5" ry="2.5" style="stroke:#181818;stroke-width:1.0;" width="1343" x="7" y="130.99"/><text fill="#000000" font-family="sans-serif" font-size="14" font-weight="bold" lengthAdjust="spacing" textLength="170" x="593.5" y="146.5252">Family Service GraphQL</text></g><g id="elem_UC1"><ellipse cx="583.9992" cy="307.0938" fill="#F1F1F1" rx="69.8192" ry="16.3638" style="stroke:#181818;stroke-width:0.5;"/><text fill="#000000" font-family="sans-serif" font-size="14" lengthAdjust="spacing" textLength="93" x="535.6053" y="310.8673">Create Family</text></g><g id="elem_UC2"><ellipse cx="751.0008" cy="307.0922" fill="#F1F1F1" rx="62.1108" ry="14.8222" style="stroke:#181818;stroke-width:0.5;"/><text fill="#000000" font-family="sans-serif" font-size="14" lengthAdjust="spacing" textLength="71" x="712.5008" y="311.1097">Get Family</text></g><g id="elem_UC3"><ellipse cx="671.9987" cy="187.8837" fill="#F1F1F1" rx="63.7687" ry="15.1537" style="stroke:#181818;stroke-width:0.5;"/><text fill="#000000" font-family="sans-serif" font-size="14" lengthAdjust="spacing" textLength="76" x="630.9987" y="191.9013">Add Parent</text></g><g id="elem_UC4"><ellipse cx="830.9966" cy="187.884" fill="#F1F1F1" rx="60.1266" ry="14.774" style="stroke:#181818;stroke-width:0.5;"/><text fill="#000000" font-family="sans-serif" font-size="14" lengthAdjust="spacing" textLength="68" x="793.9966" y="191.9016">Add Child</text></g><g id="elem_UC5"><ellipse cx="278.999" cy="187.8798" fill="#F1F1F1" rx="70.199" ry="16.4398" style="stroke:#181818;stroke-width:0.5;"/><text fill="#000000" font-family="sans-serif" font-size="14" lengthAdjust="spacing" textLength="94" x="230.3115" y="191.6047">Remove Child</text></g><g id="elem_UC6"><ellipse cx="479.0012" cy="187.8762" fill="#F1F1F1" rx="94.3312" ry="21.2662" style="stroke:#181818;stroke-width:0.5;"/><text fill="#000000" font-family="sans-serif" font-size="14" lengthAdjust="spacing" textLength="151" x="403.5012" y="191.1673">Mark Parent Deceased</text></g><g id="elem_UC7"><ellipse cx="98.0037" cy="187.8767" fill="#F1F1F1" rx="75.3837" ry="17.4767" style="stroke:#181818;stroke-width:0.5;"/><text fill="#000000" font-family="sans-serif" font-size="14" lengthAdjust="spacing" textLength="107" x="44.5037" y="191.1678">Process Divorce</text></g><g id="elem_UC8"><ellipse cx="1023.9977" cy="187.8835" fill="#F1F1F1" rx="97.4677" ry="21.8935" style="stroke:#181818;stroke-width:0.5;"/><text fill="#000000" font-family="sans-serif" font-size="14" lengthAdjust="spacing" textLength="158" x="944.9977" y="191.1746">Find Families by Parent</text></g><g id="elem_UC9"><ellipse cx="1245.0012" cy="187.8762" fill="#F1F1F1" rx="88.5812" ry="20.1162" style="stroke:#181818;stroke-width:0.5;"/><text fill="#000000" font-family="sans-serif" font-size="14" lengthAdjust="spacing" textLength="138" x="1176.0012" y="191.1673">Find Family by Child</text></g><!--entity client--><g id="elem_client"><ellipse cx="831" cy="22" fill="#F1F1F1" rx="16" ry="16" style="stroke:#181818;stroke-width:1.5;"/><path d="M831,42 C835,42 838,42 842,38 C850,38 858,46 858,54 L858,58 C858,62 854,66 850,66 L812,66 C808,66 804,62 804,58 L804,54 C804,46 812,38 820,38 C824,42 827,42 831,42 " fill="#F1F1F1" style="stroke:#181818;stroke-width:1.5;"/><text fill="#000000" font-family="sans-serif" font-size="14" lengthAdjust="spacing" textLength="66" x="798" y="81.0352">API Client</text></g><g id="elem_GMN27"><path d="M1366,286.78 L1366,327.4011 L1552,327.4011 L1552,296.78 L1542,286.78 L1366,286.78 " fill="#FEFFDD" style="stroke:#181818;stroke-width:0.5;"/><path d="M1542,286.78 L1542,296.78 L1552,296.78 L1542,286.78 " fill="#FEFFDD" style="stroke:#181818;stroke-width:1.0;"/><text fill="#000000" font-family="sans-serif" font-size="13" lengthAdjust="spacing" textLength="161" x="1372" y="304.3484">Creates a new family with</text><text fill="#000000" font-family="sans-serif" font-size="13" lengthAdjust="spacing" textLength="129" x="1372" y="319.6589">parents and children</text></g><g id="elem_GMN30"><path d="M1368.5,167.57 L1368.5,208.1911 L1601.5,208.1911 L1601.5,177.57 L1591.5,167.57 L1368.5,167.57 " fill="#FEFFDD" style="stroke:#181818;stroke-width:0.5;"/><path d="M1591.5,167.57 L1591.5,177.57 L1601.5,177.57 L1591.5,167.57 " fill="#FEFFDD" style="stroke:#181818;stroke-width:1.0;"/><text fill="#000000" font-family="sans-serif" font-size="13" lengthAdjust="spacing" textLength="152" x="1374.5" y="185.1384">Creates a new family for</text><text fill="#000000" font-family="sans-serif" font-size="13" lengthAdjust="spacing" textLength="212" x="1374.5" y="200.4489">the custodial parent with children</text></g><!--link client to UC1--><g id="link_client_UC1"><path d="M864.34,45.96 C1007.79,49.35 1567.54,66.2 1619,122.99 C1644.9,151.57 1645.15,181.42 1619,209.78 C1547.36,287.47 775.5,271.01 671,286.78 C659.77,288.47 647.83,290.78 636.5,293.21 " fill="none" id="client-to-UC1" style="stroke:#181818;stroke-width:1.0;"/><polygon fill="#181818" points="631.76,294.25,641.4079,296.2293,636.6439,293.179,639.6943,288.415,631.76,294.25" style="stroke:#181818;stroke-width:1.0;"/></g><!--link client to UC2--><g id="link_client_UC2"><path d="M864.34,45.34 C1014.59,46.12 1623.79,53.05 1680,113.99 C1723.02,160.64 1723.67,210.73 1680,256.78 C1665.18,272.4 1030.18,296.22 818.71,303.73 " fill="none" id="client-to-UC2" style="stroke:#181818;stroke-width:1.0;"/><polygon fill="#181818" points="813.79,303.91,822.9218,307.5993,818.7871,303.7387,822.6477,299.604,813.79,303.91" style="stroke:#181818;stroke-width:1.0;"/></g><!--link client to UC3--><g id="link_client_UC3"><path d="M797.67,74.94 C765.95,103.19 719.23,144.81 692.59,168.54 " fill="none" id="client-to-UC3" style="stroke:#181818;stroke-width:1.0;"/><polygon fill="#181818" points="688.99,171.75,698.3734,168.7581,692.7263,168.4273,693.0571,162.7801,688.99,171.75" style="stroke:#181818;stroke-width:1.0;"/></g><!--link client to UC4--><g id="link_client_UC4"><path d="M831,84.32 C831,110.92 831,145.05 831,166.45 " fill="none" id="client-to-UC4" style="stroke:#181818;stroke-width:1.0;"/><polygon fill="#181818" points="831,171.41,835,162.41,831,166.41,827,162.41,831,171.41" style="stroke:#181818;stroke-width:1.0;"/></g><!--link client to UC5--><g id="link_client_UC5"><path d="M797.5,45.66 C719.09,47.73 518.78,59.35 367,122.99 C341.54,133.67 316.45,153 299.61,167.61 " fill="none" id="client-to-UC5" style="stroke:#181818;stroke-width:1.0;"/><polygon fill="#181818" points="296.23,170.59,305.6317,167.6561,299.9867,167.2904,300.3524,161.6454,296.23,170.59" style="stroke:#181818;stroke-width:1.0;"/></g><!--link client to UC6--><g id="link_client_UC6"><path d="M797.6,53.73 C750.49,66.21 662.32,91.49 591,122.99 C564.38,134.74 535.92,151.03 514.35,164.22 " fill="none" id="client-to-UC6" style="stroke:#181818;stroke-width:1.0;"/><polygon fill="#181818" points="510.31,166.71,520.0725,165.4089,514.5707,164.0935,515.8861,158.5917,510.31,166.71" style="stroke:#181818;stroke-width:1.0;"/></g><!--link client to UC7--><g id="link_client_UC7"><path d="M797.69,47.19 C682.84,54.22 304.2,80.19 191,122.99 C164.7,132.93 138.67,151.8 120.86,166.47 " fill="none" id="client-to-UC7" style="stroke:#181818;stroke-width:1.0;"/><polygon fill="#181818" points="117.22,169.51,126.6898,166.8039,121.0553,166.3021,121.5571,160.6675,117.22,169.51" style="stroke:#181818;stroke-width:1.0;"/></g><!--link client to UC8--><g id="link_client_UC8"><path d="M864.18,69.59 C899.72,95.68 955.78,136.82 991.18,162.8 " fill="none" id="client-to-UC8" style="stroke:#181818;stroke-width:1.0;"/><polygon fill="#181818" points="995.03,165.62,990.1273,157.0781,990.9944,162.6681,985.4043,163.5352,995.03,165.62" style="stroke:#181818;stroke-width:1.0;"/></g><!--link client to UC9--><g id="link_client_UC9"><path d="M864.39,50.34 C922.05,59.87 1043.3,83.11 1139,122.99 C1165.58,134.07 1193.38,151.06 1213.84,164.73 " fill="none" id="client-to-UC9" style="stroke:#181818;stroke-width:1.0;"/><polygon fill="#181818" points="1217.89,167.47,1212.6732,159.1163,1213.7474,164.6702,1208.1935,165.7444,1217.89,167.47" style="stroke:#181818;stroke-width:1.0;"/></g><!--link UC7 to UC1--><g id="link_UC7_UC1"><path d="M148.76,201.16 C205.03,214.77 298.5,237.37 379,256.78 C430.45,269.18 489.17,283.3 530.54,293.24 " fill="none" id="UC7-to-UC1" style="stroke:#181818;stroke-width:1.0;stroke-dasharray:7.0,7.0;"/><polygon fill="#181818" points="535.3,294.39,527.4887,288.3914,530.4394,293.2177,525.613,296.1684,535.3,294.39" style="stroke:#181818;stroke-width:1.0;"/><text fill="#000000" font-family="sans-serif" font-size="13" lengthAdjust="spacing" textLength="60" x="380" y="253.3484">&#171;include&#187;</text></g><!--link UC3 to UC2--><g id="link_UC3_UC2"><path d="M675.46,203.3 C679.37,217.7 686.7,240.04 698,256.78 C706.03,268.68 717.46,279.79 727.65,288.43 " fill="none" id="UC3-to-UC2" style="stroke:#181818;stroke-width:1.0;stroke-dasharray:7.0,7.0;"/><polygon fill="#181818" points="731.36,291.51,726.968,282.6946,727.5049,288.326,721.8736,288.8628,731.36,291.51" style="stroke:#181818;stroke-width:1.0;"/><text fill="#000000" font-family="sans-serif" font-size="13" lengthAdjust="spacing" textLength="60" x="699" y="253.3484">&#171;include&#187;</text></g><!--link UC4 to UC2--><g id="link_UC4_UC2"><path d="M821.51,202.79 C807.25,223.67 780.28,263.2 764.14,286.84 " fill="none" id="UC4-to-UC2" style="stroke:#181818;stroke-width:1.0;stroke-dasharray:7.0,7.0;"/><polygon fill="#181818" points="761.33,290.95,769.7166,285.7862,764.156,286.8252,763.1169,281.2646,761.33,290.95" style="stroke:#181818;stroke-width:1.0;"/><text fill="#000000" font-family="sans-serif" font-size="13" lengthAdjust="spacing" textLength="60" x="796.79" y="253.3484">&#171;include&#187;</text></g><!--link UC5 to UC2--><g id="link_UC5_UC2"><path d="M319.03,201.68 C365.57,216.26 444.82,240.21 514,256.78 C583.09,273.32 601.56,271.77 671,286.78 C681.51,289.05 692.75,291.65 703.38,294.2 " fill="none" id="UC5-to-UC2" style="stroke:#181818;stroke-width:1.0;stroke-dasharray:7.0,7.0;"/><polygon fill="#181818" points="708.09,295.33,700.2787,289.3314,703.2294,294.1577,698.403,297.1084,708.09,295.33" style="stroke:#181818;stroke-width:1.0;"/><text fill="#000000" font-family="sans-serif" font-size="13" lengthAdjust="spacing" textLength="60" x="515" y="253.3484">&#171;include&#187;</text></g><!--link UC6 to UC2--><g id="link_UC6_UC2"><path d="M515.7,207.85 C543.69,222.03 583.37,241.52 619,256.78 C649.42,269.8 684.55,282.83 710.91,292.22 " fill="none" id="UC6-to-UC2" style="stroke:#181818;stroke-width:1.0;stroke-dasharray:7.0,7.0;"/><polygon fill="#181818" points="715.31,293.78,708.164,287.0025,710.5974,292.1092,705.4907,294.5426,715.31,293.78" style="stroke:#181818;stroke-width:1.0;"/><text fill="#000000" font-family="sans-serif" font-size="13" lengthAdjust="spacing" textLength="60" x="620" y="253.3484">&#171;include&#187;</text></g><!--link UC1 to GMN27--><g id="link_UC1_GMN27"><path d="M604.61,291.22 C624.74,276.8 656.88,256.56 688.5,248.28 C826.94,212 1192.76,217.38 1332.5,248.28 C1365.61,255.6 1400.34,272.5 1425.01,286.31 " fill="none" id="UC1-GMN27" style="stroke:#181818;stroke-width:1.0;stroke-dasharray:7.0,7.0;"/></g><!--link UC7 to GMN30--><g id="link_UC7_GMN30"><path d="M113.52,170.52 C133.23,149.93 169.4,116.71 208.5,103.49 C267.65,83.48 1272.04,87.87 1332.5,103.49 C1380.11,115.78 1428.72,146.47 1457.88,167.25 " fill="none" id="UC7-GMN30" style="stroke:#181818;stroke-width:1.0;stroke-dasharray:7.0,7.0;"/></g><!--SRC=[TP9VQy8m5CNVyoakVLUO_nqYI4KPRE0cVe2xz6g3QLAIg9InxxxOLcbqVUlfx-Javd3jKQWS3MQ0t6cpTOKam0jPdH6pTvWZF-A1Aco8ErG7IOoLXo1QRDuWbeAKYm0jyFAJiRiHeXLcGXQm9NCMd61jC4y_toFuOG0dInojDyM6q15KtZ9f5xyq3Mjo8UqrwI99O8FcDiKkxZ_IE1KogU6W2RyeqsSA-B39Fz0SwsnO4YV_y-ORDNqRepbP2qjnrePJRHatBIkXakeHWYny5-78a_-jnTNOd6xAVXchUePEPruM5SXUAFkX78Ho6CfHACUXd8HoofYtGBTR3W6lC9i9nUKfeVdSatvDUazaq4g6hMJKGfZIVd6CEAGEzBvUcsgTB20eki2-wl4YN0eUvcNh7lgA-RLOBnbvSKrwpXktvUtz_dlcKW9-iaud0cKTNjtr7Fu7]--></g></svg>