<?xml version="1.0" encoding="us-ascii" standalone="no"?><svg xmlns="http://www.w3.org/2000/svg" xmlns:xlink="http://www.w3.org/1999/xlink" contentStyleType="text/css" height="341px" preserveAspectRatio="none" style="width:1325px;height:341px;background:#FFFFFF;" version="1.1" viewBox="0 0 1325 341" width="1325px" zoomAndPan="magnify"><defs/><g><!--class FamilyStatus--><g id="elem_FamilyStatus"><rect codeLine="8" fill="#FFFFFF" height="130.4414" id="FamilyStatus" rx="2.5" ry="2.5" style="stroke:#000000;stroke-width:0.5;" width="118" x="1200.5" y="203.78"/><ellipse cx="1215.5" cy="219.78" fill="#EB937F" rx="11" ry="11" style="stroke:#181818;stroke-width:1.0;"/><path d="M1219.1143,226.28 L1211.3945,226.28 L1211.3945,213.8869 L1219.1143,213.8869 L1219.1143,216.0451 L1213.8433,216.0451 L1213.8433,218.718 L1218.6162,218.718 L1218.6162,220.8762 L1213.8433,220.8762 L1213.8433,224.1218 L1219.1143,224.1218 Z " fill="#000000"/><text fill="#000000" font-family="sans-serif" font-size="14" lengthAdjust="spacing" textLength="86" x="1229.5" y="225.071">FamilyStatus</text><line style="stroke:#000000;stroke-width:0.5;" x1="1201.5" x2="1317.5" y1="235.78" y2="235.78"/><text fill="#000000" font-family="sans-serif" font-size="14" lengthAdjust="spacing" textLength="47" x="1206.5" y="253.3152">SINGLE</text><text fill="#000000" font-family="sans-serif" font-size="14" lengthAdjust="spacing" textLength="62" x="1206.5" y="269.8034">MARRIED</text><text fill="#000000" font-family="sans-serif" font-size="14" lengthAdjust="spacing" textLength="71" x="1206.5" y="286.2917">DIVORCED</text><text fill="#000000" font-family="sans-serif" font-size="14" lengthAdjust="spacing" textLength="67" x="1206.5" y="302.78">WIDOWED</text><text fill="#000000" font-family="sans-serif" font-size="14" lengthAdjust="spacing" textLength="87" x="1206.5" y="319.2683">ABANDONED</text><line style="stroke:#000000;stroke-width:0.5;" x1="1201.5" x2="1317.5" y1="326.2214" y2="326.2214"/></g><!--class Family--><g id="elem_Family"><rect codeLine="16" fill="#FFFFFF" height="80.9766" id="Family" rx="2.5" ry="2.5" style="stroke:#000000;stroke-width:0.5;" width="147" x="629" y="7"/><ellipse cx="676.25" cy="23" fill="#ADD1B2" rx="11" ry="11" style="stroke:#181818;stroke-width:1.0;"/><path d="M678.7231,29.1431 Q678.1421,29.4419 677.5029,29.5913 Q676.8638,29.7407 676.1582,29.7407 Q673.6514,29.7407 672.3315,28.0889 Q671.0117,26.437 671.0117,23.3159 Q671.0117,20.1865 672.3315,18.5347 Q673.6514,16.8828 676.1582,16.8828 Q676.8638,16.8828 677.5112,17.0322 Q678.1587,17.1816 678.7231,17.4805 L678.7231,20.2031 Q678.0923,19.6221 677.4988,19.3523 Q676.9053,19.0825 676.2744,19.0825 Q674.9297,19.0825 674.2449,20.1492 Q673.5601,21.2158 673.5601,23.3159 Q673.5601,25.4077 674.2449,26.4744 Q674.9297,27.541 676.2744,27.541 Q676.9053,27.541 677.4988,27.2712 Q678.0923,27.0015 678.7231,26.4204 Z " fill="#000000"/><text fill="#000000" font-family="sans-serif" font-size="14" lengthAdjust="spacing" textLength="44" x="696.75" y="28.291">Family</text><line style="stroke:#000000;stroke-width:0.5;" x1="630" x2="775" y1="39" y2="39"/><text fill="#000000" font-family="sans-serif" font-size="14" lengthAdjust="spacing" textLength="61" x="635" y="56.5352">id: string</text><text fill="#000000" font-family="sans-serif" font-size="14" lengthAdjust="spacing" textLength="135" x="635" y="73.0234">status: FamilyStatus</text><line style="stroke:#000000;stroke-width:0.5;" x1="630" x2="775" y1="79.9766" y2="79.9766"/></g><!--class Parent--><g id="elem_Parent"><rect codeLine="21" fill="#FFFFFF" height="130.4414" id="Parent" rx="2.5" ry="2.5" style="stroke:#000000;stroke-width:0.5;" width="191" x="7" y="204"/><ellipse cx="76.25" cy="220" fill="#ADD1B2" rx="11" ry="11" style="stroke:#181818;stroke-width:1.0;"/><path d="M78.7231,226.1431 Q78.1421,226.4419 77.5029,226.5913 Q76.8638,226.7407 76.1582,226.7407 Q73.6514,226.7407 72.3315,225.0889 Q71.0117,223.437 71.0117,220.3159 Q71.0117,217.1865 72.3315,215.5347 Q73.6514,213.8828 76.1582,213.8828 Q76.8638,213.8828 77.5112,214.0322 Q78.1587,214.1816 78.7231,214.4805 L78.7231,217.2031 Q78.0923,216.6221 77.4988,216.3523 Q76.9053,216.0825 76.2744,216.0825 Q74.9297,216.0825 74.2449,217.1492 Q73.5601,218.2158 73.5601,220.3159 Q73.5601,222.4077 74.2449,223.4744 Q74.9297,224.541 76.2744,224.541 Q76.9053,224.541 77.4988,224.2712 Q78.0923,224.0015 78.7231,223.4204 Z " fill="#000000"/><text fill="#000000" font-family="sans-serif" font-size="14" lengthAdjust="spacing" textLength="44" x="96.75" y="225.291">Parent</text><line style="stroke:#000000;stroke-width:0.5;" x1="8" x2="197" y1="236" y2="236"/><text fill="#000000" font-family="sans-serif" font-size="14" lengthAdjust="spacing" textLength="61" x="13" y="253.5352">id: string</text><text fill="#000000" font-family="sans-serif" font-size="14" lengthAdjust="spacing" textLength="114" x="13" y="270.0234">firstName: string</text><text fill="#000000" font-family="sans-serif" font-size="14" lengthAdjust="spacing" textLength="111" x="13" y="286.5117">lastName: string</text><text fill="#000000" font-family="sans-serif" font-size="14" lengthAdjust="spacing" textLength="102" x="13" y="303">birthDate: date</text><line style="stroke:#000000;stroke-width:0.5;" x1="8" x2="197" y1="309.9531" y2="309.9531"/><text fill="#000000" font-family="sans-serif" font-size="14" lengthAdjust="spacing" textLength="179" x="13" y="327.4883">deathDate: date (optional)</text></g><!--class Child--><g id="elem_Child"><rect codeLine="29" fill="#FFFFFF" height="130.4414" id="Child" rx="2.5" ry="2.5" style="stroke:#000000;stroke-width:0.5;" width="191" x="607" y="204"/><ellipse cx="680.25" cy="220" fill="#ADD1B2" rx="11" ry="11" style="stroke:#181818;stroke-width:1.0;"/><path d="M682.7231,226.1431 Q682.1421,226.4419 681.5029,226.5913 Q680.8638,226.7407 680.1582,226.7407 Q677.6514,226.7407 676.3315,225.0889 Q675.0117,223.437 675.0117,220.3159 Q675.0117,217.1865 676.3315,215.5347 Q677.6514,213.8828 680.1582,213.8828 Q680.8638,213.8828 681.5112,214.0322 Q682.1587,214.1816 682.7231,214.4805 L682.7231,217.2031 Q682.0923,216.6221 681.4988,216.3523 Q680.9053,216.0825 680.2744,216.0825 Q678.9297,216.0825 678.2449,217.1492 Q677.5601,218.2158 677.5601,220.3159 Q677.5601,222.4077 678.2449,223.4744 Q678.9297,224.541 680.2744,224.541 Q680.9053,224.541 681.4988,224.2712 Q682.0923,224.0015 682.7231,223.4204 Z " fill="#000000"/><text fill="#000000" font-family="sans-serif" font-size="14" lengthAdjust="spacing" textLength="36" x="700.75" y="225.291">Child</text><line style="stroke:#000000;stroke-width:0.5;" x1="608" x2="797" y1="236" y2="236"/><text fill="#000000" font-family="sans-serif" font-size="14" lengthAdjust="spacing" textLength="61" x="613" y="253.5352">id: string</text><text fill="#000000" font-family="sans-serif" font-size="14" lengthAdjust="spacing" textLength="114" x="613" y="270.0234">firstName: string</text><text fill="#000000" font-family="sans-serif" font-size="14" lengthAdjust="spacing" textLength="111" x="613" y="286.5117">lastName: string</text><text fill="#000000" font-family="sans-serif" font-size="14" lengthAdjust="spacing" textLength="102" x="613" y="303">birthDate: date</text><line style="stroke:#000000;stroke-width:0.5;" x1="608" x2="797" y1="309.9531" y2="309.9531"/><text fill="#000000" font-family="sans-serif" font-size="14" lengthAdjust="spacing" textLength="179" x="613" y="327.4883">deathDate: date (optional)</text></g><g id="elem_GMN9"><path d="M835,19.03 L835,55.99 L775.95,58.32 L835,63.99 L835,74.9616 A0,0 0 0 0 835,74.9616 L1192,74.9616 A0,0 0 0 0 1192,74.9616 L1192,29.03 L1182,19.03 L835,19.03 A0,0 0 0 0 835,19.03 " fill="#FEFFDD" style="stroke:#181818;stroke-width:0.5;"/><path d="M1182,19.03 L1182,29.03 L1192,29.03 L1182,19.03 " fill="#FEFFDD" style="stroke:#181818;stroke-width:0.5;"/><text fill="#000000" font-family="sans-serif" font-size="13" lengthAdjust="spacing" textLength="254" x="841" y="36.5984">- A family must have at least one parent</text><text fill="#000000" font-family="sans-serif" font-size="13" lengthAdjust="spacing" textLength="290" x="841" y="51.9089">- A family cannot have more than two parents</text><text fill="#000000" font-family="sans-serif" font-size="13" lengthAdjust="spacing" textLength="336" x="841" y="67.2195">- Family status must be consistent with parent count</text></g><g id="elem_GMN12"><path d="M257.5,241.03 L257.5,278.12 L197.79,281.3 L257.5,286.12 L257.5,296.9616 A0,0 0 0 0 257.5,296.9616 L547.5,296.9616 A0,0 0 0 0 547.5,296.9616 L547.5,251.03 L537.5,241.03 L257.5,241.03 A0,0 0 0 0 257.5,241.03 " fill="#FEFFDD" style="stroke:#181818;stroke-width:0.5;"/><path d="M537.5,241.03 L537.5,251.03 L547.5,251.03 L537.5,241.03 " fill="#FEFFDD" style="stroke:#181818;stroke-width:0.5;"/><text fill="#000000" font-family="sans-serif" font-size="13" lengthAdjust="spacing" textLength="269" x="263.5" y="258.5984">- A parent may belong to multiple families</text><text fill="#000000" font-family="sans-serif" font-size="13" lengthAdjust="spacing" textLength="198" x="263.5" y="273.9089">- Birth date must be in the past</text><text fill="#000000" font-family="sans-serif" font-size="13" lengthAdjust="spacing" textLength="233" x="263.5" y="289.2195">- Death date must be after birth date</text></g><g id="elem_GMN15"><path d="M857.5,241.03 L857.5,278.12 L797.7,281.21 L857.5,286.12 L857.5,296.9616 A0,0 0 0 0 857.5,296.9616 L1165.5,296.9616 A0,0 0 0 0 1165.5,296.9616 L1165.5,251.03 L1155.5,241.03 L857.5,241.03 A0,0 0 0 0 857.5,241.03 " fill="#FEFFDD" style="stroke:#181818;stroke-width:0.5;"/><path d="M1155.5,241.03 L1155.5,251.03 L1165.5,251.03 L1155.5,241.03 " fill="#FEFFDD" style="stroke:#181818;stroke-width:0.5;"/><text fill="#000000" font-family="sans-serif" font-size="13" lengthAdjust="spacing" textLength="287" x="863.5" y="258.5984">- A child belongs to only one family at a time</text><text fill="#000000" font-family="sans-serif" font-size="13" lengthAdjust="spacing" textLength="198" x="863.5" y="273.9089">- Birth date must be in the past</text><text fill="#000000" font-family="sans-serif" font-size="13" lengthAdjust="spacing" textLength="233" x="863.5" y="289.2195">- Death date must be after birth date</text></g><!--reverse link Family to Parent--><g id="link_Family_Parent"><path codeLine="37" d="M614.88,66.44 C519.92,88.07 365.13,128.22 239.5,184 C225.6,190.17 211.41,197.52 197.69,205.27 " fill="none" id="Family-backto-Parent" style="stroke:#000000;stroke-width:1.0;"/><polygon fill="#000000" points="627.54,63.58,620.8077,60.9961,615.8332,66.2167,622.5655,68.8006,627.54,63.58" style="stroke:#000000;stroke-width:1.0;"/><text fill="#000000" font-family="sans-serif" font-size="13" lengthAdjust="spacing" textLength="54" x="351.28" y="150.5684">contains</text><text fill="#000000" font-family="sans-serif" font-size="13" lengthAdjust="spacing" textLength="8" x="613.0299" y="61.6864">1</text><text fill="#000000" font-family="sans-serif" font-size="13" lengthAdjust="spacing" textLength="24" x="184.8687" y="193.258">1..2</text></g><!--reverse link Family to Child--><g id="link_Family_Child"><path codeLine="38" d="M702.5,101.31 C702.5,132.29 702.5,171.52 702.5,204.15 " fill="none" id="Family-backto-Child" style="stroke:#000000;stroke-width:1.0;"/><polygon fill="#000000" points="702.5,88.34,698.5,94.34,702.5,100.34,706.5,94.34,702.5,88.34" style="stroke:#000000;stroke-width:1.0;"/><text fill="#000000" font-family="sans-serif" font-size="13" lengthAdjust="spacing" textLength="54" x="703.5" y="150.5684">contains</text><text fill="#000000" font-family="sans-serif" font-size="13" lengthAdjust="spacing" textLength="8" x="691.45" y="108.7961">1</text><text fill="#000000" font-family="sans-serif" font-size="13" lengthAdjust="spacing" textLength="22" x="679.2281" y="193.3453">0..*</text></g><!--link Family to FamilyStatus--><g id="link_Family_FamilyStatus"><path codeLine="39" d="M771.11,86.95 C786.08,94.38 802.06,101.53 817.5,107 C974.17,162.54 1039.36,101.21 1183.5,184 C1192.71,189.29 1201.41,196.08 1209.42,203.52 " fill="none" id="Family-FamilyStatus" style="stroke:#000000;stroke-width:1.0;"/><text fill="#000000" font-family="sans-serif" font-size="13" lengthAdjust="spacing" textLength="22" x="1113.34" y="150.5684">has</text></g><!--SRC=[lP7BJiD034Nt-GghAq1g1IoxInj0bQ15HOArcqmRYybCDUDG8SI_utaW-X1BM6LoTNrzRFjNCbjqs46jqNluA00cMBzkdErDCxNQEjYrn4hqqZcxIz9AYoTOhMkKszS-YqAPleDRx4Y_Fp5odrAVPlEx-njvF9JBvUocabSrUruif_7vCgiMB_5LJifvjPZBMw8ILCgAATICmRCZiv4V7zF71xr-gXxHASEdLMjodkVOgJrD2ewb5JbkAsJH6eppDmht5JYpMoPhK9__D9ssf9j_wvaNCxWQmCLmAD_Hw7hmFVWOQciOoVWJt-LeT378hASsSHnSRmmj-g8mLlexshGCTfqTGZY44jQfiEizY_TD0J9e9VE1DGgsaUVGMgEHl6Jkh5F0BHhWdSrk7-qPADqvnQzKuFNaESou8svpXSYzT56cWK1wpFku3v4hEdoNF6tD1jXAl6RQQfKGIIM4IJX9slrtVnBGDepbKruLRdHemJKhbywPBlaRLhn1fghZFHAG3qJMoF1XWtbfibK4faxz2TaN]--></g></svg>